<?xml version="1.0" encoding="utf-8"?>
<!-- Generator: Adobe Illustrator 22.0.0, SVG Export Plug-In . SVG Version: 6.00 Build 0)  -->
<svg version="1.1" id="Ebene_3" xmlns="http://www.w3.org/2000/svg" xmlns:xlink="http://www.w3.org/1999/xlink" x="0px" y="0px"
	 viewBox="0 0 56.7 56.7" style="enable-background:new 0 0 56.7 56.7;" xml:space="preserve">
<style type="text/css">
	.st0{fill:none;}
	.st1{clip-path:url(#SVGID_2_);fill:none;stroke:#000000;stroke-width:0.5;stroke-linecap:round;stroke-miterlimit:10;}
	.st2{clip-path:url(#SVGID_2_);}
	.st3{fill:none;stroke:url(#_x31_5102024);stroke-miterlimit:10;}
	.st4{fill:none;stroke:url(#_x31_5102024);stroke-width:0.5;stroke-linecap:round;stroke-miterlimit:10;}
	.st5{stroke:url(#_x31_5102024);stroke-miterlimit:10;}
</style>
<pattern  width="56.7" height="56.7" patternUnits="userSpaceOnUse" id="_x31_5102024" viewBox="6.9 -56.9 56.7 56.7" style="overflow:visible;">
	<g>
		<rect x="6.9" y="-56.9" class="st0" width="56.7" height="56.7"/>
		<g>
			<defs>
				<rect id="SVGID_1_" x="6.9" y="-56.9" width="56.7" height="56.7"/>
			</defs>
			<clipPath id="SVGID_2_">
				<use xlink:href="#SVGID_1_"  style="overflow:visible;"/>
			</clipPath>
			<line class="st1" x1="13.8" y1="-43" x2="36.1" y2="-43"/>
			<line class="st1" x1="42.3" y1="-43" x2="64.1" y2="-43"/>
			<line class="st1" x1="28.5" y1="-52.3" x2="50.7" y2="-52.3"/>
			<line class="st1" x1="0.4" y1="-14.3" x2="22.2" y2="-14.3"/>
			<line class="st1" x1="28.5" y1="-14.3" x2="50.7" y2="-14.3"/>
			<line class="st1" x1="10.9" y1="-39.5" x2="10.9" y2="-46.7"/>
			<line class="st1" x1="25.4" y1="-48.7" x2="25.4" y2="-55.8"/>
			<line class="st1" x1="53.7" y1="-48.7" x2="53.7" y2="-55.8"/>
			<line class="st1" x1="25.4" y1="-10.6" x2="25.4" y2="-17.8"/>
			<line class="st1" x1="53.7" y1="-10.6" x2="53.7" y2="-17.8"/>
			<line class="st1" x1="39.3" y1="-39.5" x2="39.3" y2="-46.7"/>
			<line class="st1" x1="7.2" y1="-49.9" x2="20.9" y2="-49.9"/>
			<line class="st1" x1="19" y1="-21.8" x2="32.7" y2="-21.8"/>
			<line class="st1" x1="37.9" y1="-21.8" x2="51.6" y2="-21.8"/>
			<line class="st1" x1="7.2" y1="-27.2" x2="20.9" y2="-27.2"/>
			<line class="st1" x1="39.7" y1="-30.9" x2="53.3" y2="-30.9"/>
			<line class="st1" x1="45" y1="-27.2" x2="58.7" y2="-27.2"/>
			<line class="st1" x1="56.8" y1="-11.6" x2="70.5" y2="-11.6"/>
			<line class="st1" x1="19" y1="-0.3" x2="32.7" y2="-0.3"/>
			<line class="st1" x1="37.9" y1="-0.3" x2="51.6" y2="-0.3"/>
			<line class="st1" x1="26.1" y1="-5.9" x2="39.8" y2="-5.9"/>
			<line class="st1" x1="45" y1="-5.9" x2="58.7" y2="-5.9"/>
			<circle class="st2" cx="11.2" cy="-50.6" r="0.7"/>
			<circle class="st2" cx="16.9" cy="-50.6" r="0.7"/>
			<circle class="st2" cx="23.1" cy="-22.5" r="0.7"/>
			<circle class="st2" cx="28.8" cy="-22.5" r="0.7"/>
			<circle class="st2" cx="41.8" cy="-22.5" r="0.7"/>
			<circle class="st2" cx="47.5" cy="-22.5" r="0.7"/>
			<circle class="st2" cx="11.2" cy="-27.9" r="0.7"/>
			<circle class="st2" cx="16.9" cy="-27.9" r="0.7"/>
			<circle class="st2" cx="43.8" cy="-31.6" r="0.7"/>
			<circle class="st2" cx="49.5" cy="-31.6" r="0.7"/>
			<circle class="st2" cx="48.9" cy="-27.9" r="0.7"/>
			<circle class="st2" cx="54.6" cy="-27.9" r="0.7"/>
			<circle class="st2" cx="60.8" cy="-12.3" r="0.7"/>
			<circle class="st2" cx="66.5" cy="-12.3" r="0.7"/>
			<circle class="st2" cx="23.1" cy="-1" r="0.7"/>
			<circle class="st2" cx="28.8" cy="-1" r="0.7"/>
			<circle class="st2" cx="41.8" cy="-1" r="0.7"/>
			<circle class="st2" cx="47.5" cy="-1" r="0.7"/>
			<circle class="st2" cx="30.2" cy="-6.7" r="0.7"/>
			<circle class="st2" cx="35.9" cy="-6.7" r="0.7"/>
			<circle class="st2" cx="48.9" cy="-6.7" r="0.7"/>
			<circle class="st2" cx="54.6" cy="-6.7" r="0.7"/>
			<line class="st1" x1="0.3" y1="-54.1" x2="13.9" y2="-54.1"/>
			<line class="st1" x1="56.9" y1="-54.1" x2="70.6" y2="-54.1"/>
			<line class="st1" x1="0.3" y1="-31.4" x2="13.9" y2="-31.4"/>
			<line class="st1" x1="19.1" y1="-31.4" x2="32.8" y2="-31.4"/>
			<line class="st1" x1="25.1" y1="-27.7" x2="38.8" y2="-27.7"/>
			<line class="st1" x1="56.9" y1="-31.4" x2="70.6" y2="-31.4"/>
			<line class="st1" x1="7.3" y1="-37.1" x2="21" y2="-37.1"/>
			<line class="st1" x1="26.2" y1="-37.1" x2="39.9" y2="-37.1"/>
			<line class="st1" x1="45.1" y1="-37.1" x2="58.8" y2="-37.1"/>
			<line class="st1" x1="0.3" y1="-20.1" x2="13.9" y2="-20.1"/>
			<line class="st1" x1="56.9" y1="-20.1" x2="70.6" y2="-20.1"/>
			<line class="st1" x1="8.6" y1="-8.3" x2="22.2" y2="-8.3"/>
			<line class="st1" x1="7.3" y1="-3.1" x2="21" y2="-3.1"/>
		</g>
	</g>
</pattern>
<rect x="0" y="0.1" class="st3" width="56.7" height="56.7"/>
<line class="st4" x1="7" y1="14.1" x2="29.2" y2="14.1"/>
<line class="st4" x1="35.5" y1="14.1" x2="57.3" y2="14.1"/>
<line class="st4" x1="21.6" y1="4.7" x2="43.8" y2="4.7"/>
<line class="st4" x1="-6.5" y1="42.7" x2="15.3" y2="42.7"/>
<line class="st4" x1="21.6" y1="42.7" x2="43.8" y2="42.7"/>
<line class="st4" x1="4.1" y1="17.5" x2="4.1" y2="10.4"/>
<line class="st4" x1="18.5" y1="8.4" x2="18.5" y2="1.2"/>
<line class="st4" x1="46.9" y1="8.4" x2="46.9" y2="1.2"/>
<line class="st4" x1="18.5" y1="46.4" x2="18.5" y2="39.3"/>
<line class="st4" x1="46.9" y1="46.4" x2="46.9" y2="39.3"/>
<line class="st4" x1="32.4" y1="17.5" x2="32.4" y2="10.4"/>
<line class="st4" x1="0.3" y1="7.2" x2="14" y2="7.2"/>
<line class="st4" x1="12.1" y1="35.2" x2="25.8" y2="35.2"/>
<line class="st4" x1="31" y1="35.2" x2="44.7" y2="35.2"/>
<line class="st4" x1="0.3" y1="29.9" x2="14" y2="29.9"/>
<line class="st4" x1="32.8" y1="26.2" x2="46.5" y2="26.2"/>
<line class="st4" x1="38.1" y1="29.9" x2="51.8" y2="29.9"/>
<line class="st4" x1="49.9" y1="45.5" x2="63.6" y2="45.5"/>
<line class="st4" x1="12.1" y1="56.8" x2="25.8" y2="56.8"/>
<line class="st4" x1="31" y1="56.8" x2="44.7" y2="56.8"/>
<line class="st4" x1="19.2" y1="51.1" x2="32.9" y2="51.1"/>
<line class="st4" x1="38.1" y1="51.1" x2="51.8" y2="51.1"/>
<circle class="st5" cx="4.3" cy="6.4" r="0.7"/>
<circle class="st5" cx="10" cy="6.4" r="0.7"/>
<circle class="st5" cx="16.2" cy="34.5" r="0.7"/>
<circle class="st5" cx="21.9" cy="34.5" r="0.7"/>
<circle class="st5" cx="34.9" cy="34.5" r="0.7"/>
<circle class="st5" cx="40.7" cy="34.5" r="0.7"/>
<circle class="st5" cx="4.3" cy="29.1" r="0.7"/>
<circle class="st5" cx="10" cy="29.1" r="0.7"/>
<circle class="st5" cx="36.9" cy="25.4" r="0.7"/>
<circle class="st5" cx="42.6" cy="25.4" r="0.7"/>
<circle class="st5" cx="42" cy="29.1" r="0.7"/>
<circle class="st5" cx="47.7" cy="29.1" r="0.7"/>
<circle class="st5" cx="53.9" cy="44.7" r="0.7"/>
<circle class="st5" cx="59.6" cy="44.7" r="0.7"/>
<circle class="st5" cx="16.2" cy="56.1" r="0.7"/>
<circle class="st5" cx="21.9" cy="56.1" r="0.7"/>
<circle class="st5" cx="34.9" cy="56.1" r="0.7"/>
<circle class="st5" cx="40.7" cy="56.1" r="0.7"/>
<circle class="st5" cx="23.3" cy="50.4" r="0.7"/>
<circle class="st5" cx="29" cy="50.4" r="0.7"/>
<circle class="st5" cx="42" cy="50.4" r="0.7"/>
<circle class="st5" cx="47.7" cy="50.4" r="0.7"/>
<line class="st4" x1="-6.6" y1="2.9" x2="7" y2="2.9"/>
<line class="st4" x1="50.1" y1="2.9" x2="63.7" y2="2.9"/>
<line class="st4" x1="-6.6" y1="25.6" x2="7" y2="25.6"/>
<line class="st4" x1="12.3" y1="25.6" x2="25.9" y2="25.6"/>
<line class="st4" x1="18.2" y1="29.3" x2="31.9" y2="29.3"/>
<line class="st4" x1="50.1" y1="25.6" x2="63.7" y2="25.6"/>
<line class="st4" x1="0.5" y1="19.9" x2="14.1" y2="19.9"/>
<line class="st4" x1="19.4" y1="19.9" x2="33" y2="19.9"/>
<line class="st4" x1="38.3" y1="19.9" x2="51.9" y2="19.9"/>
<line class="st4" x1="-6.6" y1="37" x2="7" y2="37"/>
<line class="st4" x1="50.1" y1="37" x2="63.7" y2="37"/>
<line class="st4" x1="1.7" y1="48.8" x2="15.3" y2="48.8"/>
<line class="st4" x1="0.5" y1="54" x2="14.1" y2="54"/>
</svg>
