<?xml version="1.0" encoding="utf-8"?>
<!-- Generator: Adobe Illustrator 22.0.0, SVG Export Plug-In . SVG Version: 6.00 Build 0)  -->
<svg version="1.1" id="Ebene_1" xmlns="http://www.w3.org/2000/svg" xmlns:xlink="http://www.w3.org/1999/xlink" x="0px" y="0px"
	 viewBox="0 0 56.7 56.7" style="enable-background:new 0 0 56.7 56.7;" xml:space="preserve">
<style type="text/css">
	.st0{fill:none;}
	.st1{clip-path:url(#SVGID_2_);fill:none;stroke:#000000;stroke-width:0.5;stroke-linecap:square;stroke-miterlimit:10;}
	.st2{clip-path:url(#SVGID_2_);fill:none;stroke:#000000;stroke-width:0.5;stroke-miterlimit:10;}
	.st3{clip-path:url(#SVGID_2_);}
	.st4{fill:url(#_x31_5102042);}
	.st5{fill:url(#_x31_5102042);stroke:#000000;stroke-width:0.5;stroke-linecap:square;stroke-miterlimit:10;}
	.st6{fill:url(#_x31_5102042);stroke:#000000;stroke-width:0.5;stroke-miterlimit:10;}
</style>
<pattern  width="56.7" height="56.7" patternUnits="userSpaceOnUse" id="_x31_5102042" viewBox="0.3 -57.2 56.7 56.7" style="overflow:visible;">
	<g>
		<rect x="0.3" y="-57.2" class="st0" width="56.7" height="56.7"/>
		<g>
			<defs>
				<rect id="SVGID_1_" x="0.3" y="-57.2" width="56.7" height="56.7"/>
			</defs>
			<clipPath id="SVGID_2_">
				<use xlink:href="#SVGID_1_"  style="overflow:visible;"/>
			</clipPath>
			<line class="st1" x1="0.5" y1="-38.2" x2="56.8" y2="-38.2"/>
			<line class="st1" x1="0.3" y1="-47.7" x2="56.9" y2="-47.7"/>
			<line class="st1" x1="0.5" y1="-57.2" x2="56.8" y2="-57.2"/>
			<line class="st1" x1="6.5" y1="-47.7" x2="6.5" y2="-57.2"/>
			<line class="st1" x1="6.5" y1="-28.7" x2="6.5" y2="-38.2"/>
			<line class="st2" x1="6.5" y1="-9.7" x2="6.5" y2="-19.2"/>
			<line class="st1" x1="20.9" y1="-38.2" x2="20.9" y2="-47.7"/>
			<line class="st1" x1="49.3" y1="-38.2" x2="49.3" y2="-47.7"/>
			<line class="st1" x1="20.9" y1="-19.4" x2="20.9" y2="-28.7"/>
			<line class="st1" x1="49.3" y1="-19.4" x2="49.3" y2="-28.7"/>
			<line class="st1" x1="34.8" y1="-47.7" x2="34.8" y2="-57.2"/>
			<line class="st1" x1="34.8" y1="-28.7" x2="34.8" y2="-38.2"/>
			<line class="st2" x1="34.8" y1="-9.7" x2="34.8" y2="-19.2"/>
			<line class="st1" x1="0.5" y1="-28.7" x2="56.8" y2="-28.7"/>
			<line class="st1" x1="0.5" y1="-19.2" x2="56.8" y2="-19.2"/>
			<line class="st2" x1="20.9" y1="-0.3" x2="20.9" y2="-9.7"/>
			<line class="st2" x1="49.3" y1="-0.3" x2="49.3" y2="-9.7"/>
			<line class="st1" x1="0.5" y1="-0.3" x2="56.8" y2="-0.3"/>
			<line class="st1" x1="0.5" y1="-9.7" x2="56.8" y2="-9.7"/>
			<circle class="st3" cx="20.7" cy="-33.1" r="0.7"/>
			<circle class="st3" cx="20.7" cy="-52" r="0.7"/>
			<circle class="st3" cx="48.6" cy="-52" r="0.7"/>
			<circle class="st3" cx="34.4" cy="-42.8" r="0.7"/>
			<circle class="st3" cx="6.5" cy="-42.8" r="0.7"/>
			<circle class="st3" cx="6.5" cy="-23.9" r="0.7"/>
			<circle class="st3" cx="34.4" cy="-23.9" r="0.7"/>
			<circle class="st3" cx="48.6" cy="-33.1" r="0.7"/>
			<circle class="st3" cx="20.7" cy="-14.7" r="0.7"/>
			<circle class="st3" cx="6.5" cy="-4.4" r="0.7"/>
			<circle class="st3" cx="34.9" cy="-4.4" r="0.7"/>
			<circle class="st2" cx="20.6" cy="-52" r="2.8"/>
			<circle class="st2" cx="48.6" cy="-52" r="2.8"/>
			<circle class="st2" cx="48.6" cy="-33.1" r="2.8"/>
			<circle class="st2" cx="34.4" cy="-42.8" r="2.8"/>
			<circle class="st2" cx="6.5" cy="-42.8" r="2.8"/>
			<circle class="st2" cx="6.5" cy="-23.9" r="2.8"/>
			<circle class="st2" cx="34.4" cy="-23.9" r="2.8"/>
			<circle class="st2" cx="20.7" cy="-14.7" r="2.8"/>
			<circle class="st3" cx="49.1" cy="-14.7" r="0.7"/>
			<circle class="st2" cx="49.1" cy="-14.7" r="2.8"/>
			<circle class="st2" cx="6.5" cy="-4.4" r="2.8"/>
			<circle class="st2" cx="34.9" cy="-4.4" r="2.8"/>
			<circle class="st2" cx="20.6" cy="-33.1" r="2.8"/>
		</g>
	</g>
</pattern>
<rect x="0" y="0" class="st4" width="56.7" height="56.7"/>
<line class="st5" x1="0.2" y1="19" x2="56.6" y2="19"/>
<line class="st5" x1="0" y1="9.5" x2="56.7" y2="9.5"/>
<line class="st5" x1="0.2" y1="0" x2="56.6" y2="0"/>
<line class="st5" x1="6.2" y1="9.5" x2="6.2" y2="0"/>
<line class="st5" x1="6.2" y1="28.4" x2="6.2" y2="19"/>
<line class="st6" x1="6.2" y1="47.4" x2="6.2" y2="37.9"/>
<line class="st5" x1="20.6" y1="19" x2="20.6" y2="9.5"/>
<line class="st5" x1="49" y1="19" x2="49" y2="9.5"/>
<line class="st5" x1="20.6" y1="37.8" x2="20.6" y2="28.4"/>
<line class="st5" x1="49" y1="37.8" x2="49" y2="28.4"/>
<line class="st5" x1="34.5" y1="9.5" x2="34.5" y2="0"/>
<line class="st5" x1="34.5" y1="28.4" x2="34.5" y2="19"/>
<line class="st6" x1="34.5" y1="47.4" x2="34.5" y2="37.9"/>
<line class="st5" x1="0.2" y1="28.4" x2="56.6" y2="28.4"/>
<line class="st5" x1="0.2" y1="37.9" x2="56.6" y2="37.9"/>
<line class="st6" x1="20.6" y1="56.9" x2="20.6" y2="47.4"/>
<line class="st6" x1="49" y1="56.9" x2="49" y2="47.4"/>
<line class="st5" x1="0.2" y1="56.9" x2="56.6" y2="56.9"/>
<line class="st5" x1="0.2" y1="47.4" x2="56.6" y2="47.4"/>
<circle class="st4" cx="20.5" cy="24.1" r="0.7"/>
<circle class="st4" cx="20.5" cy="5.1" r="0.7"/>
<circle class="st4" cx="48.3" cy="5.1" r="0.7"/>
<circle class="st4" cx="34.1" cy="14.3" r="0.7"/>
<circle class="st4" cx="6.2" cy="14.3" r="0.7"/>
<circle class="st4" cx="6.2" cy="33.3" r="0.7"/>
<circle class="st4" cx="34.1" cy="33.3" r="0.7"/>
<circle class="st4" cx="48.3" cy="24.1" r="0.7"/>
<circle class="st4" cx="20.5" cy="42.5" r="0.7"/>
<circle class="st4" cx="6.2" cy="52.7" r="0.7"/>
<circle class="st4" cx="34.6" cy="52.7" r="0.7"/>
<circle class="st6" cx="20.3" cy="5.1" r="2.8"/>
<circle class="st6" cx="48.3" cy="5.1" r="2.8"/>
<circle class="st6" cx="48.3" cy="24.1" r="2.8"/>
<circle class="st6" cx="34.1" cy="14.3" r="2.8"/>
<circle class="st6" cx="6.2" cy="14.3" r="2.8"/>
<circle class="st6" cx="6.2" cy="33.3" r="2.8"/>
<circle class="st6" cx="34.1" cy="33.3" r="2.8"/>
<circle class="st6" cx="20.5" cy="42.5" r="2.8"/>
<circle class="st4" cx="48.8" cy="42.5" r="0.7"/>
<circle class="st6" cx="48.8" cy="42.5" r="2.8"/>
<circle class="st6" cx="6.2" cy="52.7" r="2.8"/>
<circle class="st6" cx="34.6" cy="52.7" r="2.8"/>
<circle class="st6" cx="20.3" cy="24.1" r="2.8"/>
</svg>
