<?xml version="1.0" encoding="utf-8"?>
<!-- Generator: Adobe Illustrator 22.0.0, SVG Export Plug-In . SVG Version: 6.00 Build 0)  -->
<svg version="1.1" id="Ebene_1" xmlns="http://www.w3.org/2000/svg" xmlns:xlink="http://www.w3.org/1999/xlink" x="0px" y="0px"
	 viewBox="0 0 56.7 56.7" style="enable-background:new 0 0 56.7 56.7;" xml:space="preserve">
<style type="text/css">
	.st0{fill:none;}
	.st1{clip-path:url(#SVGID_2_);fill:none;stroke:#000000;stroke-width:0.5;stroke-miterlimit:10;}
	.st2{fill:none;stroke:url(#_x31_5102006);stroke-miterlimit:10;}
	.st3{fill:none;stroke:url(#_x31_5102006);stroke-width:0.5;stroke-miterlimit:10;}
</style>
<pattern  width="56.7" height="56.7" patternUnits="userSpaceOnUse" id="_x31_5102006" viewBox="6.5 -58.3 56.7 56.7" style="overflow:visible;">
	<g>
		<rect x="6.5" y="-58.3" class="st0" width="56.7" height="56.7"/>
		<g>
			<defs>
				<rect id="SVGID_1_" x="6.5" y="-58.3" width="56.7" height="56.7"/>
			</defs>
			<clipPath id="SVGID_2_">
				<use xlink:href="#SVGID_1_"  style="overflow:visible;"/>
			</clipPath>
			<polygon class="st1" points="41.9,-58.7 41.9,-70.2 52.4,-73.8 60.9,-69.8 51.5,-57 			"/>
			<polygon class="st1" points="41.9,-30.3 41.9,-41.8 52.4,-45.4 60.9,-41.5 51.5,-28.6 			"/>
			<polygon class="st1" points="41.9,-2 41.9,-13.5 52.4,-17.1 60.9,-13.1 51.5,-0.3 			"/>
			<polygon class="st1" points="0.6,-48.8 6.3,-54.8 11.2,-48.8 			"/>
			<polygon class="st1" points="25,-54.8 19.3,-48.8 29.9,-48.8 			"/>
			<polygon class="st1" points="43.7,-54.8 38,-48.8 48.6,-48.8 			"/>
			<polygon class="st1" points="63,-54.8 57.3,-48.8 67.9,-48.8 			"/>
			<polygon class="st1" points="63,-26.4 57.3,-20.4 67.9,-20.4 			"/>
			<polygon class="st1" points="43.7,-26.4 38,-20.4 48.6,-20.4 			"/>
			<polygon class="st1" points="25,-26.4 19.3,-20.4 29.9,-20.4 			"/>
			<polygon class="st1" points="6.3,-26.4 0.6,-20.4 11.2,-20.4 			"/>
			<polygon class="st1" points="7.1,-34.6 14.5,-42.8 20.8,-34.6 			"/>
			<polygon class="st1" points="32.1,-42.8 24.7,-34.6 38.4,-34.6 			"/>
			<polygon class="st1" points="32.1,-14.4 24.7,-6.3 38.4,-6.3 			"/>
			<polygon class="st1" points="14.5,-14.4 7.1,-6.3 20.8,-6.3 			"/>
		</g>
	</g>
</pattern>
<rect x="0" y="0" class="st2" width="56.7" height="56.7"/>
<polygon class="st3" points="35.4,-0.3 35.4,-11.8 45.9,-15.4 54.4,-11.5 45,1.4 "/>
<polygon class="st3" points="35.4,28 35.4,16.5 45.9,12.9 54.4,16.8 45,29.7 "/>
<polygon class="st3" points="35.4,56.4 35.4,44.8 45.9,41.3 54.4,45.2 45,58 "/>
<polygon class="st3" points="-5.9,9.6 -0.2,3.5 4.7,9.6 "/>
<polygon class="st3" points="18.5,3.5 12.8,9.6 23.4,9.6 "/>
<polygon class="st3" points="37.2,3.5 31.5,9.6 42.1,9.6 "/>
<polygon class="st3" points="56.5,3.5 50.8,9.6 61.4,9.6 "/>
<polygon class="st3" points="56.5,31.9 50.8,37.9 61.4,37.9 "/>
<polygon class="st3" points="37.2,31.9 31.5,37.9 42.1,37.9 "/>
<polygon class="st3" points="18.5,31.9 12.8,37.9 23.4,37.9 "/>
<polygon class="st3" points="-0.2,31.9 -5.9,37.9 4.7,37.9 "/>
<polygon class="st3" points="0.7,23.7 8,15.5 14.3,23.7 "/>
<polygon class="st3" points="25.6,15.5 18.2,23.7 31.9,23.7 "/>
<polygon class="st3" points="25.6,43.9 18.2,52 31.9,52 "/>
<polygon class="st3" points="8,43.9 0.7,52 14.3,52 "/>
</svg>
