<?xml version="1.0" encoding="utf-8"?>
<!-- Generator: Adobe Illustrator 22.0.0, SVG Export Plug-In . SVG Version: 6.00 Build 0)  -->
<svg version="1.1" id="Ebene_1" xmlns="http://www.w3.org/2000/svg" xmlns:xlink="http://www.w3.org/1999/xlink" x="0px" y="0px"
	 viewBox="0 0 56.7 56.7" style="enable-background:new 0 0 56.7 56.7;" xml:space="preserve">
<style type="text/css">
	.st0{fill:none;}
	.st1{fill:none;stroke:#000000;stroke-width:0.5;stroke-linejoin:round;stroke-miterlimit:10;}
	.st2{fill:none;stroke:url(#_x31_5102072);stroke-miterlimit:10;}
	.st3{fill:none;stroke:url(#_x31_5102072);stroke-width:0.5;stroke-linejoin:round;stroke-miterlimit:10;}
</style>
<pattern  width="56.7" height="56.7" patternUnits="userSpaceOnUse" id="_x31_5102072" viewBox="0 -56.7 56.7 56.7" style="overflow:visible;">
	<g>
		<rect y="-56.7" class="st0" width="56.7" height="56.7"/>
		<path class="st1" d="M33-17.3l7.8,8.2l8-8.2l-1.5,0.9c-3.9,2.6-9,2.6-12.9,0L33-17.3z"/>
		<path class="st1" d="M33-35.5l7.8,8.2l8-8.2l-1.5,0.9c-3.9,2.6-9,2.6-12.9,0L33-35.5z"/>
		<path class="st1" d="M33.1-56.2l7.8,8.2l8-8.2l-1.5,0.9c-3.9,2.6-9,2.6-12.9,0L33.1-56.2z"/>
		<path class="st1" d="M4.7-27l7.8,8.2l8.1-8.2L19.1-26c-3.9,2.6-9,2.6-12.9,0L4.7-27z"/>
		<path class="st1" d="M4.7-9l7.8,8.2L20.5-9L19.1-8c-3.9,2.6-9,2.6-12.9,0L4.7-9z"/>
		<path class="st1" d="M4.7-45.2l7.8,8.2l8.1-8.2l-1.5,0.9c-3.9,2.6-9,2.6-12.9,0L4.7-45.2z"/>
	</g>
</pattern>
<rect x="0" y="0" class="st2" width="56.7" height="56.7"/>
<path class="st3" d="M33,39.4l7.8,8.2l8-8.2l-1.5,0.9c-3.9,2.6-9,2.6-12.9,0L33,39.4z"/>
<path class="st3" d="M33,21.1l7.8,8.2l8-8.2l-1.5,0.9c-3.9,2.6-9,2.6-12.9,0L33,21.1z"/>
<path class="st3" d="M33.1,0.5l7.8,8.2l8-8.2l-1.5,0.9c-3.9,2.6-9,2.6-12.9,0L33.1,0.5z"/>
<path class="st3" d="M4.7,29.7l7.8,8.2l8.1-8.2l-1.5,0.9c-3.9,2.6-9,2.6-12.9,0L4.7,29.7z"/>
<path class="st3" d="M4.7,47.7l7.8,8.2l8.1-8.2l-1.5,0.9c-3.9,2.6-9,2.6-12.9,0L4.7,47.7z"/>
<path class="st3" d="M4.7,11.5l7.8,8.2l8.1-8.2l-1.5,0.9c-3.9,2.6-9,2.6-12.9,0L4.7,11.5z"/>
</svg>
