<?xml version="1.0" encoding="utf-8"?>
<!-- Generator: Adobe Illustrator 22.0.0, SVG Export Plug-In . SVG Version: 6.00 Build 0)  -->
<svg version="1.1" id="Ebene_1" xmlns="http://www.w3.org/2000/svg" xmlns:xlink="http://www.w3.org/1999/xlink" x="0px" y="0px"
	 viewBox="0 0 56.7 56.7" style="enable-background:new 0 0 56.7 56.7;" xml:space="preserve">
<style type="text/css">
	.st0{fill:none;}
	.st1{fill:none;stroke:#000000;stroke-width:0.5;stroke-miterlimit:10;}
	.st2{fill:none;stroke:url(#_x31_5102005);stroke-miterlimit:10;}
	.st3{fill:none;stroke:url(#_x31_5102005);stroke-width:0.5;stroke-miterlimit:10;}
</style>
<pattern  width="56.7" height="56.7" patternUnits="userSpaceOnUse" id="_x31_5102005" viewBox="0 -56.7 56.7 56.7" style="overflow:visible;">
	<g>
		<rect y="-56.7" class="st0" width="56.7" height="56.7"/>
		<path class="st1" d="M26.1-45.4c1.7-0.2,4.2-0.8,5.6-1.4c1.5-0.6,2.7-1.8,2.7-2.7c0-0.9-0.6-2-1.4-2.6c-0.7-0.6-2.6-1.2-4.3-1.5
			c-1.6-0.2-3.8-0.1-4.9,0.3c-1.1,0.4-2.4,1.8-3,2.9c-0.6,1.2-0.4,3,0.6,3.8c0.8,0.7,2.5,1.2,4,1.2C25.6-45.4,25.8-45.4,26.1-45.4z"
			/>
		<path class="st1" d="M7.3-45.4c1.7-0.2,4.2-0.8,5.6-1.4c1.5-0.6,2.7-1.8,2.7-2.7c0-0.9-0.6-2-1.4-2.6c-0.7-0.6-2.6-1.2-4.3-1.5
			c-1.6-0.2-3.8-0.1-4.9,0.3c-1.1,0.4-2.4,1.8-3,2.9c-0.6,1.2-0.4,3,0.6,3.8c0.8,0.7,2.5,1.2,4,1.2C6.8-45.4,7-45.4,7.3-45.4z"/>
		<path class="st1" d="M45.3-45.4c1.7-0.2,4.2-0.8,5.6-1.4c1.5-0.6,2.7-1.8,2.7-2.7c0-0.9-0.6-2-1.4-2.6c-0.7-0.6-2.6-1.2-4.3-1.5
			c-1.6-0.2-3.8-0.1-4.9,0.3c-1.1,0.4-2.4,1.8-3,2.9c-0.6,1.2-0.4,3,0.6,3.8c0.8,0.7,2.5,1.2,4,1.2C44.8-45.4,45.1-45.4,45.3-45.4z"
			/>
		<path class="st1" d="M26.1-31.3c1.7-0.2,4.2-0.8,5.6-1.4c1.5-0.6,2.7-1.8,2.7-2.7c0-0.9-0.6-2-1.4-2.6c-0.7-0.6-2.6-1.2-4.3-1.5
			c-1.6-0.2-3.8-0.1-4.9,0.3c-1.1,0.4-2.4,1.8-3,2.9c-0.6,1.2-0.4,3,0.6,3.8c0.8,0.7,2.5,1.2,4,1.2C25.6-31.2,25.8-31.2,26.1-31.3z"
			/>
		<path class="st1" d="M45.3-31.3c1.7-0.2,4.2-0.8,5.6-1.4c1.5-0.6,2.7-1.8,2.7-2.7c0-0.9-0.6-2-1.4-2.6c-0.7-0.6-2.6-1.2-4.3-1.5
			c-1.6-0.2-3.8-0.1-4.9,0.3c-1.1,0.4-2.4,1.8-3,2.9c-0.6,1.2-0.4,3,0.6,3.8c0.8,0.7,2.5,1.2,4,1.2C44.8-31.2,45.1-31.2,45.3-31.3z"
			/>
		<path class="st1" d="M45.3-17.1c1.7-0.2,4.2-0.8,5.6-1.4c1.5-0.6,2.7-1.8,2.7-2.7c0-0.9-0.6-2-1.4-2.6c-0.7-0.6-2.6-1.2-4.3-1.5
			C46.2-25.6,44-25.4,43-25c-1.1,0.4-2.4,1.8-3,2.9c-0.6,1.2-0.4,3,0.6,3.8c0.8,0.7,2.5,1.2,4,1.2C44.8-17.1,45.1-17.1,45.3-17.1z"
			/>
		<polygon class="st1" points="16.9,-5.1 16.9,-16.6 27.4,-20.2 35.9,-16.3 26.5,-3.4 		"/>
		<polygon class="st1" points="7.5,-40.2 1.7,-34.2 12.4,-34.2 		"/>
		<polygon class="st1" points="7.5,-22 1.7,-15.9 12.4,-15.9 		"/>
		<polygon class="st1" points="9.1,-10.8 3.3,-4.8 14,-4.8 		"/>
		<polygon class="st1" points="16,-32.4 8.6,-24.3 22.3,-24.3 		"/>
		<polygon class="st1" points="45.5,-13 38.1,-4.8 51.7,-4.8 		"/>
	</g>
</pattern>
<rect x="0" y="0" class="st2" width="56.7" height="56.7"/>
<path class="st3" d="M25.3,11.3c-1.5,0-3.2-0.5-4-1.2c-1-0.9-1.2-2.6-0.6-3.8c0.6-1.2,2-2.5,3-2.9c1-0.4,3.2-0.6,4.9-0.3
	c1.6,0.2,3.6,0.9,4.3,1.5c0.8,0.6,1.4,1.8,1.4,2.6c0,0.9-1.2,2.1-2.7,2.7c-1.4,0.6-3.9,1.2-5.6,1.4C25.8,11.3,25.6,11.3,25.3,11.3z"
	/>
<path class="st3" d="M6.5,11.3c-1.5,0-3.2-0.5-4-1.2c-1-0.9-1.2-2.6-0.6-3.8c0.6-1.2,2-2.5,3-2.9C6,2.9,8.2,2.8,9.8,3
	c1.6,0.2,3.6,0.9,4.3,1.5c0.8,0.6,1.4,1.8,1.4,2.6c0,0.9-1.2,2.1-2.7,2.7c-1.4,0.6-3.9,1.2-5.6,1.4C7,11.3,6.8,11.3,6.5,11.3z"/>
<path class="st3" d="M44.6,11.3c-1.5,0-3.2-0.5-4-1.2c-1-0.9-1.2-2.6-0.6-3.8c0.6-1.2,2-2.5,3-2.9c1-0.4,3.2-0.6,4.9-0.3
	c1.6,0.2,3.6,0.9,4.3,1.5c0.8,0.6,1.4,1.8,1.4,2.6c0,0.9-1.2,2.1-2.7,2.7c-1.4,0.6-3.9,1.2-5.6,1.4C45.1,11.3,44.8,11.3,44.6,11.3z"
	/>
<path class="st3" d="M25.3,25.5c-1.5,0-3.2-0.5-4-1.2c-1-0.9-1.2-2.6-0.6-3.8c0.6-1.2,2-2.5,3-2.9c1-0.4,3.2-0.6,4.9-0.3
	c1.6,0.2,3.6,0.9,4.3,1.5c0.8,0.6,1.4,1.8,1.4,2.6c0,0.9-1.2,2.1-2.7,2.7c-1.4,0.6-3.9,1.2-5.6,1.4C25.8,25.4,25.6,25.5,25.3,25.5z"
	/>
<path class="st3" d="M44.6,25.5c-1.5,0-3.2-0.5-4-1.2c-1-0.9-1.2-2.6-0.6-3.8c0.6-1.2,2-2.5,3-2.9c1-0.4,3.2-0.6,4.9-0.3
	c1.6,0.2,3.6,0.9,4.3,1.5c0.8,0.6,1.4,1.8,1.4,2.6c0,0.9-1.2,2.1-2.7,2.7c-1.4,0.6-3.9,1.2-5.6,1.4C45.1,25.4,44.8,25.5,44.6,25.5z"
	/>
<path class="st3" d="M44.6,39.6c-1.5,0-3.2-0.5-4-1.2c-1-0.9-1.2-2.6-0.6-3.8c0.6-1.2,2-2.5,3-2.9c1-0.4,3.2-0.6,4.9-0.3
	c1.6,0.2,3.6,0.9,4.3,1.5c0.8,0.6,1.4,1.8,1.4,2.6c0,0.9-1.2,2.1-2.7,2.7c-1.4,0.6-3.9,1.2-5.6,1.4C45.1,39.6,44.8,39.6,44.6,39.6z"
	/>
<polygon class="st3" points="16.9,51.6 16.9,40 27.4,36.5 35.9,40.4 26.5,53.3 "/>
<polygon class="st3" points="7.5,16.5 1.7,22.5 12.4,22.5 "/>
<polygon class="st3" points="7.5,34.7 1.7,40.8 12.4,40.8 "/>
<polygon class="st3" points="9.1,45.9 3.3,51.9 14,51.9 "/>
<polygon class="st3" points="16,24.3 8.6,32.4 22.3,32.4 "/>
<polygon class="st3" points="45.5,43.7 38.1,51.9 51.7,51.9 "/>
</svg>
