<?xml version="1.0" encoding="utf-8"?>
<!-- Generator: Adobe Illustrator 22.0.0, SVG Export Plug-In . SVG Version: 6.00 Build 0)  -->
<svg version="1.1" id="Ebene_1" xmlns="http://www.w3.org/2000/svg" xmlns:xlink="http://www.w3.org/1999/xlink" x="0px" y="0px"
	 viewBox="0 0 56.7 56.7" style="enable-background:new 0 0 56.7 56.7;" xml:space="preserve">
<style type="text/css">
	.st0{fill:none;}
	.st1{fill:none;stroke:#000000;stroke-width:0.5;stroke-linecap:round;stroke-miterlimit:10;}
	.st2{fill:url(#_x31_5102014);}
</style>
<pattern  width="56.7" height="56.7" patternUnits="userSpaceOnUse" id="_x31_5102014" viewBox="0 -56.7 56.7 56.7" style="overflow:visible;">
	<g>
		<rect y="-56.7" class="st0" width="56.7" height="56.7"/>
		<circle cx="2.8" cy="-53.9" r="0.7"/>
		<circle cx="8.5" cy="-53.9" r="0.7"/>
		<circle cx="14.1" cy="-53.9" r="0.7"/>
		<circle cx="19.8" cy="-53.9" r="0.7"/>
		<circle cx="25.5" cy="-53.9" r="0.7"/>
		<circle cx="31.1" cy="-53.9" r="0.7"/>
		<circle cx="36.8" cy="-53.9" r="0.7"/>
		<circle cx="42.5" cy="-53.9" r="0.7"/>
		<circle cx="48.1" cy="-53.9" r="0.7"/>
		<circle cx="53.8" cy="-53.9" r="0.7"/>
		<circle cx="2.8" cy="-48.2" r="0.7"/>
		<circle cx="8.5" cy="-48.2" r="0.7"/>
		<circle cx="14.1" cy="-48.2" r="0.7"/>
		<circle cx="19.8" cy="-48.2" r="0.7"/>
		<circle cx="25.5" cy="-48.2" r="0.7"/>
		<circle cx="31.1" cy="-48.2" r="0.7"/>
		<circle cx="36.8" cy="-48.2" r="0.7"/>
		<circle cx="42.5" cy="-48.2" r="0.7"/>
		<circle cx="48.1" cy="-48.2" r="0.7"/>
		<circle cx="53.8" cy="-48.2" r="0.7"/>
		<circle cx="2.8" cy="-42.5" r="0.7"/>
		<circle cx="8.5" cy="-42.5" r="0.7"/>
		<circle cx="14.1" cy="-42.5" r="0.7"/>
		<circle cx="19.8" cy="-42.5" r="0.7"/>
		<circle cx="25.5" cy="-42.5" r="0.7"/>
		<circle cx="31.1" cy="-42.5" r="0.7"/>
		<circle cx="36.8" cy="-42.5" r="0.7"/>
		<circle cx="42.5" cy="-42.5" r="0.7"/>
		<circle cx="48.1" cy="-42.5" r="0.7"/>
		<circle cx="53.8" cy="-42.5" r="0.7"/>
		<circle cx="2.8" cy="-36.9" r="0.7"/>
		<circle cx="8.5" cy="-36.9" r="0.7"/>
		<circle cx="14.1" cy="-36.9" r="0.7"/>
		<circle cx="19.8" cy="-36.9" r="0.7"/>
		<circle cx="25.5" cy="-36.9" r="0.7"/>
		<circle cx="31.1" cy="-36.9" r="0.7"/>
		<circle cx="36.8" cy="-36.9" r="0.7"/>
		<circle cx="42.5" cy="-36.9" r="0.7"/>
		<circle cx="48.1" cy="-36.9" r="0.7"/>
		<circle cx="53.8" cy="-36.9" r="0.7"/>
		<circle cx="2.8" cy="-31.2" r="0.7"/>
		<circle cx="8.5" cy="-31.2" r="0.7"/>
		<circle cx="14.1" cy="-31.2" r="0.7"/>
		<circle cx="19.8" cy="-31.2" r="0.7"/>
		<circle cx="25.5" cy="-31.2" r="0.7"/>
		<circle cx="31.1" cy="-31.2" r="0.7"/>
		<circle cx="36.8" cy="-31.2" r="0.7"/>
		<circle cx="42.5" cy="-31.2" r="0.7"/>
		<circle cx="48.1" cy="-31.2" r="0.7"/>
		<circle cx="53.8" cy="-31.2" r="0.7"/>
		<circle cx="2.8" cy="-25.5" r="0.7"/>
		<circle cx="8.5" cy="-25.5" r="0.7"/>
		<circle cx="14.1" cy="-25.5" r="0.7"/>
		<circle cx="19.8" cy="-25.5" r="0.7"/>
		<circle cx="25.5" cy="-25.5" r="0.7"/>
		<circle cx="31.1" cy="-25.5" r="0.7"/>
		<circle cx="36.8" cy="-25.5" r="0.7"/>
		<circle cx="42.5" cy="-25.5" r="0.7"/>
		<circle cx="48.1" cy="-25.5" r="0.7"/>
		<circle cx="53.8" cy="-25.5" r="0.7"/>
		<circle cx="2.8" cy="-19.8" r="0.7"/>
		<circle cx="8.5" cy="-19.8" r="0.7"/>
		<circle cx="14.1" cy="-19.8" r="0.7"/>
		<circle cx="19.8" cy="-19.8" r="0.7"/>
		<circle cx="25.5" cy="-19.8" r="0.7"/>
		<circle cx="31.1" cy="-19.8" r="0.7"/>
		<circle cx="36.8" cy="-19.8" r="0.7"/>
		<circle cx="42.5" cy="-19.8" r="0.7"/>
		<circle cx="48.1" cy="-19.8" r="0.7"/>
		<circle cx="53.8" cy="-19.8" r="0.7"/>
		<circle cx="2.8" cy="-14.2" r="0.7"/>
		<circle cx="8.5" cy="-14.2" r="0.7"/>
		<circle cx="14.1" cy="-14.2" r="0.7"/>
		<circle cx="19.8" cy="-14.2" r="0.7"/>
		<circle cx="25.5" cy="-14.2" r="0.7"/>
		<circle cx="31.1" cy="-14.2" r="0.7"/>
		<circle cx="36.8" cy="-14.2" r="0.7"/>
		<circle cx="42.5" cy="-14.2" r="0.7"/>
		<circle cx="48.1" cy="-14.2" r="0.7"/>
		<circle cx="53.8" cy="-14.2" r="0.7"/>
		<circle cx="2.8" cy="-8.5" r="0.7"/>
		<circle cx="8.5" cy="-8.5" r="0.7"/>
		<circle cx="14.1" cy="-8.5" r="0.7"/>
		<circle cx="19.8" cy="-8.5" r="0.7"/>
		<circle cx="25.5" cy="-8.5" r="0.7"/>
		<circle cx="31.1" cy="-8.5" r="0.7"/>
		<circle cx="36.8" cy="-8.5" r="0.7"/>
		<circle cx="42.5" cy="-8.5" r="0.7"/>
		<circle cx="48.1" cy="-8.5" r="0.7"/>
		<circle cx="53.8" cy="-8.5" r="0.7"/>
		<circle cx="2.8" cy="-2.8" r="0.7"/>
		<circle cx="8.5" cy="-2.8" r="0.7"/>
		<circle cx="14.1" cy="-2.8" r="0.7"/>
		<circle cx="19.8" cy="-2.8" r="0.7"/>
		<circle cx="25.5" cy="-2.8" r="0.7"/>
		<circle cx="31.1" cy="-2.8" r="0.7"/>
		<circle cx="36.8" cy="-2.8" r="0.7"/>
		<circle cx="42.5" cy="-2.8" r="0.7"/>
		<circle cx="48.1" cy="-2.8" r="0.7"/>
		<circle cx="53.8" cy="-2.8" r="0.7"/>
		<line class="st1" x1="11.3" y1="-45.4" x2="25.5" y2="-45.4"/>
		<line class="st1" x1="28.3" y1="-17.1" x2="42.5" y2="-17.1"/>
	</g>
</pattern>
<rect x="0" y="0" class="st0" width="56.7" height="56.7"/>
<circle cx="2.8" cy="2.8" r="0.7"/>
<circle cx="8.5" cy="2.8" r="0.7"/>
<circle cx="14.1" cy="2.8" r="0.7"/>
<circle cx="19.8" cy="2.8" r="0.7"/>
<circle cx="25.5" cy="2.8" r="0.7"/>
<circle cx="31.1" cy="2.8" r="0.7"/>
<circle cx="36.8" cy="2.8" r="0.7"/>
<circle cx="42.5" cy="2.8" r="0.7"/>
<circle cx="48.1" cy="2.8" r="0.7"/>
<circle cx="53.8" cy="2.8" r="0.7"/>
<circle cx="2.8" cy="8.5" r="0.7"/>
<circle cx="8.5" cy="8.5" r="0.7"/>
<circle cx="14.1" cy="8.5" r="0.7"/>
<circle class="st2" cx="19.8" cy="8.5" r="0.7"/>
<circle cx="25.5" cy="8.5" r="0.7"/>
<circle cx="31.1" cy="8.5" r="0.7"/>
<circle cx="36.8" cy="8.5" r="0.7"/>
<circle cx="42.5" cy="8.5" r="0.7"/>
<circle cx="48.1" cy="8.5" r="0.7"/>
<circle cx="53.8" cy="8.5" r="0.7"/>
<circle cx="2.8" cy="14.2" r="0.7"/>
<circle cx="8.5" cy="14.2" r="0.7"/>
<circle cx="14.1" cy="14.2" r="0.7"/>
<circle cx="19.8" cy="14.2" r="0.7"/>
<circle cx="25.5" cy="14.2" r="0.7"/>
<circle cx="31.1" cy="14.2" r="0.7"/>
<circle cx="36.8" cy="14.2" r="0.7"/>
<circle cx="42.5" cy="14.2" r="0.7"/>
<circle cx="48.1" cy="14.2" r="0.7"/>
<circle cx="53.8" cy="14.2" r="0.7"/>
<circle cx="2.8" cy="19.8" r="0.7"/>
<circle cx="8.5" cy="19.8" r="0.7"/>
<circle cx="14.1" cy="19.8" r="0.7"/>
<circle cx="19.8" cy="19.8" r="0.7"/>
<circle cx="25.5" cy="19.8" r="0.7"/>
<circle cx="31.1" cy="19.8" r="0.7"/>
<circle cx="36.8" cy="19.8" r="0.7"/>
<circle cx="42.5" cy="19.8" r="0.7"/>
<circle cx="48.1" cy="19.8" r="0.7"/>
<circle cx="53.8" cy="19.8" r="0.7"/>
<circle cx="2.8" cy="25.5" r="0.7"/>
<circle cx="8.5" cy="25.5" r="0.7"/>
<circle cx="14.1" cy="25.5" r="0.7"/>
<circle cx="19.8" cy="25.5" r="0.7"/>
<circle cx="25.5" cy="25.5" r="0.7"/>
<circle cx="31.1" cy="25.5" r="0.7"/>
<circle cx="36.8" cy="25.5" r="0.7"/>
<circle cx="42.5" cy="25.5" r="0.7"/>
<circle cx="48.1" cy="25.5" r="0.7"/>
<circle cx="53.8" cy="25.5" r="0.7"/>
<circle cx="2.8" cy="31.2" r="0.7"/>
<circle cx="8.5" cy="31.2" r="0.7"/>
<circle cx="14.1" cy="31.2" r="0.7"/>
<circle cx="19.8" cy="31.2" r="0.7"/>
<circle cx="25.5" cy="31.2" r="0.7"/>
<circle cx="31.1" cy="31.2" r="0.7"/>
<circle cx="36.8" cy="31.2" r="0.7"/>
<circle cx="42.5" cy="31.2" r="0.7"/>
<circle cx="48.1" cy="31.2" r="0.7"/>
<circle cx="53.8" cy="31.2" r="0.7"/>
<circle cx="2.8" cy="36.8" r="0.7"/>
<circle cx="8.5" cy="36.8" r="0.7"/>
<circle cx="14.1" cy="36.8" r="0.7"/>
<circle cx="19.8" cy="36.8" r="0.7"/>
<circle cx="25.5" cy="36.8" r="0.7"/>
<circle cx="31.1" cy="36.8" r="0.7"/>
<circle cx="36.8" cy="36.8" r="0.7"/>
<circle cx="42.5" cy="36.8" r="0.7"/>
<circle cx="48.1" cy="36.8" r="0.7"/>
<circle cx="53.8" cy="36.8" r="0.7"/>
<circle cx="2.8" cy="42.5" r="0.7"/>
<circle cx="8.5" cy="42.5" r="0.7"/>
<circle cx="14.1" cy="42.5" r="0.7"/>
<circle cx="19.8" cy="42.5" r="0.7"/>
<circle cx="25.5" cy="42.5" r="0.7"/>
<circle cx="31.1" cy="42.5" r="0.7"/>
<circle cx="36.8" cy="42.5" r="0.7"/>
<circle cx="42.5" cy="42.5" r="0.7"/>
<circle cx="48.1" cy="42.5" r="0.7"/>
<circle cx="53.8" cy="42.5" r="0.7"/>
<circle cx="2.8" cy="48.2" r="0.7"/>
<circle cx="8.5" cy="48.2" r="0.7"/>
<circle cx="14.1" cy="48.2" r="0.7"/>
<circle cx="19.8" cy="48.2" r="0.7"/>
<circle cx="25.5" cy="48.2" r="0.7"/>
<circle cx="31.1" cy="48.2" r="0.7"/>
<circle cx="36.8" cy="48.2" r="0.7"/>
<circle cx="42.5" cy="48.2" r="0.7"/>
<circle cx="48.1" cy="48.2" r="0.7"/>
<circle cx="53.8" cy="48.2" r="0.7"/>
<circle cx="2.8" cy="53.9" r="0.7"/>
<circle cx="8.5" cy="53.9" r="0.7"/>
<circle cx="14.1" cy="53.9" r="0.7"/>
<circle cx="19.8" cy="53.9" r="0.7"/>
<circle cx="25.5" cy="53.9" r="0.7"/>
<circle cx="31.1" cy="53.9" r="0.7"/>
<circle cx="36.8" cy="53.9" r="0.7"/>
<circle cx="42.5" cy="53.9" r="0.7"/>
<circle cx="48.1" cy="53.9" r="0.7"/>
<circle cx="53.8" cy="53.9" r="0.7"/>
<line class="st1" x1="11.3" y1="11.3" x2="25.5" y2="11.3"/>
<line class="st1" x1="28.3" y1="39.6" x2="42.5" y2="39.6"/>
</svg>
