<?xml version="1.0" encoding="UTF-8" standalone="no"?>
<svg
   xmlns:dc="http://purl.org/dc/elements/1.1/"
   xmlns:cc="http://creativecommons.org/ns#"
   xmlns:rdf="http://www.w3.org/1999/02/22-rdf-syntax-ns#"
   xmlns:svg="http://www.w3.org/2000/svg"
   xmlns="http://www.w3.org/2000/svg"
   xmlns:sodipodi="http://sodipodi.sourceforge.net/DTD/sodipodi-0.dtd"
   xmlns:inkscape="http://www.inkscape.org/namespaces/inkscape"
   xml:space="preserve"
   style="enable-background:new 0 0 56.7 56.7;"
   viewBox="0 0 56.7 56.7"
   y="0px"
   x="0px"
   id="Ebene_1"
   version="1.1"
   sodipodi:docname="15101001.svg"
   inkscape:version="0.92.3 (2405546, 2018-03-11)"><sodipodi:namedview
   pagecolor="#ffffff"
   bordercolor="#666666"
   borderopacity="1"
   objecttolerance="10"
   gridtolerance="10"
   guidetolerance="10"
   inkscape:pageopacity="0"
   inkscape:pageshadow="2"
   inkscape:window-width="3840"
   inkscape:window-height="2086"
   id="namedview175"
   showgrid="false"
   inkscape:zoom="4.1622574"
   inkscape:cx="28.35"
   inkscape:cy="28.35"
   inkscape:window-x="0"
   inkscape:window-y="0"
   inkscape:window-maximized="1"
   inkscape:current-layer="Ebene_1" /><metadata
   id="metadata346"><rdf:RDF><cc:Work
       rdf:about=""><dc:format>image/svg+xml</dc:format><dc:type
         rdf:resource="http://purl.org/dc/dcmitype/StillImage" /><dc:title /></cc:Work></rdf:RDF></metadata><defs
   id="defs344">
		
		
		
		
		
		
	</defs>
<style
   id="style2"
   type="text/css">
	.st0{fill:none;}
	.st1{fill:none;stroke:#1D1D1B;stroke-width:0.3;}
	.st2{fill:#1D1D1B;}
	.st3{fill:#FFFFFF;}
	.st4{fill:url(#_x31_5101001);}
</style>
<pattern
   style="overflow:visible;"
   viewBox="5.2 -74.5 72 72"
   id="_x31_5101001"
   patternUnits="userSpaceOnUse"
   height="72"
   width="72">
	<g
   id="g334">
		<rect
   id="rect4"
   height="72"
   width="72"
   class="st0"
   y="-74.5"
   x="5.2" />
		<g
   id="g8">
			<path
   id="path6"
   d="M36.1-2.8c-1.7-1.2-5.3-0.5-4.3,0.8c0.9,1.3,5.2,2.6,6.5,1.4C39.4-1.9,36.9-2.2,36.1-2.8z"
   class="st1" />
		</g>
		<g
   id="g18">
			<path
   id="path10"
   d="M81.6-12.4c-1.9-0.8-5.2,0.7-4,1.8c1.2,1.1,5.7,1.4,6.6-0.1C85.1-12.3,82.5-12,81.6-12.4z"
   class="st1" />
			<path
   id="path12"
   d="M80.7-56.3c-2.1,0-4.5,2.8-3,3.3s5.8-1,6-2.8S81.7-56.3,80.7-56.3z"
   class="st1" />
			<path
   id="path14"
   d="M79.9-27.5c-1.7-1.2-5.3-0.5-4.3,0.8c0.9,1.3,5.2,2.6,6.5,1.4C83.2-26.5,80.7-26.9,79.9-27.5z"
   class="st1" />
			<path
   id="path16"
   d="M79.7-71c-1.9,3.3-4.8,1.3-4-0.5S80.7-72.8,79.7-71z"
   class="st1" />
		</g>
		<g
   id="g322">
			<path
   id="path20"
   d="M29.7-65.3c2.4-1.3,6.5-1.7,7.7-0.7c1.1,0.9,1.7,2.9-2.8,3.2C30.1-62.4,27.2-63.9,29.7-65.3z"
   class="st1" />
			<path
   id="path22"
   d="M35.9-59c-1.6-1.3-5.2-0.6-4.4,0.7c0.9,1.3,5.1,2.8,6.4,1.6C39.2-57.9,36.6-58.3,35.9-59z"
   class="st1" />
			<path
   id="path24"
   d="M57.3-59.1c-1.6-1.3-5.2-0.8-4.4,0.6c0.8,1.3,5.1,2.9,6.4,1.7C60.6-58,58-58.4,57.3-59.1z"
   class="st1" />
			<path
   id="path26"
   d="M59.1-34.3c-1.7-1.1-5.3-0.1-4.3,1.2c1,1.2,5.4,2.2,6.5,0.9C62.5-33.7,60-33.8,59.1-34.3z"
   class="st1" />
			<path
   id="path28"
   d="M9.6-12.4c-1.9-0.8-5.2,0.7-4,1.8c1.2,1.1,5.7,1.4,6.6-0.1C13.1-12.3,10.5-12,9.6-12.4z"
   class="st1" />
			<path
   id="path30"
   d="M52-10.3c1.9-0.8,3-4.3,1.4-4.2c-1.6,0.1-4.9,3.2-4.4,4.9C49.6-7.9,51.1-9.9,52-10.3z"
   class="st1" />
			<path
   id="path32"
   d="M66.7-15.3c-2.1,0-4.5,2.8-3,3.3c1.5,0.5,5.8-1,6-2.8S67.7-15.3,66.7-15.3z"
   class="st1" />
			<path
   id="path34"
   d="M58.5-69.3c-2.1,0-4.5,2.8-3,3.3s5.8-1,6-2.8S59.5-69.3,58.5-69.3z"
   class="st1" />
			<path
   id="path36"
   d="M62.8-43c-1.3-1.6-4.9-1.9-4.4-0.4c0.5,1.5,4.3,3.9,5.9,3C65.8-41.2,63.4-42.2,62.8-43z"
   class="st1" />
			<path
   id="path38"
   d="M42.2-51.8c-2.1,0-4.5,2.8-3,3.3s5.8-1,6-2.8S43.2-51.8,42.2-51.8z"
   class="st1" />
			<path
   id="path40"
   d="M25.2-18.8c-2.3,1.3-6.2,1.8-7.3,0.9c-1.1-0.9-1.7-2.7,2.6-3.1C24.8-21.4,27.5-20.1,25.2-18.8z"
   class="st1" />
			<path
   id="path42"
   d="M40.7-33c1.9-3.3,4.8-1.3,4,0.5S39.7-31.3,40.7-33z"
   class="st1" />
			<path
   id="path44"
   d="M26.7-27.8c1.9-3.3,4.8-1.3,4,0.5S25.7-26,26.7-27.8z"
   class="st1" />
			<path
   id="path46"
   d="M29-46.5c1.9-3.3,2.8-0.8,2,1S28-44.8,29-46.5z"
   class="st1" />
			<path
   id="path48"
   d="M20.7-69.3c1.9-3.3,4.8-1.3,4,0.5S19.7-67.5,20.7-69.3z"
   class="st1" />
			<path
   id="path50"
   d="M61.4-24c1.5-2.2,5-4.5,6.5-4.2c1.4,0.3,2.8,1.8-1,4.1C63.1-21.7,59.8-21.7,61.4-24z"
   class="st1" />
			<path
   id="path52"
   d="M27.4-13.5c-1.9-0.7-5.2,1-3.9,2c0.4,0.4,5.7,1,6.6-0.5C30.8-13.6,28.3-13.2,27.4-13.5z"
   class="st1" />
			<path
   id="path54"
   d="M48.7-70.5c1.9-3.3,4.8-1.3,4,0.5S47.7-68.8,48.7-70.5z"
   class="st1" />
			<path
   id="path56"
   d="M20.2-33.8c1.9-3.3,4.8-1.3,4,0.5S19.2-32,20.2-33.8z"
   class="st1" />
			<path
   id="path58"
   d="M41.2-21c-2.1,0-4.5,2.8-3,3.3s5.8-1,6-2.8S42.2-21,41.2-21z"
   class="st1" />
			<path
   id="path60"
   d="M19.6-50.1c-1.7-1.2-5.2-0.5-4.3,0.8c0.9,1.3,5.2,2.6,6.5,1.4C22.9-49.2,20.4-49.5,19.6-50.1z"
   class="st1" />
			<path
   id="path62"
   d="M12-63.3c1.9-3.3,4.8-1.2,4,0.5C15.2-61,11-61.5,12-63.3z"
   class="st1" />
			<path
   id="path64"
   d="M73.3-61.1c-2.7,0.7-6.8,0-7.7-1.2c-0.9-1.2-0.9-3.2,3.5-2.4C73.6-63.9,76-61.8,73.3-61.1z"
   class="st1" />
			<path
   id="path66"
   d="M22.7-55c1.9-3.3,4.8-1.3,4,0.5S21.7-53.3,22.7-55z"
   class="st1" />
			<path
   id="path68"
   d="M8.7-56.3c-2.1,0-4.5,2.8-3,3.3s5.8-1,6-2.8S9.7-56.3,8.7-56.3z"
   class="st1" />
			<path
   id="path70"
   d="M71.2-49.8c1.9-3.3,4.8-1.3,4,0.5S70.2-48,71.2-49.8z"
   class="st1" />
			<path
   id="path72"
   d="M61.2-53.3c-2.1,0-4.5,2.8-3,3.3s5.8-1,6-2.8C64.5-54.5,62.2-53.3,61.2-53.3z"
   class="st1" />
			<path
   id="path74"
   d="M76.6-41.5c-1.7-1.2-5.3-0.5-4.3,0.8c0.9,1.3,5.2,2.6,6.5,1.4C80-40.5,77.4-40.9,76.6-41.5z"
   class="st1" />
			<path
   id="path76"
   d="M65-69.5c1.9-3.3,2.8-0.8,2,1S64-67.8,65-69.5z"
   class="st1" />
			<path
   id="path78"
   d="M71.7-20c1.9-3.3,4.8-1.3,4,0.5S70.7-18.3,71.7-20z"
   class="st1" />
			<path
   id="path80"
   d="M14.7-4.8c-2.1,0-4.5,2.8-3,3.3s5.8-1,6-2.8S15.7-4.8,14.7-4.8z"
   class="st1" />
			<path
   id="path82"
   d="M15.2-40c-2.1,0-4.5,2.8-3,3.3s5.8-1,6-2.8S16.2-40,15.2-40z"
   class="st1" />
			<path
   id="path84"
   d="M36.1-74.8c-1.7-1.2-5.3-0.5-4.3,0.8c0.9,1.3,5.2,2.6,6.5,1.4C39.4-73.9,36.9-74.2,36.1-74.8z"
   class="st1" />
			<path
   id="path86"
   d="M46.5-5c-2.1,0-4.5,2.8-3,3.3s5.8-1,6-2.8S47.5-5,46.5-5z"
   class="st1" />
			<path
   id="path88"
   d="M33.1-31.6c0.9,1.8,4.5,2.7,4.3,1.2c-0.2-1.6-3.5-4.6-5.2-4.1C30.5-34,32.7-32.5,33.1-31.6z"
   class="st1" />
			<path
   id="path90"
   d="M50-39.8c-3.7,0.8-2.4-1.6-0.6-2.2C51.2-42.5,52-40.2,50-39.8z"
   class="st1" />
			<path
   id="path92"
   d="M35.4-41.7c1.8-1.8,5.5-3.3,6.8-2.8c1.3,0.5,2.3,2.2-1.7,3.7C36.6-39.3,33.6-39.8,35.4-41.7z"
   class="st1" />
			<path
   id="path94"
   d="M40.2-13.5c-1.9-3.3-4.8-1.3-4,0.5C37-11.3,41.2-11.8,40.2-13.5z"
   class="st1" />
			<path
   id="path96"
   d="M51.2-23.4c0.4,2,3.6,3.8,3.8,2.3c0.2-1.6-2.2-5.4-3.9-5.3C49.3-26.3,51-24.4,51.2-23.4z"
   class="st1" />
			<path
   id="path98"
   d="M45.7-63c-3.7,0.8-2.4-1.6-0.6-2.2C47-65.8,47.7-63.4,45.7-63z"
   class="st1" />
			<path
   id="path100"
   d="M7.9-27.5c-1.7-1.2-5.3-0.5-4.3,0.8c0.9,1.3,5.2,2.6,6.5,1.4C11.2-26.5,8.7-26.9,7.9-27.5z"
   class="st1" />
			<path
   id="path102"
   d="M7.7-71c-1.9,3.3-4.8,1.3-4-0.5S8.7-72.8,7.7-71z"
   class="st1" />
			<path
   id="path104"
   d="M66.3-6.1c-0.8-1.4-4.8-1.8-4.6-0.6c0.2,1.2,2.9,3.6,4.2,3.1C67.3-4.1,66.7-5.4,66.3-6.1z"
   class="st1" />
			<path
   id="path106"
   d="M15.8-67.4c-0.1,0-0.1,0-0.2-0.1c-0.1-0.1-0.1-0.1-0.1-0.2c0-0.1,0-0.1,0.1-0.2c0.1-0.1,0.3-0.1,0.3,0     c0,0.1,0.1,0.1,0.1,0.2c0,0.1,0,0.1-0.1,0.2C16-67.4,15.9-67.4,15.8-67.4z"
   class="st2" />
			<path
   id="path108"
   d="M19.3-67.1c-0.1,0-0.1,0-0.2-0.1c-0.1-0.1-0.1-0.1-0.1-0.2c0-0.1,0-0.1,0.1-0.2c0.1-0.1,0.3-0.1,0.3,0     c0,0.1,0.1,0.1,0.1,0.2c0,0.1,0,0.1-0.1,0.2C19.5-67.2,19.4-67.1,19.3-67.1z"
   class="st2" />
			<path
   id="path110"
   d="M23.3-61.4c-0.1,0-0.1,0-0.2-0.1c-0.1-0.1-0.1-0.1-0.1-0.2c0-0.1,0-0.1,0.1-0.2c0.1-0.1,0.3-0.1,0.3,0     c0,0.1,0.1,0.1,0.1,0.2c0,0.1,0,0.1-0.1,0.2C23.5-61.4,23.4-61.4,23.3-61.4z"
   class="st2" />
			<path
   id="path112"
   d="M11.2-53.8c-0.1,0-0.1,0-0.2-0.1C11-53.9,11-54,11-54s0-0.1,0.1-0.2c0.1-0.1,0.3-0.1,0.4,0     c0.1,0,0.1,0.1,0.1,0.2c0,0.1,0,0.1-0.1,0.2C11.4-53.8,11.3-53.8,11.2-53.8z"
   class="st2" />
			<path
   id="path114"
   d="M18.1-58.9c-0.1,0-0.1,0-0.2-0.1c-0.1-0.1-0.1-0.1-0.1-0.2c0-0.1,0-0.1,0.1-0.2c0.1-0.1,0.3-0.1,0.3,0     c0,0,0.1,0.1,0.1,0.2c0,0.1,0,0.1-0.1,0.2C18.2-58.9,18.2-58.9,18.1-58.9z"
   class="st2" />
			<path
   id="path116"
   d="M28.8-55.6c-0.1,0-0.1,0-0.2-0.1c-0.1-0.1-0.1-0.1-0.1-0.2c0-0.1,0-0.1,0.1-0.2c0.1-0.1,0.3-0.1,0.3,0     c0,0.1,0.1,0.1,0.1,0.2c0,0.1,0,0.1-0.1,0.2C29-55.7,28.9-55.6,28.8-55.6z"
   class="st2" />
			<path
   id="path118"
   d="M24.1-48.4c-0.1,0-0.1,0-0.2-0.1c-0.1-0.1-0.1-0.1-0.1-0.2c0-0.1,0-0.1,0.1-0.2c0.1-0.1,0.3-0.1,0.3,0     c0,0.1,0.1,0.1,0.1,0.2c0,0.1,0,0.1-0.1,0.2C24.2-48.4,24.1-48.4,24.1-48.4z"
   class="st2" />
			<path
   id="path120"
   d="M17.8-45.1c-0.1,0-0.1,0-0.2-0.1c0-0.1-0.1-0.1-0.1-0.2c0-0.1,0-0.1,0.1-0.2c0.1-0.1,0.3-0.1,0.3,0     c0,0.1,0.1,0.1,0.1,0.2c0,0.1,0,0.1-0.1,0.2C18-45.2,17.9-45.1,17.8-45.1z"
   class="st2" />
			<path
   id="path122"
   d="M46.7-54c-0.1,0-0.1,0-0.2-0.1c-0.1-0.1-0.1-0.1-0.1-0.2c0-0.1,0-0.1,0.1-0.2c0.1-0.1,0.3-0.1,0.4,0     c0,0,0.1,0.1,0.1,0.2s0,0.1-0.1,0.2C46.9-54.1,46.8-54,46.7-54z"
   class="st2" />
			<path
   id="path124"
   d="M29.8-66.1c-0.1,0-0.1,0-0.2-0.1c0,0-0.1-0.1-0.1-0.2c0-0.1,0-0.1,0.1-0.2c0.1-0.1,0.3-0.1,0.3,0     c0,0.1,0.1,0.1,0.1,0.2c0,0.1,0,0.1-0.1,0.2C30-66.2,29.9-66.1,29.8-66.1z"
   class="st2" />
			<path
   id="path126"
   d="M44.6-69.4c-0.1,0-0.1,0-0.2-0.1c0,0-0.1-0.1-0.1-0.2c0-0.1,0-0.1,0.1-0.2c0.1-0.1,0.3-0.1,0.3,0     c0,0.1,0.1,0.1,0.1,0.2c0,0.1,0,0.1-0.1,0.2C44.7-69.4,44.6-69.4,44.6-69.4z"
   class="st2" />
			<path
   id="path128"
   d="M50.3-61.4c-0.1,0-0.1,0-0.2-0.1c-0.1-0.1-0.1-0.1-0.1-0.2c0-0.1,0-0.1,0.1-0.2c0.1-0.1,0.3-0.1,0.3,0     c0,0.1,0.1,0.1,0.1,0.2c0,0.1,0,0.1-0.1,0.2C50.5-61.4,50.4-61.4,50.3-61.4z"
   class="st2" />
			<path
   id="path130"
   d="M55.8-64.1c-0.1,0-0.1,0-0.2-0.1c0,0-0.1-0.1-0.1-0.2c0-0.1,0-0.1,0.1-0.2c0.1-0.1,0.3-0.1,0.3,0     c0,0.1,0.1,0.1,0.1,0.2c0,0.1,0,0.1-0.1,0.2C56-64.2,55.9-64.1,55.8-64.1z"
   class="st2" />
			<path
   id="path132"
   d="M61.1-59.4c-0.1,0-0.1,0-0.2-0.1c-0.1-0.1-0.1-0.1-0.1-0.2c0-0.1,0-0.1,0.1-0.2c0.1-0.1,0.3-0.1,0.3,0     c0,0.1,0.1,0.1,0.1,0.2c0,0.1,0,0.1-0.1,0.2C61.2-59.4,61.1-59.4,61.1-59.4z"
   class="st2" />
			<path
   id="path134"
   d="M65.2-57.5c-0.1,0-0.1,0-0.2-0.1c0,0-0.1-0.1-0.1-0.2s0-0.1,0.1-0.2c0.1-0.1,0.3-0.1,0.4,0     c0.1,0,0.1,0.1,0.1,0.2c0,0.1,0,0.1-0.1,0.2C65.4-57.6,65.3-57.5,65.2-57.5z"
   class="st2" />
			<path
   id="path136"
   d="M62.3-72.1c-0.1,0-0.1,0-0.2-0.1c0,0-0.1-0.1-0.1-0.2c0-0.1,0-0.1,0.1-0.2c0.1-0.1,0.3-0.1,0.3,0     c0,0.1,0.1,0.1,0.1,0.2c0,0.1,0,0.1-0.1,0.2C62.5-72.2,62.4-72.1,62.3-72.1z"
   class="st2" />
			<path
   id="path138"
   d="M55.8-71.9c-0.1,0-0.1,0-0.2-0.1c-0.1-0.1-0.1-0.1-0.1-0.2c0-0.1,0-0.1,0.1-0.2c0.1-0.1,0.3-0.1,0.3,0     c0,0.1,0.1,0.1,0.1,0.2c0,0.1,0,0.1-0.1,0.2C56-71.9,55.9-71.9,55.8-71.9z"
   class="st2" />
			<path
   id="path140"
   d="M57.8-70.1c-0.1,0-0.1,0-0.2-0.1c0-0.1-0.1-0.1-0.1-0.2c0-0.1,0-0.1,0.1-0.2c0.1-0.1,0.3-0.1,0.3,0     c0,0.1,0.1,0.1,0.1,0.2c0,0.1,0,0.1-0.1,0.2C58-70.2,57.9-70.1,57.8-70.1z"
   class="st2" />
			<path
   id="path142"
   d="M71.3-58.9c-0.1,0-0.1,0-0.2-0.1c-0.1-0.1-0.1-0.1-0.1-0.2c0-0.1,0-0.1,0.1-0.2c0.1-0.1,0.3-0.1,0.3,0     c0.1,0.1,0.1,0.1,0.1,0.2c0,0.1,0,0.1-0.1,0.2C71.5-58.9,71.4-58.9,71.3-58.9z"
   class="st2" />
			<path
   id="path144"
   d="M71.6-68.1c-0.1,0-0.1,0-0.2-0.1c0-0.1-0.1-0.1-0.1-0.2c0-0.1,0-0.1,0.1-0.2c0.1-0.1,0.3-0.1,0.4,0     c0,0.1,0.1,0.1,0.1,0.2c0,0.1,0,0.1-0.1,0.2C71.7-68.2,71.6-68.1,71.6-68.1z"
   class="st2" />
			<path
   id="path146"
   d="M28.8-73.6c-0.1,0-0.1,0-0.2-0.1c0,0-0.1-0.1-0.1-0.2c0-0.1,0-0.1,0.1-0.2c0.1-0.1,0.3-0.1,0.3,0     c0,0.1,0.1,0.1,0.1,0.2c0,0.1,0,0.1-0.1,0.2C29-73.7,28.9-73.6,28.8-73.6z"
   class="st2" />
			<path
   id="path148"
   d="M15.1-71.1c-0.1,0-0.1,0-0.2-0.1c-0.1-0.1-0.1-0.1-0.1-0.2c0-0.1,0-0.1,0.1-0.2c0.1-0.1,0.3-0.1,0.3,0     c0,0.1,0.1,0.1,0.1,0.2c0,0.1,0,0.1-0.1,0.2C15.2-71.2,15.1-71.1,15.1-71.1z"
   class="st2" />
			<path
   id="path150"
   d="M8.3-72.4c-0.1,0-0.1,0-0.2-0.1c0-0.1-0.1-0.1-0.1-0.2c0-0.1,0-0.1,0.1-0.2c0.1-0.1,0.3-0.1,0.4,0     c0,0,0.1,0.1,0.1,0.2c0,0.1,0,0.1-0.1,0.2C8.5-72.4,8.4-72.4,8.3-72.4z"
   class="st2" />
			<path
   id="path152"
   d="M66.7-39c-0.1,0-0.1,0-0.2-0.1c0-0.1-0.1-0.1-0.1-0.2s0-0.1,0.1-0.2c0.1-0.1,0.3-0.1,0.4,0     c0,0,0.1,0.1,0.1,0.2c0,0.1,0,0.1-0.1,0.2C66.9-39.1,66.8-39,66.7-39z"
   class="st2" />
			<path
   id="path154"
   d="M63.8-50.1c-0.1,0-0.1,0-0.2-0.1c0-0.1-0.1-0.1-0.1-0.2c0-0.1,0-0.1,0.1-0.2c0.1-0.1,0.3-0.1,0.4,0     c0,0,0.1,0.1,0.1,0.2c0,0.1,0,0.1-0.1,0.2C64-50.2,63.9-50.1,63.8-50.1z"
   class="st2" />
			<path
   id="path156"
   d="M46.3-59.1c-0.1,0-0.1,0-0.2-0.1c0,0-0.1-0.1-0.1-0.2c0-0.1,0-0.1,0.1-0.2c0.1-0.1,0.2-0.1,0.3,0     c0,0.1,0.1,0.1,0.1,0.2c0,0.1,0,0.1-0.1,0.2C46.5-59.2,46.4-59.1,46.3-59.1z"
   class="st2" />
			<path
   id="path158"
   d="M50.1-50.4c-0.1,0-0.1,0-0.2-0.1c0,0-0.1-0.1-0.1-0.2c0-0.1,0-0.1,0.1-0.2c0.1-0.1,0.3-0.1,0.3,0     c0,0,0.1,0.1,0.1,0.2c0,0.1,0,0.1-0.1,0.2C50.2-50.4,50.1-50.4,50.1-50.4z"
   class="st2" />
			<path
   id="path160"
   d="M37.8-45.6c-0.1,0-0.1,0-0.2-0.1c-0.1-0.1-0.1-0.1-0.1-0.2c0-0.1,0-0.1,0.1-0.2c0.1-0.1,0.3-0.1,0.3,0     c0,0.1,0.1,0.1,0.1,0.2c0,0.1,0,0.1-0.1,0.2C38-45.7,37.9-45.6,37.8-45.6z"
   class="st2" />
			<path
   id="path162"
   d="M54.6-44.6c-0.1,0-0.1,0-0.2-0.1c0,0-0.1-0.1-0.1-0.2c0-0.1,0-0.1,0.1-0.2c0.1-0.1,0.3-0.1,0.3,0     c0,0,0.1,0.1,0.1,0.2c0,0.1,0,0.1-0.1,0.2C54.7-44.7,54.6-44.6,54.6-44.6z"
   class="st2" />
			<path
   id="path164"
   d="M61.1-36.1c-0.1,0-0.1,0-0.2-0.1c0,0-0.1-0.1-0.1-0.2c0-0.1,0-0.1,0.1-0.2c0.1-0.1,0.3-0.1,0.3,0     c0,0.1,0.1,0.1,0.1,0.2c0,0.1,0,0.1-0.1,0.2C61.2-36.2,61.1-36.1,61.1-36.1z"
   class="st2" />
			<path
   id="path166"
   d="M48.8-32.9c-0.1,0-0.1,0-0.2-0.1c-0.1-0.1-0.1-0.1-0.1-0.2c0-0.1,0-0.1,0.1-0.2c0.1-0.1,0.3-0.1,0.3,0     c0,0.1,0.1,0.1,0.1,0.2c0,0.1,0,0.1-0.1,0.2C49-32.9,48.9-32.9,48.8-32.9z"
   class="st2" />
			<path
   id="path168"
   d="M32.2-21c-0.1,0-0.1,0-0.2-0.1C32-21.2,32-21.2,32-21.3c0-0.1,0-0.1,0.1-0.2c0.1-0.1,0.3-0.1,0.4,0     c0,0,0.1,0.1,0.1,0.2c0,0.1,0,0.1-0.1,0.2C32.4-21.1,32.3-21,32.2-21z"
   class="st2" />
			<path
   id="path170"
   d="M33.3-39.4c-0.1,0-0.1,0-0.2-0.1c-0.1-0.1-0.1-0.1-0.1-0.2c0-0.1,0-0.1,0.1-0.2c0.1-0.1,0.3-0.1,0.3,0     c0,0.1,0.1,0.1,0.1,0.2c0,0.1,0,0.1-0.1,0.2C33.5-39.4,33.4-39.4,33.3-39.4z"
   class="st2" />
			<path
   id="path172"
   d="M27.7-41c-0.1,0-0.1,0-0.2-0.1c-0.1-0.1-0.1-0.1-0.1-0.2c0-0.1,0-0.1,0.1-0.2c0.1-0.1,0.3-0.1,0.4,0     c0,0,0.1,0.1,0.1,0.2s0,0.1-0.1,0.2C27.9-41.1,27.8-41,27.7-41z"
   class="st2" />
			<path
   id="path174"
   d="M32.3-50.9c-0.1,0-0.1,0-0.2-0.1c-0.1-0.1-0.1-0.1-0.1-0.2c0-0.1,0-0.1,0.1-0.2c0.1-0.1,0.3-0.1,0.3,0     c0,0.1,0.1,0.1,0.1,0.2c0,0.1,0,0.1-0.1,0.2C32.5-50.9,32.4-50.9,32.3-50.9z"
   class="st2" />
			<path
   id="path176"
   d="M17.6-51.6c-0.1,0-0.1,0-0.2-0.1c0-0.1-0.1-0.1-0.1-0.2c0-0.1,0-0.1,0.1-0.2c0.1-0.1,0.3-0.1,0.3,0     c0,0.1,0.1,0.1,0.1,0.2c0,0.1,0,0.1-0.1,0.2C17.7-51.7,17.6-51.6,17.6-51.6z"
   class="st2" />
			<path
   id="path178"
   d="M13.1-60.1c-0.1,0-0.1,0-0.2-0.1c-0.1-0.1-0.1-0.1-0.1-0.2c0-0.1,0-0.1,0.1-0.2c0.1-0.1,0.3-0.1,0.3,0     c0,0.1,0.1,0.1,0.1,0.2c0,0.1,0,0.1-0.1,0.2C13.2-60.2,13.1-60.1,13.1-60.1z"
   class="st2" />
			<path
   id="path180"
   d="M65.7-32.3c-0.1,0-0.1,0-0.2-0.1c0-0.1-0.1-0.1-0.1-0.2s0-0.1,0.1-0.2c0.1-0.1,0.3-0.1,0.4,0     c0,0,0.1,0.1,0.1,0.2c0,0.1,0,0.1-0.1,0.2C65.9-32.3,65.8-32.3,65.7-32.3z"
   class="st2" />
			<path
   id="path182"
   d="M70.8-45.9c-0.1,0-0.1,0-0.2-0.1c0,0-0.1-0.1-0.1-0.2c0-0.1,0-0.1,0.1-0.2c0.1-0.1,0.3-0.1,0.4,0     c0,0,0.1,0.1,0.1,0.2c0,0.1,0,0.1-0.1,0.2C71-45.9,70.9-45.9,70.8-45.9z"
   class="st2" />
			<path
   id="path184"
   d="M64.6-46.1c-0.1,0-0.1,0-0.2-0.1c0-0.1-0.1-0.1-0.1-0.2c0-0.1,0-0.1,0.1-0.2c0.1-0.1,0.3-0.1,0.4,0     c0,0,0.1,0.1,0.1,0.2c0,0.1,0,0.1-0.1,0.2C64.7-46.2,64.6-46.1,64.6-46.1z"
   class="st2" />
			<path
   id="path186"
   d="M71.6-54.9c-0.1,0-0.1,0-0.2-0.1c-0.1-0.1-0.1-0.1-0.1-0.2c0-0.1,0-0.1,0.1-0.2c0.1-0.1,0.3-0.1,0.4,0     c0,0,0.1,0.1,0.1,0.2c0,0.1,0,0.1-0.1,0.2C71.7-54.9,71.6-54.9,71.6-54.9z"
   class="st2" />
			<path
   id="path188"
   d="M67.8-54.1c-0.1,0-0.1,0-0.2-0.1c-0.1-0.1-0.1-0.1-0.1-0.2c0-0.1,0-0.1,0.1-0.2c0.1-0.1,0.3-0.1,0.3,0     c0,0.1,0.1,0.1,0.1,0.2c0,0.1,0,0.1-0.1,0.2C68-54.2,67.9-54.1,67.8-54.1z"
   class="st2" />
			<path
   id="path190"
   d="M73.8-73.6c-0.1,0-0.1,0-0.2-0.1c-0.1-0.1-0.1-0.1-0.1-0.2c0-0.1,0-0.1,0.1-0.2c0.1-0.1,0.3-0.1,0.3,0     c0,0.1,0.1,0.1,0.1,0.2c0,0.1,0,0.1-0.1,0.2C74-73.7,73.9-73.6,73.8-73.6z"
   class="st2" />
			<path
   id="path192"
   d="M39.3-72.6c-0.1,0-0.1,0-0.2-0.1c-0.1-0.1-0.1-0.1-0.1-0.2c0-0.1,0-0.1,0.1-0.2c0.1-0.1,0.3-0.1,0.3,0     c0,0.1,0.1,0.1,0.1,0.2c0,0.1,0,0.1-0.1,0.2C39.5-72.7,39.4-72.6,39.3-72.6z"
   class="st2" />
			<path
   id="path194"
   d="M53.1-52.9c-0.1,0-0.1,0-0.2-0.1c0,0-0.1-0.1-0.1-0.2c0-0.1,0-0.1,0.1-0.2c0.1-0.1,0.2-0.1,0.3,0     c0,0.1,0.1,0.1,0.1,0.2c0,0.1,0,0.1-0.1,0.2C53.2-52.9,53.1-52.9,53.1-52.9z"
   class="st2" />
			<path
   id="path196"
   d="M10.8-31.9c-0.1,0-0.1,0-0.2-0.1c-0.1-0.1-0.1-0.1-0.1-0.2c0-0.1,0-0.1,0.1-0.2c0.1-0.1,0.3-0.1,0.3,0     c0,0.1,0.1,0.1,0.1,0.2c0,0.1,0,0.1-0.1,0.2C11-31.9,10.9-31.9,10.8-31.9z"
   class="st2" />
			<path
   id="path198"
   d="M70.3-29.9c-0.1,0-0.1,0-0.2-0.1c-0.1-0.1-0.1-0.1-0.1-0.2c0-0.1,0-0.1,0.1-0.2c0.1-0.1,0.3-0.1,0.3,0     c0,0.1,0.1,0.1,0.1,0.2c0,0.1,0,0.1-0.1,0.2C70.5-29.9,70.4-29.9,70.3-29.9z"
   class="st2" />
			<path
   id="path200"
   d="M72.1-38.1c-0.1,0-0.1,0-0.2-0.1c-0.1-0.1-0.1-0.1-0.1-0.2c0-0.1,0-0.1,0.1-0.2c0.1-0.1,0.3-0.1,0.4,0     c0,0.1,0.1,0.1,0.1,0.2c0,0.1,0,0.1-0.1,0.2C72.2-38.2,72.1-38.1,72.1-38.1z"
   class="st2" />
			<path
   id="path202"
   d="M46.8-38.9c-0.1,0-0.1,0-0.2-0.1c0,0-0.1-0.1-0.1-0.2c0-0.1,0-0.1,0.1-0.2c0.1-0.1,0.2-0.1,0.3,0     c0,0.1,0.1,0.1,0.1,0.2c0,0.1,0,0.1-0.1,0.2C47-38.9,46.9-38.9,46.8-38.9z"
   class="st2" />
			<path
   id="path204"
   d="M47.5-46.5c-0.1,0-0.1,0-0.2-0.1c0-0.1-0.1-0.1-0.1-0.2s0-0.1,0.1-0.2c0.1-0.1,0.3-0.1,0.3,0     c0,0,0.1,0.1,0.1,0.2c0,0.1,0,0.1-0.1,0.2C47.6-46.6,47.6-46.5,47.5-46.5z"
   class="st2" />
			<path
   id="path206"
   d="M27.2-22c-0.1,0-0.1,0-0.2-0.1C27-22.2,27-22.2,27-22.3c0-0.1,0-0.1,0.1-0.2c0.1-0.1,0.3-0.1,0.4,0     c0.1,0.1,0.1,0.1,0.1,0.2c0,0.1,0,0.1-0.1,0.2C27.4-22.1,27.3-22,27.2-22z"
   class="st2" />
			<path
   id="path208"
   d="M24.6-43.1c-0.1,0-0.1,0-0.2-0.1c-0.1,0-0.1-0.1-0.1-0.2c0-0.1,0-0.1,0.1-0.2c0.1-0.1,0.3-0.1,0.3,0     c0.1,0.1,0.1,0.1,0.1,0.2c0,0.1,0,0.1-0.1,0.2C24.7-43.1,24.7-43.1,24.6-43.1z"
   class="st2" />
			<path
   id="path210"
   d="M47.3-42.9c-0.1,0-0.1,0-0.2-0.1c-0.1,0-0.1-0.1-0.1-0.2c0-0.1,0-0.1,0.1-0.2c0.1-0.1,0.2-0.1,0.3,0     c0,0,0.1,0.1,0.1,0.2c0,0.1,0,0.1-0.1,0.2C47.5-42.9,47.4-42.9,47.3-42.9z"
   class="st2" />
			<path
   id="path212"
   d="M72.5-15.5c-0.1,0-0.1,0-0.2-0.1c0-0.1-0.1-0.1-0.1-0.2c0-0.1,0-0.1,0.1-0.2c0.1-0.1,0.3-0.1,0.4,0     c0,0,0.1,0.1,0.1,0.2c0,0.1,0,0.1-0.1,0.2C72.6-15.6,72.6-15.5,72.5-15.5z"
   class="st2" />
			<path
   id="path214"
   d="M54.7-50.8c-0.1,0-0.1,0-0.2-0.1c0,0-0.1-0.1-0.1-0.2c0-0.1,0-0.1,0.1-0.2c0.1-0.1,0.3-0.1,0.4,0     c0,0,0.1,0.1,0.1,0.2c0,0.1,0,0.1-0.1,0.2C54.9-50.8,54.8-50.8,54.7-50.8z"
   class="st2" />
			<path
   id="path216"
   d="M47.7-26.3c-0.1,0-0.1,0-0.2-0.1c0-0.1-0.1-0.1-0.1-0.2c0-0.1,0-0.1,0.1-0.2c0.1-0.1,0.3-0.1,0.4,0     c0,0,0.1,0.1,0.1,0.2c0,0.1,0,0.1-0.1,0.2C47.9-26.3,47.8-26.3,47.7-26.3z"
   class="st2" />
			<path
   id="path218"
   d="M32.6-42.6c-0.1,0-0.1,0-0.2-0.1c0,0-0.1-0.1-0.1-0.2c0-0.1,0-0.1,0.1-0.2c0.1-0.1,0.3-0.1,0.3,0     c0,0,0.1,0.1,0.1,0.2c0,0.1,0,0.1-0.1,0.2C32.7-42.6,32.7-42.6,32.6-42.6z"
   class="st2" />
			<path
   id="path220"
   d="M16-26.3c-0.1,0-0.1,0-0.2-0.1c0-0.1-0.1-0.1-0.1-0.2c0-0.1,0-0.1,0.1-0.2c0.1-0.1,0.3-0.1,0.4,0     c0,0,0.1,0.1,0.1,0.2c0,0.1,0,0.1-0.1,0.2C16.1-26.3,16.1-26.3,16-26.3z"
   class="st2" />
			<path
   id="path222"
   d="M28.1-33.9c-0.1,0-0.1,0-0.2-0.1c-0.1,0-0.1-0.1-0.1-0.2c0-0.1,0-0.1,0.1-0.2c0.1-0.1,0.3-0.1,0.3,0     c0,0,0.1,0.1,0.1,0.2c0,0.1,0,0.1-0.1,0.2C28.2-33.9,28.2-33.9,28.1-33.9z"
   class="st2" />
			<path
   id="path224"
   d="M22.6-38.1c-0.1,0-0.1,0-0.2-0.1c-0.1,0-0.1-0.1-0.1-0.2c0-0.1,0-0.1,0.1-0.2c0.1-0.1,0.3-0.1,0.3,0     c0,0,0.1,0.1,0.1,0.2c0,0.1,0,0.1-0.1,0.2C22.7-38.1,22.7-38.1,22.6-38.1z"
   class="st2" />
			<path
   id="path226"
   d="M22.1-30.1c-0.1,0-0.1,0-0.2-0.1c-0.1,0-0.1-0.1-0.1-0.2c0-0.1,0-0.1,0.1-0.2c0.1-0.1,0.3-0.1,0.3,0     c0,0,0.1,0.1,0.1,0.2c0,0.1,0,0.1-0.1,0.2C22.2-30.1,22.2-30.1,22.1-30.1z"
   class="st2" />
			<path
   id="path228"
   d="M40.8-28.1c-0.1,0-0.1,0-0.2-0.1c0,0-0.1-0.1-0.1-0.2c0-0.1,0-0.1,0.1-0.2c0.1-0.1,0.3-0.1,0.3,0     c0,0,0.1,0.1,0.1,0.2c0,0.1,0,0.1-0.1,0.2C41-28.1,40.9-28.1,40.8-28.1z"
   class="st2" />
			<path
   id="path230"
   d="M47.3-19.6c-0.1,0-0.1,0-0.2-0.1c0,0-0.1-0.1-0.1-0.2c0-0.1,0-0.1,0.1-0.2c0.1-0.1,0.3-0.1,0.3,0     c0,0.1,0.1,0.1,0.1,0.2c0,0.1,0,0.1-0.1,0.2C47.5-19.6,47.4-19.6,47.3-19.6z"
   class="st2" />
			<path
   id="path232"
   d="M35.1-16.4c-0.1,0-0.1,0-0.2-0.1c-0.1-0.1-0.1-0.1-0.1-0.2c0-0.1,0-0.1,0.1-0.2c0.1-0.1,0.3-0.1,0.3,0     c0,0,0.1,0.1,0.1,0.2c0,0.1,0,0.1-0.1,0.2C35.2-16.4,35.2-16.4,35.1-16.4z"
   class="st2" />
			<path
   id="path234"
   d="M13.7-20.5c-0.1,0-0.1,0-0.2-0.1c-0.1-0.1-0.1-0.1-0.1-0.2c0-0.1,0-0.1,0.1-0.2c0.1-0.1,0.3-0.1,0.4,0     c0,0,0.1,0.1,0.1,0.2c0,0.1,0,0.1-0.1,0.2C13.9-20.6,13.8-20.5,13.7-20.5z"
   class="st2" />
			<path
   id="path236"
   d="M23.3-15.9c-0.1,0-0.1,0-0.2-0.1c0,0-0.1-0.1-0.1-0.2c0-0.1,0-0.1,0.1-0.2c0.1-0.1,0.3-0.1,0.3,0     c0,0,0.1,0.1,0.1,0.2c0,0.1,0,0.1-0.1,0.2C23.5-15.9,23.4-15.9,23.3-15.9z"
   class="st2" />
			<path
   id="path238"
   d="M22-22.8c-0.1,0-0.1,0-0.2-0.1c0-0.1-0.1-0.1-0.1-0.2c0-0.1,0-0.1,0.1-0.2c0.1-0.1,0.3-0.1,0.4,0     c0,0,0.1,0.1,0.1,0.2c0,0.1,0,0.1-0.1,0.2C22.1-22.8,22.1-22.8,22-22.8z"
   class="st2" />
			<path
   id="path240"
   d="M31-37.3c-0.1,0-0.1,0-0.2-0.1c0-0.1-0.1-0.1-0.1-0.2s0-0.1,0.1-0.2c0.1-0.1,0.3-0.1,0.4,0     c0,0,0.1,0.1,0.1,0.2s0,0.1-0.1,0.2C31.1-37.3,31.1-37.3,31-37.3z"
   class="st2" />
			<path
   id="path242"
   d="M51.6-17.4c-0.1,0-0.1,0-0.2-0.1c0,0-0.1-0.1-0.1-0.2c0-0.1,0-0.1,0.1-0.2c0.1-0.1,0.3-0.1,0.3,0     c0.1,0.1,0.1,0.1,0.1,0.2c0,0.1,0,0.1-0.1,0.2C51.7-17.4,51.7-17.4,51.6-17.4z"
   class="st2" />
			<path
   id="path244"
   d="M57.1-29.4c-0.1,0-0.1,0-0.2-0.1c0,0-0.1-0.1-0.1-0.2c0-0.1,0-0.1,0.1-0.2c0.1-0.1,0.3-0.1,0.4,0     c0.1,0,0.1,0.1,0.1,0.2c0,0.1,0,0.1-0.1,0.2C57.2-29.4,57.2-29.4,57.1-29.4z"
   class="st2" />
			<path
   id="path246"
   d="M50.8-29.6c-0.1,0-0.1,0-0.2-0.1c-0.1,0-0.1-0.1-0.1-0.2c0-0.1,0-0.1,0.1-0.2c0.1-0.1,0.2-0.1,0.3,0     c0,0,0.1,0.1,0.1,0.2c0,0.1,0,0.1-0.1,0.2C51-29.6,50.9-29.6,50.8-29.6z"
   class="st2" />
			<path
   id="path248"
   d="M66-17.5c-0.1,0-0.1,0-0.2-0.1c-0.1-0.1-0.1-0.1-0.1-0.2c0-0.1,0-0.1,0.1-0.2c0.1-0.1,0.3-0.1,0.4,0     c0,0,0.1,0.1,0.1,0.2c0,0.1,0,0.1-0.1,0.2C66.1-17.6,66.1-17.5,66-17.5z"
   class="st2" />
			<path
   id="path250"
   d="M54.1-37.6c-0.1,0-0.1,0-0.2-0.1c-0.1,0-0.1-0.1-0.1-0.2c0-0.1,0-0.1,0.1-0.2c0.1-0.1,0.3-0.1,0.4,0     c0,0,0.1,0.1,0.1,0.2c0,0.1,0,0.1-0.1,0.2C54.2-37.6,54.2-37.6,54.1-37.6z"
   class="st2" />
			<path
   id="path252"
   d="M39.3-36.4c-0.1,0-0.1,0-0.2-0.1c0,0-0.1-0.1-0.1-0.2c0-0.1,0-0.1,0.1-0.2c0.1-0.1,0.3-0.1,0.3,0     c0,0,0.1,0.1,0.1,0.2c0,0.1,0,0.1-0.1,0.2C39.5-36.4,39.4-36.4,39.3-36.4z"
   class="st2" />
			<path
   id="path254"
   d="M56.6-13.4c-0.1,0-0.1,0-0.2-0.1c0,0-0.1-0.1-0.1-0.2c0-0.1,0-0.1,0.1-0.2c0.1-0.1,0.3-0.1,0.3,0     c0,0,0.1,0.1,0.1,0.2c0,0.1,0,0.1-0.1,0.2C56.7-13.4,56.7-13.4,56.6-13.4z"
   class="st2" />
			<path
   id="path256"
   d="M56.5-22.5c-0.1,0-0.1,0-0.2-0.1c0-0.1-0.1-0.1-0.1-0.2c0-0.1,0-0.1,0.1-0.2c0.1-0.1,0.3-0.1,0.3,0     c0,0,0.1,0.1,0.1,0.2c0,0.1,0,0.1-0.1,0.2C56.6-22.6,56.6-22.5,56.5-22.5z"
   class="st2" />
			<path
   id="path258"
   d="M36.7-25c-0.1,0-0.1,0-0.2-0.1c-0.1-0.1-0.1-0.1-0.1-0.2c0-0.1,0-0.1,0.1-0.2c0.1-0.1,0.3-0.1,0.4,0     c0,0,0.1,0.1,0.1,0.2c0,0.1,0,0.1-0.1,0.2C36.9-25.1,36.8-25,36.7-25z"
   class="st2" />
			<path
   id="path260"
   d="M12-36.5c-0.1,0-0.1,0-0.2-0.1c-0.1-0.1-0.1-0.1-0.1-0.2c0-0.1,0-0.1,0.1-0.2c0.1-0.1,0.3-0.1,0.4,0     c0.1,0.1,0.1,0.1,0.1,0.2c0,0.1,0,0.1-0.1,0.2C12.1-36.6,12.1-36.5,12-36.5z"
   class="st2" />
			<path
   id="path262"
   d="M8-41.8c-0.1,0-0.1,0-0.2-0.1c0-0.1-0.1-0.1-0.1-0.2c0-0.1,0-0.1,0.1-0.2c0.1-0.1,0.3-0.1,0.4,0     c0.1,0.1,0.1,0.1,0.1,0.2c0,0.1,0,0.1-0.1,0.2C8.1-41.8,8.1-41.8,8-41.8z"
   class="st2" />
			<path
   id="path264"
   d="M75-25.3c-0.1,0-0.1,0-0.2-0.1c0-0.1-0.1-0.1-0.1-0.2c0-0.1,0-0.1,0.1-0.2c0.1-0.1,0.3-0.1,0.4,0     c0,0,0.1,0.1,0.1,0.2c0,0.1,0,0.1-0.1,0.2C75.1-25.3,75.1-25.3,75-25.3z"
   class="st2" />
			<path
   id="path266"
   d="M18.5-12c-0.1,0-0.1,0-0.2-0.1c0-0.1-0.1-0.1-0.1-0.2c0-0.1,0-0.1,0.1-0.2c0.1-0.1,0.3-0.1,0.4,0     c0,0,0.1,0.1,0.1,0.2s0,0.1-0.1,0.2C18.6-12.1,18.6-12,18.5-12z"
   class="st2" />
			<path
   id="path268"
   d="M14.5-7.3c-0.1,0-0.1,0-0.2-0.1c0-0.1-0.1-0.1-0.1-0.2c0-0.1,0-0.1,0.1-0.2c0.1-0.1,0.3-0.1,0.4,0     c0,0,0.1,0.1,0.1,0.2c0,0.1,0,0.1-0.1,0.2C14.6-7.3,14.6-7.3,14.5-7.3z"
   class="st2" />
			<path
   id="path270"
   d="M16.5-15.3c-0.1,0-0.1,0-0.2-0.1c0-0.1-0.1-0.1-0.1-0.2c0-0.1,0-0.1,0.1-0.2c0.1-0.1,0.3-0.1,0.4,0     c0.1,0,0.1,0.1,0.1,0.2c0,0.1,0,0.1-0.1,0.2C16.6-15.3,16.6-15.3,16.5-15.3z"
   class="st2" />
			<path
   id="path272"
   d="M24-8.8c-0.1,0-0.1,0-0.2-0.1c0-0.1-0.1-0.1-0.1-0.2s0-0.1,0.1-0.2c0.1-0.1,0.3-0.1,0.4,0     c0,0,0.1,0.1,0.1,0.2s0,0.1-0.1,0.2C24.1-8.8,24.1-8.8,24-8.8z"
   class="st2" />
			<path
   id="path274"
   d="M30.7-6.3c-0.1,0-0.1,0-0.2-0.1c-0.1-0.1-0.1-0.1-0.1-0.2s0-0.1,0.1-0.2c0.1-0.1,0.3-0.1,0.4,0     c0,0,0.1,0.1,0.1,0.2c0,0.1,0,0.1-0.1,0.2C30.9-6.3,30.8-6.3,30.7-6.3z"
   class="st2" />
			<path
   id="path276"
   d="M35-10.3c-0.1,0-0.1,0-0.2-0.1c0-0.1-0.1-0.1-0.1-0.2s0-0.1,0.1-0.2c0.1-0.1,0.3-0.1,0.3,0     c0,0.1,0.1,0.1,0.1,0.2c0,0.1,0,0.1-0.1,0.2C35.1-10.3,35.1-10.3,35-10.3z"
   class="st2" />
			<path
   id="path278"
   d="M76-44.8c-0.1,0-0.1,0-0.2-0.1c0-0.1-0.1-0.1-0.1-0.2s0-0.1,0.1-0.2c0.1-0.1,0.3-0.1,0.3,0     c0,0,0.1,0.1,0.1,0.2s0,0.1-0.1,0.2C76.1-44.8,76.1-44.8,76-44.8z"
   class="st2" />
			<path
   id="path280"
   d="M62-30c-0.1,0-0.1,0-0.2-0.1c0-0.1-0.1-0.1-0.1-0.2c0-0.1,0-0.1,0.1-0.2c0.1-0.1,0.3-0.1,0.4,0     c0,0.1,0.1,0.1,0.1,0.2c0,0.1,0,0.1-0.1,0.2C62.1-30.1,62.1-30,62-30z"
   class="st2" />
			<path
   id="path282"
   d="M44-7.3c-0.1,0-0.1,0-0.2-0.1c0,0-0.1-0.1-0.1-0.2s0-0.1,0.1-0.2c0.1-0.1,0.2-0.1,0.3,0     c0.1,0,0.1,0.1,0.1,0.2c0,0.1,0,0.1-0.1,0.2C44.1-7.3,44.1-7.3,44-7.3z"
   class="st2" />
			<path
   id="path284"
   d="M54-6.3c-0.1,0-0.1,0-0.2-0.1c0-0.1-0.1-0.1-0.1-0.2s0-0.1,0.1-0.2c0.1-0.1,0.3-0.1,0.3,0     c0,0,0.1,0.1,0.1,0.2s0,0.1-0.1,0.2C54.1-6.3,54.1-6.3,54-6.3z"
   class="st2" />
			<path
   id="path286"
   d="M69-8.8c-0.1,0-0.1,0-0.2-0.1c0-0.1-0.1-0.1-0.1-0.2s0-0.1,0.1-0.2c0.1-0.1,0.2-0.1,0.3,0     c0,0,0.1,0.1,0.1,0.2s0,0.1-0.1,0.2C69.1-8.8,69.1-8.8,69-8.8z"
   class="st2" />
			<path
   id="path288"
   d="M59.5-5.3c-0.1,0-0.1,0-0.2-0.1c0,0-0.1-0.1-0.1-0.2s0-0.1,0.1-0.2c0.1-0.1,0.3-0.1,0.3,0     c0,0,0.1,0.1,0.1,0.2c0,0.1,0,0.1-0.1,0.2C59.6-5.3,59.6-5.3,59.5-5.3z"
   class="st2" />
			<path
   id="path290"
   d="M39-8.3c-0.1,0-0.1,0-0.2-0.1c0-0.1-0.1-0.1-0.1-0.2s0-0.1,0.1-0.2c0.1-0.1,0.3-0.1,0.3,0     c0,0.1,0.1,0.1,0.1,0.2c0,0.1,0,0.1-0.1,0.2C39.1-8.3,39.1-8.3,39-8.3z"
   class="st2" />
			<path
   id="path292"
   d="M30.7-14.3c-0.1,0-0.1,0-0.2-0.1c-0.1-0.1-0.1-0.1-0.1-0.2s0-0.1,0.1-0.2c0.1-0.1,0.3-0.1,0.4,0     c0,0,0.1,0.1,0.1,0.2c0,0.1,0,0.1-0.1,0.2C30.9-14.3,30.8-14.3,30.7-14.3z"
   class="st2" />
			<path
   id="path294"
   d="M42.7-23.3c-0.1,0-0.1,0-0.2-0.1c-0.1-0.1-0.1-0.1-0.1-0.2c0-0.1,0-0.1,0.1-0.2c0.1-0.1,0.3-0.1,0.4,0     c0.1,0,0.1,0.1,0.1,0.2c0,0.1,0,0.1-0.1,0.2C42.9-23.3,42.8-23.3,42.7-23.3z"
   class="st2" />
			<path
   id="path296"
   d="M60.8-17.1c-0.1,0-0.1,0-0.2-0.1c0,0-0.1-0.1-0.1-0.2c0-0.1,0-0.1,0.1-0.2c0.1-0.1,0.2-0.1,0.3,0     c0,0,0.1,0.1,0.1,0.2c0,0.1,0,0.1-0.1,0.2C61-17.1,60.9-17.1,60.8-17.1z"
   class="st2" />
			<path
   id="path298"
   d="M74-6.8c-0.1,0-0.1,0-0.2-0.1c0-0.1-0.1-0.1-0.1-0.2s0-0.1,0.1-0.2c0.1-0.1,0.3-0.1,0.4,0     c0,0,0.1,0.1,0.1,0.2c0,0.1,0,0.1-0.1,0.2C74.1-6.8,74.1-6.8,74-6.8z"
   class="st2" />
			<path
   id="path300"
   d="M10-63.5c-0.1,0-0.1,0-0.2-0.1c0-0.1-0.1-0.1-0.1-0.2c0-0.1,0-0.1,0.1-0.2c0.1-0.1,0.3-0.1,0.4,0     c0.1,0.1,0.1,0.1,0.1,0.2c0,0.1,0,0.1-0.1,0.2C10.1-63.6,10.1-63.5,10-63.5z"
   class="st2" />
			<path
   id="path302"
   d="M75.2-34c-0.1,0-0.1,0-0.2-0.1c0-0.1-0.1-0.1-0.1-0.2c0-0.1,0-0.1,0.1-0.2c0.1-0.1,0.3-0.1,0.3,0     c0,0,0.1,0.1,0.1,0.2c0,0.1,0,0.1-0.1,0.2C75.4-34.1,75.3-34,75.2-34z"
   class="st2" />
			<path
   id="path304"
   d="M37.5-52.5c-0.1,0-0.1,0-0.2-0.1c0,0-0.1-0.1-0.1-0.2s0-0.1,0.1-0.2c0.1-0.1,0.3-0.1,0.4,0     c0,0.1,0.1,0.1,0.1,0.2c0,0.1,0,0.1-0.1,0.2C37.6-52.6,37.6-52.5,37.5-52.5z"
   class="st2" />
			<path
   id="path306"
   d="M42.2-55.8c-0.1,0-0.1,0-0.2-0.1C42-55.9,42-56,42-56s0-0.1,0.1-0.2c0.1-0.1,0.3-0.1,0.4,0     c0,0,0.1,0.1,0.1,0.2c0,0.1,0,0.1-0.1,0.2C42.4-55.8,42.3-55.8,42.2-55.8z"
   class="st2" />
			<path
   id="path308"
   d="M35.2-48.5c-0.1,0-0.1,0-0.2-0.1C35-48.7,35-48.7,35-48.8s0-0.1,0.1-0.2c0.1-0.1,0.3-0.1,0.4,0     c0.1,0,0.1,0.1,0.1,0.2c0,0.1,0,0.1-0.1,0.2C35.4-48.6,35.3-48.5,35.2-48.5z"
   class="st2" />
			<path
   id="path310"
   d="M19.2-55c-0.1,0-0.1,0-0.2-0.1C19-55.2,19-55.2,19-55.3s0-0.1,0.1-0.2c0.1-0.1,0.3-0.1,0.4,0     c0,0,0.1,0.1,0.1,0.2s0,0.1-0.1,0.2C19.4-55.1,19.3-55,19.2-55z"
   class="st2" />
			<path
   id="path312"
   d="M35.5-67.3c-0.1,0-0.1,0-0.2-0.1c-0.1-0.1-0.1-0.1-0.1-0.2c0-0.1,0-0.1,0.1-0.2c0.1-0.1,0.3-0.1,0.4,0     c0.1,0.1,0.1,0.1,0.1,0.2c0,0.1,0,0.1-0.1,0.2C35.6-67.3,35.6-67.3,35.5-67.3z"
   class="st2" />
			<path
   id="path314"
   d="M8.2-19.8c-0.1,0-0.1,0-0.2-0.1C8-19.9,8-20,8-20c0-0.1,0-0.1,0.1-0.2c0.1-0.1,0.3-0.1,0.4,0     c0,0.1,0.1,0.1,0.1,0.2c0,0.1,0,0.1-0.1,0.2C8.4-19.8,8.3-19.8,8.2-19.8z"
   class="st2" />
			<path
   id="path316"
   d="M16.7-31.5c-0.1,0-0.1,0-0.2-0.1c0-0.1-0.1-0.1-0.1-0.2c0-0.1,0-0.1,0.1-0.2c0.1-0.1,0.3-0.1,0.4,0     c0,0,0.1,0.1,0.1,0.2c0,0.1,0,0.1-0.1,0.2C16.9-31.6,16.8-31.5,16.7-31.5z"
   class="st2" />
			<path
   id="path318"
   d="M68.7-36c-0.1,0-0.1,0-0.2-0.1c0,0-0.1-0.1-0.1-0.2s0-0.1,0.1-0.2c0.1-0.1,0.3-0.1,0.3,0     c0,0,0.1,0.1,0.1,0.2s0,0.1-0.1,0.2C68.9-36.1,68.8-36,68.7-36z"
   class="st2" />
			<path
   id="path320"
   d="M10.1-45.6c-0.1,0-0.1,0-0.2-0.1c-0.1-0.1-0.1-0.1-0.1-0.2c0-0.1,0-0.1,0.1-0.2c0.1-0.1,0.3-0.1,0.3,0     c0,0.1,0.1,0.1,0.1,0.2c0,0.1,0,0.1-0.1,0.2C10.2-45.7,10.1-45.6,10.1-45.6z"
   class="st2" />
		</g>
		<g
   id="g326">
			<path
   id="path324"
   d="M4.6-41.5C3-42.7-0.6-42,0.3-40.7c0.9,1.3,5.2,2.6,6.5,1.4C8-40.5,5.4-40.9,4.6-41.5z"
   class="st1" />
		</g>
		<g
   id="g332">
			<path
   id="path328"
   d="M14.7-76.8c-2.1,0-4.5,2.8-3,3.3s5.8-1,6-2.8S15.7-76.8,14.7-76.8z"
   class="st1" />
			<path
   id="path330"
   d="M46.5-77c-2.1,0-4.5,2.8-3,3.3s5.8-1,6-2.8S47.5-77,46.5-77z"
   class="st1" />
		</g>
	</g>
</pattern>
<rect
   id="rect337"
   height="56.7"
   width="56.7"
   class="st3"
   y="0"
   x="0"
   style="fill:#ffffff;fill-opacity:0.01724138" />
<rect
   id="rect339"
   height="56.7"
   width="56.7"
   class="st4"
   y="0"
   style="fill:none" />
<rect
   style="fill:none"
   id="rect2363"
   height="72"
   width="72"
   class="st0"
   y="-12.033897"
   x="-13.780086" /><g
   id="g2367"
   transform="translate(-18.980085,62.466103)">
			<path
   style="fill:none;stroke:#1d1d1b;stroke-width:0.30000001"
   inkscape:connector-curvature="0"
   id="path2365"
   d="M 36.1,-2.8 C 34.4,-4 30.8,-3.3 31.8,-2 c 0.9,1.3 5.2,2.6 6.5,1.4 1.1,-1.3 -1.4,-1.6 -2.2,-2.2 z"
   class="st1" />
		</g><g
   id="g2377"
   transform="translate(-18.980085,62.466103)">
			<path
   style="fill:none;stroke:#1d1d1b;stroke-width:0.30000001"
   inkscape:connector-curvature="0"
   id="path2369"
   d="m 81.6,-12.4 c -1.9,-0.8 -5.2,0.7 -4,1.8 1.2,1.1 5.7,1.4 6.6,-0.1 0.9,-1.6 -1.7,-1.3 -2.6,-1.7 z"
   class="st1" />
			<path
   style="fill:none;stroke:#1d1d1b;stroke-width:0.30000001"
   inkscape:connector-curvature="0"
   id="path2371"
   d="m 80.7,-56.3 c -2.1,0 -4.5,2.8 -3,3.3 1.5,0.5 5.8,-1 6,-2.8 0.2,-1.8 -2,-0.5 -3,-0.5 z"
   class="st1" />
			<path
   style="fill:none;stroke:#1d1d1b;stroke-width:0.30000001"
   inkscape:connector-curvature="0"
   id="path2373"
   d="m 79.9,-27.5 c -1.7,-1.2 -5.3,-0.5 -4.3,0.8 0.9,1.3 5.2,2.6 6.5,1.4 1.1,-1.2 -1.4,-1.6 -2.2,-2.2 z"
   class="st1" />
			<path
   style="fill:none;stroke:#1d1d1b;stroke-width:0.30000001"
   inkscape:connector-curvature="0"
   id="path2375"
   d="m 79.7,-71 c -1.9,3.3 -4.8,1.3 -4,-0.5 0.8,-1.8 5,-1.3 4,0.5 z"
   class="st1" />
		</g><g
   id="g2681"
   transform="translate(-18.980085,62.466103)">
			<path
   style="fill:none;stroke:#1d1d1b;stroke-width:0.30000001"
   inkscape:connector-curvature="0"
   id="path2379"
   d="m 29.7,-65.3 c 2.4,-1.3 6.5,-1.7 7.7,-0.7 1.1,0.9 1.7,2.9 -2.8,3.2 -4.5,0.4 -7.4,-1.1 -4.9,-2.5 z"
   class="st1" />
			<path
   style="fill:none;stroke:#1d1d1b;stroke-width:0.30000001"
   inkscape:connector-curvature="0"
   id="path2381"
   d="m 35.9,-59 c -1.6,-1.3 -5.2,-0.6 -4.4,0.7 0.9,1.3 5.1,2.8 6.4,1.6 1.3,-1.2 -1.3,-1.6 -2,-2.3 z"
   class="st1" />
			<path
   style="fill:none;stroke:#1d1d1b;stroke-width:0.30000001"
   inkscape:connector-curvature="0"
   id="path2383"
   d="m 57.3,-59.1 c -1.6,-1.3 -5.2,-0.8 -4.4,0.6 0.8,1.3 5.1,2.9 6.4,1.7 1.3,-1.2 -1.3,-1.6 -2,-2.3 z"
   class="st1" />
			<path
   style="fill:none;stroke:#1d1d1b;stroke-width:0.30000001"
   inkscape:connector-curvature="0"
   id="path2385"
   d="m 59.1,-34.3 c -1.7,-1.1 -5.3,-0.1 -4.3,1.2 1,1.2 5.4,2.2 6.5,0.9 1.2,-1.5 -1.3,-1.6 -2.2,-2.1 z"
   class="st1" />
			<path
   style="fill:none;stroke:#1d1d1b;stroke-width:0.30000001"
   inkscape:connector-curvature="0"
   id="path2387"
   d="m 9.6,-12.4 c -1.9,-0.8 -5.2,0.7 -4,1.8 1.2,1.1 5.7,1.4 6.6,-0.1 0.9,-1.6 -1.7,-1.3 -2.6,-1.7 z"
   class="st1" />
			<path
   style="fill:none;stroke:#1d1d1b;stroke-width:0.30000001"
   inkscape:connector-curvature="0"
   id="path2389"
   d="m 52,-10.3 c 1.9,-0.8 3,-4.3 1.4,-4.2 -1.6,0.1 -4.9,3.2 -4.4,4.9 0.6,1.7 2.1,-0.3 3,-0.7 z"
   class="st1" />
			<path
   style="fill:none;stroke:#1d1d1b;stroke-width:0.30000001"
   inkscape:connector-curvature="0"
   id="path2391"
   d="m 66.7,-15.3 c -2.1,0 -4.5,2.8 -3,3.3 1.5,0.5 5.8,-1 6,-2.8 0.2,-1.8 -2,-0.5 -3,-0.5 z"
   class="st1" />
			<path
   style="fill:none;stroke:#1d1d1b;stroke-width:0.30000001"
   inkscape:connector-curvature="0"
   id="path2393"
   d="m 58.5,-69.3 c -2.1,0 -4.5,2.8 -3,3.3 1.5,0.5 5.8,-1 6,-2.8 0.2,-1.8 -2,-0.5 -3,-0.5 z"
   class="st1" />
			<path
   style="fill:none;stroke:#1d1d1b;stroke-width:0.30000001"
   inkscape:connector-curvature="0"
   id="path2395"
   d="m 62.8,-43 c -1.3,-1.6 -4.9,-1.9 -4.4,-0.4 0.5,1.5 4.3,3.9 5.9,3 1.5,-0.8 -0.9,-1.8 -1.5,-2.6 z"
   class="st1" />
			<path
   style="fill:none;stroke:#1d1d1b;stroke-width:0.30000001"
   inkscape:connector-curvature="0"
   id="path2397"
   d="m 42.2,-51.8 c -2.1,0 -4.5,2.8 -3,3.3 1.5,0.5 5.8,-1 6,-2.8 0.2,-1.8 -2,-0.5 -3,-0.5 z"
   class="st1" />
			<path
   style="fill:none;stroke:#1d1d1b;stroke-width:0.30000001"
   inkscape:connector-curvature="0"
   id="path2399"
   d="m 25.2,-18.8 c -2.3,1.3 -6.2,1.8 -7.3,0.9 -1.1,-0.9 -1.7,-2.7 2.6,-3.1 4.3,-0.4 7,0.9 4.7,2.2 z"
   class="st1" />
			<path
   style="fill:none;stroke:#1d1d1b;stroke-width:0.30000001"
   inkscape:connector-curvature="0"
   id="path2401"
   d="m 40.7,-33 c 1.9,-3.3 4.8,-1.3 4,0.5 -0.8,1.8 -5,1.2 -4,-0.5 z"
   class="st1" />
			<path
   style="fill:none;stroke:#1d1d1b;stroke-width:0.30000001"
   inkscape:connector-curvature="0"
   id="path2403"
   d="m 26.7,-27.8 c 1.9,-3.3 4.8,-1.3 4,0.5 -0.8,1.8 -5,1.3 -4,-0.5 z"
   class="st1" />
			<path
   style="fill:none;stroke:#1d1d1b;stroke-width:0.30000001"
   inkscape:connector-curvature="0"
   id="path2405"
   d="m 29,-46.5 c 1.9,-3.3 2.8,-0.8 2,1 -0.8,1.8 -3,0.7 -2,-1 z"
   class="st1" />
			<path
   style="fill:none;stroke:#1d1d1b;stroke-width:0.30000001"
   inkscape:connector-curvature="0"
   id="path2407"
   d="m 20.7,-69.3 c 1.9,-3.3 4.8,-1.3 4,0.5 -0.8,1.8 -5,1.3 -4,-0.5 z"
   class="st1" />
			<path
   style="fill:none;stroke:#1d1d1b;stroke-width:0.30000001"
   inkscape:connector-curvature="0"
   id="path2409"
   d="m 61.4,-24 c 1.5,-2.2 5,-4.5 6.5,-4.2 1.4,0.3 2.8,1.8 -1,4.1 -3.8,2.4 -7.1,2.4 -5.5,0.1 z"
   class="st1" />
			<path
   style="fill:none;stroke:#1d1d1b;stroke-width:0.30000001"
   inkscape:connector-curvature="0"
   id="path2411"
   d="m 27.4,-13.5 c -1.9,-0.7 -5.2,1 -3.9,2 0.4,0.4 5.7,1 6.6,-0.5 0.7,-1.6 -1.8,-1.2 -2.7,-1.5 z"
   class="st1" />
			<path
   style="fill:none;stroke:#1d1d1b;stroke-width:0.30000001"
   inkscape:connector-curvature="0"
   id="path2413"
   d="m 48.7,-70.5 c 1.9,-3.3 4.8,-1.3 4,0.5 -0.8,1.8 -5,1.2 -4,-0.5 z"
   class="st1" />
			<path
   style="fill:none;stroke:#1d1d1b;stroke-width:0.30000001"
   inkscape:connector-curvature="0"
   id="path2415"
   d="m 20.2,-33.8 c 1.9,-3.3 4.8,-1.3 4,0.5 -0.8,1.8 -5,1.3 -4,-0.5 z"
   class="st1" />
			<path
   style="fill:none;stroke:#1d1d1b;stroke-width:0.30000001"
   inkscape:connector-curvature="0"
   id="path2417"
   d="m 41.2,-21 c -2.1,0 -4.5,2.8 -3,3.3 1.5,0.5 5.8,-1 6,-2.8 0.2,-1.8 -2,-0.5 -3,-0.5 z"
   class="st1" />
			<path
   style="fill:none;stroke:#1d1d1b;stroke-width:0.30000001"
   inkscape:connector-curvature="0"
   id="path2419"
   d="m 19.6,-50.1 c -1.7,-1.2 -5.2,-0.5 -4.3,0.8 0.9,1.3 5.2,2.6 6.5,1.4 1.1,-1.3 -1.4,-1.6 -2.2,-2.2 z"
   class="st1" />
			<path
   style="fill:none;stroke:#1d1d1b;stroke-width:0.30000001"
   inkscape:connector-curvature="0"
   id="path2421"
   d="m 12,-63.3 c 1.9,-3.3 4.8,-1.2 4,0.5 -0.8,1.8 -5,1.3 -4,-0.5 z"
   class="st1" />
			<path
   style="fill:none;stroke:#1d1d1b;stroke-width:0.30000001"
   inkscape:connector-curvature="0"
   id="path2423"
   d="m 73.3,-61.1 c -2.7,0.7 -6.8,0 -7.7,-1.2 -0.9,-1.2 -0.9,-3.2 3.5,-2.4 4.5,0.8 6.9,2.9 4.2,3.6 z"
   class="st1" />
			<path
   style="fill:none;stroke:#1d1d1b;stroke-width:0.30000001"
   inkscape:connector-curvature="0"
   id="path2425"
   d="m 22.7,-55 c 1.9,-3.3 4.8,-1.3 4,0.5 -0.8,1.8 -5,1.2 -4,-0.5 z"
   class="st1" />
			<path
   style="fill:none;stroke:#1d1d1b;stroke-width:0.30000001"
   inkscape:connector-curvature="0"
   id="path2427"
   d="m 8.7,-56.3 c -2.1,0 -4.5,2.8 -3,3.3 1.5,0.5 5.8,-1 6,-2.8 0.2,-1.8 -2,-0.5 -3,-0.5 z"
   class="st1" />
			<path
   style="fill:none;stroke:#1d1d1b;stroke-width:0.30000001"
   inkscape:connector-curvature="0"
   id="path2429"
   d="m 71.2,-49.8 c 1.9,-3.3 4.8,-1.3 4,0.5 -0.8,1.8 -5,1.3 -4,-0.5 z"
   class="st1" />
			<path
   style="fill:none;stroke:#1d1d1b;stroke-width:0.30000001"
   inkscape:connector-curvature="0"
   id="path2431"
   d="m 61.2,-53.3 c -2.1,0 -4.5,2.8 -3,3.3 1.5,0.5 5.8,-1 6,-2.8 0.3,-1.7 -2,-0.5 -3,-0.5 z"
   class="st1" />
			<path
   style="fill:none;stroke:#1d1d1b;stroke-width:0.30000001"
   inkscape:connector-curvature="0"
   id="path2433"
   d="m 76.6,-41.5 c -1.7,-1.2 -5.3,-0.5 -4.3,0.8 0.9,1.3 5.2,2.6 6.5,1.4 1.2,-1.2 -1.4,-1.6 -2.2,-2.2 z"
   class="st1" />
			<path
   style="fill:none;stroke:#1d1d1b;stroke-width:0.30000001"
   inkscape:connector-curvature="0"
   id="path2435"
   d="m 65,-69.5 c 1.9,-3.3 2.8,-0.8 2,1 -0.8,1.8 -3,0.7 -2,-1 z"
   class="st1" />
			<path
   style="fill:none;stroke:#1d1d1b;stroke-width:0.30000001"
   inkscape:connector-curvature="0"
   id="path2437"
   d="m 71.7,-20 c 1.9,-3.3 4.8,-1.3 4,0.5 -0.8,1.8 -5,1.2 -4,-0.5 z"
   class="st1" />
			<path
   style="fill:none;stroke:#1d1d1b;stroke-width:0.30000001"
   inkscape:connector-curvature="0"
   id="path2439"
   d="m 14.7,-4.8 c -2.1,0 -4.5,2.8 -3,3.3 1.5,0.5 5.8,-1 6,-2.8 0.2,-1.8 -2,-0.5 -3,-0.5 z"
   class="st1" />
			<path
   style="fill:none;stroke:#1d1d1b;stroke-width:0.30000001"
   inkscape:connector-curvature="0"
   id="path2441"
   d="m 15.2,-40 c -2.1,0 -4.5,2.8 -3,3.3 1.5,0.5 5.8,-1 6,-2.8 0.2,-1.8 -2,-0.5 -3,-0.5 z"
   class="st1" />
			<path
   style="fill:none;stroke:#1d1d1b;stroke-width:0.30000001"
   inkscape:connector-curvature="0"
   id="path2443"
   d="m 36.1,-74.8 c -1.7,-1.2 -5.3,-0.5 -4.3,0.8 0.9,1.3 5.2,2.6 6.5,1.4 1.1,-1.3 -1.4,-1.6 -2.2,-2.2 z"
   class="st1" />
			<path
   style="fill:none;stroke:#1d1d1b;stroke-width:0.30000001"
   inkscape:connector-curvature="0"
   id="path2445"
   d="m 46.5,-5 c -2.1,0 -4.5,2.8 -3,3.3 1.5,0.5 5.8,-1 6,-2.8 0.2,-1.8 -2,-0.5 -3,-0.5 z"
   class="st1" />
			<path
   style="fill:none;stroke:#1d1d1b;stroke-width:0.30000001"
   inkscape:connector-curvature="0"
   id="path2447"
   d="m 33.1,-31.6 c 0.9,1.8 4.5,2.7 4.3,1.2 -0.2,-1.6 -3.5,-4.6 -5.2,-4.1 -1.7,0.5 0.5,2 0.9,2.9 z"
   class="st1" />
			<path
   style="fill:none;stroke:#1d1d1b;stroke-width:0.30000001"
   inkscape:connector-curvature="0"
   id="path2449"
   d="m 50,-39.8 c -3.7,0.8 -2.4,-1.6 -0.6,-2.2 1.8,-0.5 2.6,1.8 0.6,2.2 z"
   class="st1" />
			<path
   style="fill:none;stroke:#1d1d1b;stroke-width:0.30000001"
   inkscape:connector-curvature="0"
   id="path2451"
   d="m 35.4,-41.7 c 1.8,-1.8 5.5,-3.3 6.8,-2.8 1.3,0.5 2.3,2.2 -1.7,3.7 -3.9,1.5 -6.9,1 -5.1,-0.9 z"
   class="st1" />
			<path
   style="fill:none;stroke:#1d1d1b;stroke-width:0.30000001"
   inkscape:connector-curvature="0"
   id="path2453"
   d="m 40.2,-13.5 c -1.9,-3.3 -4.8,-1.3 -4,0.5 0.8,1.7 5,1.2 4,-0.5 z"
   class="st1" />
			<path
   style="fill:none;stroke:#1d1d1b;stroke-width:0.30000001"
   inkscape:connector-curvature="0"
   id="path2455"
   d="m 51.2,-23.4 c 0.4,2 3.6,3.8 3.8,2.3 0.2,-1.6 -2.2,-5.4 -3.9,-5.3 -1.8,0.1 -0.1,2 0.1,3 z"
   class="st1" />
			<path
   style="fill:none;stroke:#1d1d1b;stroke-width:0.30000001"
   inkscape:connector-curvature="0"
   id="path2457"
   d="m 45.7,-63 c -3.7,0.8 -2.4,-1.6 -0.6,-2.2 1.9,-0.6 2.6,1.8 0.6,2.2 z"
   class="st1" />
			<path
   style="fill:none;stroke:#1d1d1b;stroke-width:0.30000001"
   inkscape:connector-curvature="0"
   id="path2459"
   d="m 7.9,-27.5 c -1.7,-1.2 -5.3,-0.5 -4.3,0.8 0.9,1.3 5.2,2.6 6.5,1.4 1.1,-1.2 -1.4,-1.6 -2.2,-2.2 z"
   class="st1" />
			<path
   style="fill:none;stroke:#1d1d1b;stroke-width:0.30000001"
   inkscape:connector-curvature="0"
   id="path2461"
   d="m 7.7,-71 c -1.9,3.3 -4.8,1.3 -4,-0.5 0.8,-1.8 5,-1.3 4,0.5 z"
   class="st1" />
			<path
   style="fill:none;stroke:#1d1d1b;stroke-width:0.30000001"
   inkscape:connector-curvature="0"
   id="path2463"
   d="m 66.3,-6.1 c -0.8,-1.4 -4.8,-1.8 -4.6,-0.6 0.2,1.2 2.9,3.6 4.2,3.1 1.4,-0.5 0.8,-1.8 0.4,-2.5 z"
   class="st1" />
			<path
   style="fill:#1d1d1b"
   inkscape:connector-curvature="0"
   id="path2465"
   d="m 15.8,-67.4 c -0.1,0 -0.1,0 -0.2,-0.1 -0.1,-0.1 -0.1,-0.1 -0.1,-0.2 0,-0.1 0,-0.1 0.1,-0.2 0.1,-0.1 0.3,-0.1 0.3,0 0,0.1 0.1,0.1 0.1,0.2 0,0.1 0,0.1 -0.1,0.2 0.1,0.1 0,0.1 -0.1,0.1 z"
   class="st2" />
			<path
   style="fill:#1d1d1b"
   inkscape:connector-curvature="0"
   id="path2467"
   d="m 19.3,-67.1 c -0.1,0 -0.1,0 -0.2,-0.1 -0.1,-0.1 -0.1,-0.1 -0.1,-0.2 0,-0.1 0,-0.1 0.1,-0.2 0.1,-0.1 0.3,-0.1 0.3,0 0,0.1 0.1,0.1 0.1,0.2 0,0.1 0,0.1 -0.1,0.2 0.1,0 0,0.1 -0.1,0.1 z"
   class="st2" />
			<path
   style="fill:#1d1d1b"
   inkscape:connector-curvature="0"
   id="path2469"
   d="m 23.3,-61.4 c -0.1,0 -0.1,0 -0.2,-0.1 -0.1,-0.1 -0.1,-0.1 -0.1,-0.2 0,-0.1 0,-0.1 0.1,-0.2 0.1,-0.1 0.3,-0.1 0.3,0 0,0.1 0.1,0.1 0.1,0.2 0,0.1 0,0.1 -0.1,0.2 0.1,0.1 0,0.1 -0.1,0.1 z"
   class="st2" />
			<path
   style="fill:#1d1d1b"
   inkscape:connector-curvature="0"
   id="path2471"
   d="m 11.2,-53.8 c -0.1,0 -0.1,0 -0.2,-0.1 0,0 0,-0.1 0,-0.1 0,0 0,-0.1 0.1,-0.2 0.1,-0.1 0.3,-0.1 0.4,0 0.1,0 0.1,0.1 0.1,0.2 0,0.1 0,0.1 -0.1,0.2 -0.1,0 -0.2,0 -0.3,0 z"
   class="st2" />
			<path
   style="fill:#1d1d1b"
   inkscape:connector-curvature="0"
   id="path2473"
   d="m 18.1,-58.9 c -0.1,0 -0.1,0 -0.2,-0.1 -0.1,-0.1 -0.1,-0.1 -0.1,-0.2 0,-0.1 0,-0.1 0.1,-0.2 0.1,-0.1 0.3,-0.1 0.3,0 0,0 0.1,0.1 0.1,0.2 0,0.1 0,0.1 -0.1,0.2 0,0.1 0,0.1 -0.1,0.1 z"
   class="st2" />
			<path
   style="fill:#1d1d1b"
   inkscape:connector-curvature="0"
   id="path2475"
   d="m 28.8,-55.6 c -0.1,0 -0.1,0 -0.2,-0.1 -0.1,-0.1 -0.1,-0.1 -0.1,-0.2 0,-0.1 0,-0.1 0.1,-0.2 0.1,-0.1 0.3,-0.1 0.3,0 0,0.1 0.1,0.1 0.1,0.2 0,0.1 0,0.1 -0.1,0.2 0.1,0 0,0.1 -0.1,0.1 z"
   class="st2" />
			<path
   style="fill:#1d1d1b"
   inkscape:connector-curvature="0"
   id="path2477"
   d="m 24.1,-48.4 c -0.1,0 -0.1,0 -0.2,-0.1 -0.1,-0.1 -0.1,-0.1 -0.1,-0.2 0,-0.1 0,-0.1 0.1,-0.2 0.1,-0.1 0.3,-0.1 0.3,0 0,0.1 0.1,0.1 0.1,0.2 0,0.1 0,0.1 -0.1,0.2 0,0.1 -0.1,0.1 -0.1,0.1 z"
   class="st2" />
			<path
   style="fill:#1d1d1b"
   inkscape:connector-curvature="0"
   id="path2479"
   d="m 17.8,-45.1 c -0.1,0 -0.1,0 -0.2,-0.1 0,-0.1 -0.1,-0.1 -0.1,-0.2 0,-0.1 0,-0.1 0.1,-0.2 0.1,-0.1 0.3,-0.1 0.3,0 0,0.1 0.1,0.1 0.1,0.2 0,0.1 0,0.1 -0.1,0.2 0.1,0 0,0.1 -0.1,0.1 z"
   class="st2" />
			<path
   style="fill:#1d1d1b"
   inkscape:connector-curvature="0"
   id="path2481"
   d="m 46.7,-54 c -0.1,0 -0.1,0 -0.2,-0.1 -0.1,-0.1 -0.1,-0.1 -0.1,-0.2 0,-0.1 0,-0.1 0.1,-0.2 0.1,-0.1 0.3,-0.1 0.4,0 0,0 0.1,0.1 0.1,0.2 0,0.1 0,0.1 -0.1,0.2 0,0 -0.1,0.1 -0.2,0.1 z"
   class="st2" />
			<path
   style="fill:#1d1d1b"
   inkscape:connector-curvature="0"
   id="path2483"
   d="m 29.8,-66.1 c -0.1,0 -0.1,0 -0.2,-0.1 0,0 -0.1,-0.1 -0.1,-0.2 0,-0.1 0,-0.1 0.1,-0.2 0.1,-0.1 0.3,-0.1 0.3,0 0,0.1 0.1,0.1 0.1,0.2 0,0.1 0,0.1 -0.1,0.2 0.1,0 0,0.1 -0.1,0.1 z"
   class="st2" />
			<path
   style="fill:#1d1d1b"
   inkscape:connector-curvature="0"
   id="path2485"
   d="m 44.6,-69.4 c -0.1,0 -0.1,0 -0.2,-0.1 0,0 -0.1,-0.1 -0.1,-0.2 0,-0.1 0,-0.1 0.1,-0.2 0.1,-0.1 0.3,-0.1 0.3,0 0,0.1 0.1,0.1 0.1,0.2 0,0.1 0,0.1 -0.1,0.2 0,0.1 -0.1,0.1 -0.1,0.1 z"
   class="st2" />
			<path
   style="fill:#1d1d1b"
   inkscape:connector-curvature="0"
   id="path2487"
   d="m 50.3,-61.4 c -0.1,0 -0.1,0 -0.2,-0.1 -0.1,-0.1 -0.1,-0.1 -0.1,-0.2 0,-0.1 0,-0.1 0.1,-0.2 0.1,-0.1 0.3,-0.1 0.3,0 0,0.1 0.1,0.1 0.1,0.2 0,0.1 0,0.1 -0.1,0.2 0.1,0.1 0,0.1 -0.1,0.1 z"
   class="st2" />
			<path
   style="fill:#1d1d1b"
   inkscape:connector-curvature="0"
   id="path2489"
   d="m 55.8,-64.1 c -0.1,0 -0.1,0 -0.2,-0.1 0,0 -0.1,-0.1 -0.1,-0.2 0,-0.1 0,-0.1 0.1,-0.2 0.1,-0.1 0.3,-0.1 0.3,0 0,0.1 0.1,0.1 0.1,0.2 0,0.1 0,0.1 -0.1,0.2 0.1,0 0,0.1 -0.1,0.1 z"
   class="st2" />
			<path
   style="fill:#1d1d1b"
   inkscape:connector-curvature="0"
   id="path2491"
   d="m 61.1,-59.4 c -0.1,0 -0.1,0 -0.2,-0.1 -0.1,-0.1 -0.1,-0.1 -0.1,-0.2 0,-0.1 0,-0.1 0.1,-0.2 0.1,-0.1 0.3,-0.1 0.3,0 0,0.1 0.1,0.1 0.1,0.2 0,0.1 0,0.1 -0.1,0.2 0,0.1 -0.1,0.1 -0.1,0.1 z"
   class="st2" />
			<path
   style="fill:#1d1d1b"
   inkscape:connector-curvature="0"
   id="path2493"
   d="m 65.2,-57.5 c -0.1,0 -0.1,0 -0.2,-0.1 0,0 -0.1,-0.1 -0.1,-0.2 0,-0.1 0,-0.1 0.1,-0.2 0.1,-0.1 0.3,-0.1 0.4,0 0.1,0 0.1,0.1 0.1,0.2 0,0.1 0,0.1 -0.1,0.2 0,0 -0.1,0.1 -0.2,0.1 z"
   class="st2" />
			<path
   style="fill:#1d1d1b"
   inkscape:connector-curvature="0"
   id="path2495"
   d="m 62.3,-72.1 c -0.1,0 -0.1,0 -0.2,-0.1 0,0 -0.1,-0.1 -0.1,-0.2 0,-0.1 0,-0.1 0.1,-0.2 0.1,-0.1 0.3,-0.1 0.3,0 0,0.1 0.1,0.1 0.1,0.2 0,0.1 0,0.1 -0.1,0.2 0.1,0 0,0.1 -0.1,0.1 z"
   class="st2" />
			<path
   style="fill:#1d1d1b"
   inkscape:connector-curvature="0"
   id="path2497"
   d="m 55.8,-71.9 c -0.1,0 -0.1,0 -0.2,-0.1 -0.1,-0.1 -0.1,-0.1 -0.1,-0.2 0,-0.1 0,-0.1 0.1,-0.2 0.1,-0.1 0.3,-0.1 0.3,0 0,0.1 0.1,0.1 0.1,0.2 0,0.1 0,0.1 -0.1,0.2 0.1,0.1 0,0.1 -0.1,0.1 z"
   class="st2" />
			<path
   style="fill:#1d1d1b"
   inkscape:connector-curvature="0"
   id="path2499"
   d="m 57.8,-70.1 c -0.1,0 -0.1,0 -0.2,-0.1 0,-0.1 -0.1,-0.1 -0.1,-0.2 0,-0.1 0,-0.1 0.1,-0.2 0.1,-0.1 0.3,-0.1 0.3,0 0,0.1 0.1,0.1 0.1,0.2 0,0.1 0,0.1 -0.1,0.2 0.1,0 0,0.1 -0.1,0.1 z"
   class="st2" />
			<path
   style="fill:#1d1d1b"
   inkscape:connector-curvature="0"
   id="path2501"
   d="m 71.3,-58.9 c -0.1,0 -0.1,0 -0.2,-0.1 -0.1,-0.1 -0.1,-0.1 -0.1,-0.2 0,-0.1 0,-0.1 0.1,-0.2 0.1,-0.1 0.3,-0.1 0.3,0 0.1,0.1 0.1,0.1 0.1,0.2 0,0.1 0,0.1 -0.1,0.2 0.1,0.1 0,0.1 -0.1,0.1 z"
   class="st2" />
			<path
   style="fill:#1d1d1b"
   inkscape:connector-curvature="0"
   id="path2503"
   d="m 71.6,-68.1 c -0.1,0 -0.1,0 -0.2,-0.1 0,-0.1 -0.1,-0.1 -0.1,-0.2 0,-0.1 0,-0.1 0.1,-0.2 0.1,-0.1 0.3,-0.1 0.4,0 0,0.1 0.1,0.1 0.1,0.2 0,0.1 0,0.1 -0.1,0.2 -0.1,0 -0.2,0.1 -0.2,0.1 z"
   class="st2" />
			<path
   style="fill:#1d1d1b"
   inkscape:connector-curvature="0"
   id="path2505"
   d="m 28.8,-73.6 c -0.1,0 -0.1,0 -0.2,-0.1 0,0 -0.1,-0.1 -0.1,-0.2 0,-0.1 0,-0.1 0.1,-0.2 0.1,-0.1 0.3,-0.1 0.3,0 0,0.1 0.1,0.1 0.1,0.2 0,0.1 0,0.1 -0.1,0.2 0.1,0 0,0.1 -0.1,0.1 z"
   class="st2" />
			<path
   style="fill:#1d1d1b"
   inkscape:connector-curvature="0"
   id="path2507"
   d="m 15.1,-71.1 c -0.1,0 -0.1,0 -0.2,-0.1 -0.1,-0.1 -0.1,-0.1 -0.1,-0.2 0,-0.1 0,-0.1 0.1,-0.2 0.1,-0.1 0.3,-0.1 0.3,0 0,0.1 0.1,0.1 0.1,0.2 0,0.1 0,0.1 -0.1,0.2 0,0 -0.1,0.1 -0.1,0.1 z"
   class="st2" />
			<path
   style="fill:#1d1d1b"
   inkscape:connector-curvature="0"
   id="path2509"
   d="m 8.3,-72.4 c -0.1,0 -0.1,0 -0.2,-0.1 0,-0.1 -0.1,-0.1 -0.1,-0.2 0,-0.1 0,-0.1 0.1,-0.2 0.1,-0.1 0.3,-0.1 0.4,0 0,0 0.1,0.1 0.1,0.2 0,0.1 0,0.1 -0.1,0.2 0,0.1 -0.1,0.1 -0.2,0.1 z"
   class="st2" />
			<path
   style="fill:#1d1d1b"
   inkscape:connector-curvature="0"
   id="path2511"
   d="m 66.7,-39 c -0.1,0 -0.1,0 -0.2,-0.1 0,-0.1 -0.1,-0.1 -0.1,-0.2 0,-0.1 0,-0.1 0.1,-0.2 0.1,-0.1 0.3,-0.1 0.4,0 0,0 0.1,0.1 0.1,0.2 0,0.1 0,0.1 -0.1,0.2 0,0 -0.1,0.1 -0.2,0.1 z"
   class="st2" />
			<path
   style="fill:#1d1d1b"
   inkscape:connector-curvature="0"
   id="path2513"
   d="m 63.8,-50.1 c -0.1,0 -0.1,0 -0.2,-0.1 0,-0.1 -0.1,-0.1 -0.1,-0.2 0,-0.1 0,-0.1 0.1,-0.2 0.1,-0.1 0.3,-0.1 0.4,0 0,0 0.1,0.1 0.1,0.2 0,0.1 0,0.1 -0.1,0.2 0,0 -0.1,0.1 -0.2,0.1 z"
   class="st2" />
			<path
   style="fill:#1d1d1b"
   inkscape:connector-curvature="0"
   id="path2515"
   d="m 46.3,-59.1 c -0.1,0 -0.1,0 -0.2,-0.1 0,0 -0.1,-0.1 -0.1,-0.2 0,-0.1 0,-0.1 0.1,-0.2 0.1,-0.1 0.2,-0.1 0.3,0 0,0.1 0.1,0.1 0.1,0.2 0,0.1 0,0.1 -0.1,0.2 0.1,0 0,0.1 -0.1,0.1 z"
   class="st2" />
			<path
   style="fill:#1d1d1b"
   inkscape:connector-curvature="0"
   id="path2517"
   d="m 50.1,-50.4 c -0.1,0 -0.1,0 -0.2,-0.1 0,0 -0.1,-0.1 -0.1,-0.2 0,-0.1 0,-0.1 0.1,-0.2 0.1,-0.1 0.3,-0.1 0.3,0 0,0 0.1,0.1 0.1,0.2 0,0.1 0,0.1 -0.1,0.2 0,0.1 -0.1,0.1 -0.1,0.1 z"
   class="st2" />
			<path
   style="fill:#1d1d1b"
   inkscape:connector-curvature="0"
   id="path2519"
   d="m 37.8,-45.6 c -0.1,0 -0.1,0 -0.2,-0.1 -0.1,-0.1 -0.1,-0.1 -0.1,-0.2 0,-0.1 0,-0.1 0.1,-0.2 0.1,-0.1 0.3,-0.1 0.3,0 0,0.1 0.1,0.1 0.1,0.2 0,0.1 0,0.1 -0.1,0.2 0.1,0 0,0.1 -0.1,0.1 z"
   class="st2" />
			<path
   style="fill:#1d1d1b"
   inkscape:connector-curvature="0"
   id="path2521"
   d="m 54.6,-44.6 c -0.1,0 -0.1,0 -0.2,-0.1 0,0 -0.1,-0.1 -0.1,-0.2 0,-0.1 0,-0.1 0.1,-0.2 0.1,-0.1 0.3,-0.1 0.3,0 0,0 0.1,0.1 0.1,0.2 0,0.1 0,0.1 -0.1,0.2 0,0 -0.1,0.1 -0.1,0.1 z"
   class="st2" />
			<path
   style="fill:#1d1d1b"
   inkscape:connector-curvature="0"
   id="path2523"
   d="m 61.1,-36.1 c -0.1,0 -0.1,0 -0.2,-0.1 0,0 -0.1,-0.1 -0.1,-0.2 0,-0.1 0,-0.1 0.1,-0.2 0.1,-0.1 0.3,-0.1 0.3,0 0,0.1 0.1,0.1 0.1,0.2 0,0.1 0,0.1 -0.1,0.2 0,0 -0.1,0.1 -0.1,0.1 z"
   class="st2" />
			<path
   style="fill:#1d1d1b"
   inkscape:connector-curvature="0"
   id="path2525"
   d="m 48.8,-32.9 c -0.1,0 -0.1,0 -0.2,-0.1 -0.1,-0.1 -0.1,-0.1 -0.1,-0.2 0,-0.1 0,-0.1 0.1,-0.2 0.1,-0.1 0.3,-0.1 0.3,0 0,0.1 0.1,0.1 0.1,0.2 0,0.1 0,0.1 -0.1,0.2 0.1,0.1 0,0.1 -0.1,0.1 z"
   class="st2" />
			<path
   style="fill:#1d1d1b"
   inkscape:connector-curvature="0"
   id="path2527"
   d="m 32.2,-21 c -0.1,0 -0.1,0 -0.2,-0.1 0,-0.1 0,-0.1 0,-0.2 0,-0.1 0,-0.1 0.1,-0.2 0.1,-0.1 0.3,-0.1 0.4,0 0,0 0.1,0.1 0.1,0.2 0,0.1 0,0.1 -0.1,0.2 -0.1,0 -0.2,0.1 -0.3,0.1 z"
   class="st2" />
			<path
   style="fill:#1d1d1b"
   inkscape:connector-curvature="0"
   id="path2529"
   d="m 33.3,-39.4 c -0.1,0 -0.1,0 -0.2,-0.1 -0.1,-0.1 -0.1,-0.1 -0.1,-0.2 0,-0.1 0,-0.1 0.1,-0.2 0.1,-0.1 0.3,-0.1 0.3,0 0,0.1 0.1,0.1 0.1,0.2 0,0.1 0,0.1 -0.1,0.2 0.1,0.1 0,0.1 -0.1,0.1 z"
   class="st2" />
			<path
   style="fill:#1d1d1b"
   inkscape:connector-curvature="0"
   id="path2531"
   d="m 27.7,-41 c -0.1,0 -0.1,0 -0.2,-0.1 -0.1,-0.1 -0.1,-0.1 -0.1,-0.2 0,-0.1 0,-0.1 0.1,-0.2 0.1,-0.1 0.3,-0.1 0.4,0 0,0 0.1,0.1 0.1,0.2 0,0.1 0,0.1 -0.1,0.2 0,0 -0.1,0.1 -0.2,0.1 z"
   class="st2" />
			<path
   style="fill:#1d1d1b"
   inkscape:connector-curvature="0"
   id="path2533"
   d="m 32.3,-50.9 c -0.1,0 -0.1,0 -0.2,-0.1 -0.1,-0.1 -0.1,-0.1 -0.1,-0.2 0,-0.1 0,-0.1 0.1,-0.2 0.1,-0.1 0.3,-0.1 0.3,0 0,0.1 0.1,0.1 0.1,0.2 0,0.1 0,0.1 -0.1,0.2 0.1,0.1 0,0.1 -0.1,0.1 z"
   class="st2" />
			<path
   style="fill:#1d1d1b"
   inkscape:connector-curvature="0"
   id="path2535"
   d="m 17.6,-51.6 c -0.1,0 -0.1,0 -0.2,-0.1 0,-0.1 -0.1,-0.1 -0.1,-0.2 0,-0.1 0,-0.1 0.1,-0.2 0.1,-0.1 0.3,-0.1 0.3,0 0,0.1 0.1,0.1 0.1,0.2 0,0.1 0,0.1 -0.1,0.2 0,0 -0.1,0.1 -0.1,0.1 z"
   class="st2" />
			<path
   style="fill:#1d1d1b"
   inkscape:connector-curvature="0"
   id="path2537"
   d="m 13.1,-60.1 c -0.1,0 -0.1,0 -0.2,-0.1 -0.1,-0.1 -0.1,-0.1 -0.1,-0.2 0,-0.1 0,-0.1 0.1,-0.2 0.1,-0.1 0.3,-0.1 0.3,0 0,0.1 0.1,0.1 0.1,0.2 0,0.1 0,0.1 -0.1,0.2 0,0 -0.1,0.1 -0.1,0.1 z"
   class="st2" />
			<path
   style="fill:#1d1d1b"
   inkscape:connector-curvature="0"
   id="path2539"
   d="m 65.7,-32.3 c -0.1,0 -0.1,0 -0.2,-0.1 0,-0.1 -0.1,-0.1 -0.1,-0.2 0,-0.1 0,-0.1 0.1,-0.2 0.1,-0.1 0.3,-0.1 0.4,0 0,0 0.1,0.1 0.1,0.2 0,0.1 0,0.1 -0.1,0.2 0,0.1 -0.1,0.1 -0.2,0.1 z"
   class="st2" />
			<path
   style="fill:#1d1d1b"
   inkscape:connector-curvature="0"
   id="path2541"
   d="m 70.8,-45.9 c -0.1,0 -0.1,0 -0.2,-0.1 0,0 -0.1,-0.1 -0.1,-0.2 0,-0.1 0,-0.1 0.1,-0.2 0.1,-0.1 0.3,-0.1 0.4,0 0,0 0.1,0.1 0.1,0.2 0,0.1 0,0.1 -0.1,0.2 0,0.1 -0.1,0.1 -0.2,0.1 z"
   class="st2" />
			<path
   style="fill:#1d1d1b"
   inkscape:connector-curvature="0"
   id="path2543"
   d="m 64.6,-46.1 c -0.1,0 -0.1,0 -0.2,-0.1 0,-0.1 -0.1,-0.1 -0.1,-0.2 0,-0.1 0,-0.1 0.1,-0.2 0.1,-0.1 0.3,-0.1 0.4,0 0,0 0.1,0.1 0.1,0.2 0,0.1 0,0.1 -0.1,0.2 -0.1,0 -0.2,0.1 -0.2,0.1 z"
   class="st2" />
			<path
   style="fill:#1d1d1b"
   inkscape:connector-curvature="0"
   id="path2545"
   d="m 71.6,-54.9 c -0.1,0 -0.1,0 -0.2,-0.1 -0.1,-0.1 -0.1,-0.1 -0.1,-0.2 0,-0.1 0,-0.1 0.1,-0.2 0.1,-0.1 0.3,-0.1 0.4,0 0,0 0.1,0.1 0.1,0.2 0,0.1 0,0.1 -0.1,0.2 -0.1,0.1 -0.2,0.1 -0.2,0.1 z"
   class="st2" />
			<path
   style="fill:#1d1d1b"
   inkscape:connector-curvature="0"
   id="path2547"
   d="m 67.8,-54.1 c -0.1,0 -0.1,0 -0.2,-0.1 -0.1,-0.1 -0.1,-0.1 -0.1,-0.2 0,-0.1 0,-0.1 0.1,-0.2 0.1,-0.1 0.3,-0.1 0.3,0 0,0.1 0.1,0.1 0.1,0.2 0,0.1 0,0.1 -0.1,0.2 0.1,0 0,0.1 -0.1,0.1 z"
   class="st2" />
			<path
   style="fill:#1d1d1b"
   inkscape:connector-curvature="0"
   id="path2549"
   d="m 73.8,-73.6 c -0.1,0 -0.1,0 -0.2,-0.1 -0.1,-0.1 -0.1,-0.1 -0.1,-0.2 0,-0.1 0,-0.1 0.1,-0.2 0.1,-0.1 0.3,-0.1 0.3,0 0,0.1 0.1,0.1 0.1,0.2 0,0.1 0,0.1 -0.1,0.2 0.1,0 0,0.1 -0.1,0.1 z"
   class="st2" />
			<path
   style="fill:#1d1d1b"
   inkscape:connector-curvature="0"
   id="path2551"
   d="m 39.3,-72.6 c -0.1,0 -0.1,0 -0.2,-0.1 -0.1,-0.1 -0.1,-0.1 -0.1,-0.2 0,-0.1 0,-0.1 0.1,-0.2 0.1,-0.1 0.3,-0.1 0.3,0 0,0.1 0.1,0.1 0.1,0.2 0,0.1 0,0.1 -0.1,0.2 0.1,0 0,0.1 -0.1,0.1 z"
   class="st2" />
			<path
   style="fill:#1d1d1b"
   inkscape:connector-curvature="0"
   id="path2553"
   d="m 53.1,-52.9 c -0.1,0 -0.1,0 -0.2,-0.1 0,0 -0.1,-0.1 -0.1,-0.2 0,-0.1 0,-0.1 0.1,-0.2 0.1,-0.1 0.2,-0.1 0.3,0 0,0.1 0.1,0.1 0.1,0.2 0,0.1 0,0.1 -0.1,0.2 0,0.1 -0.1,0.1 -0.1,0.1 z"
   class="st2" />
			<path
   style="fill:#1d1d1b"
   inkscape:connector-curvature="0"
   id="path2555"
   d="m 10.8,-31.9 c -0.1,0 -0.1,0 -0.2,-0.1 -0.1,-0.1 -0.1,-0.1 -0.1,-0.2 0,-0.1 0,-0.1 0.1,-0.2 0.1,-0.1 0.3,-0.1 0.3,0 0,0.1 0.1,0.1 0.1,0.2 0,0.1 0,0.1 -0.1,0.2 0.1,0.1 0,0.1 -0.1,0.1 z"
   class="st2" />
			<path
   style="fill:#1d1d1b"
   inkscape:connector-curvature="0"
   id="path2557"
   d="m 70.3,-29.9 c -0.1,0 -0.1,0 -0.2,-0.1 -0.1,-0.1 -0.1,-0.1 -0.1,-0.2 0,-0.1 0,-0.1 0.1,-0.2 0.1,-0.1 0.3,-0.1 0.3,0 0,0.1 0.1,0.1 0.1,0.2 0,0.1 0,0.1 -0.1,0.2 0.1,0.1 0,0.1 -0.1,0.1 z"
   class="st2" />
			<path
   style="fill:#1d1d1b"
   inkscape:connector-curvature="0"
   id="path2559"
   d="m 72.1,-38.1 c -0.1,0 -0.1,0 -0.2,-0.1 -0.1,-0.1 -0.1,-0.1 -0.1,-0.2 0,-0.1 0,-0.1 0.1,-0.2 0.1,-0.1 0.3,-0.1 0.4,0 0,0.1 0.1,0.1 0.1,0.2 0,0.1 0,0.1 -0.1,0.2 -0.1,0 -0.2,0.1 -0.2,0.1 z"
   class="st2" />
			<path
   style="fill:#1d1d1b"
   inkscape:connector-curvature="0"
   id="path2561"
   d="m 46.8,-38.9 c -0.1,0 -0.1,0 -0.2,-0.1 0,0 -0.1,-0.1 -0.1,-0.2 0,-0.1 0,-0.1 0.1,-0.2 0.1,-0.1 0.2,-0.1 0.3,0 0,0.1 0.1,0.1 0.1,0.2 0,0.1 0,0.1 -0.1,0.2 0.1,0.1 0,0.1 -0.1,0.1 z"
   class="st2" />
			<path
   style="fill:#1d1d1b"
   inkscape:connector-curvature="0"
   id="path2563"
   d="m 47.5,-46.5 c -0.1,0 -0.1,0 -0.2,-0.1 0,-0.1 -0.1,-0.1 -0.1,-0.2 0,-0.1 0,-0.1 0.1,-0.2 0.1,-0.1 0.3,-0.1 0.3,0 0,0 0.1,0.1 0.1,0.2 0,0.1 0,0.1 -0.1,0.2 0,0 0,0.1 -0.1,0.1 z"
   class="st2" />
			<path
   style="fill:#1d1d1b"
   inkscape:connector-curvature="0"
   id="path2565"
   d="m 27.2,-22 c -0.1,0 -0.1,0 -0.2,-0.1 0,-0.1 0,-0.1 0,-0.2 0,-0.1 0,-0.1 0.1,-0.2 0.1,-0.1 0.3,-0.1 0.4,0 0.1,0.1 0.1,0.1 0.1,0.2 0,0.1 0,0.1 -0.1,0.2 -0.1,0 -0.2,0.1 -0.3,0.1 z"
   class="st2" />
			<path
   style="fill:#1d1d1b"
   inkscape:connector-curvature="0"
   id="path2567"
   d="m 24.6,-43.1 c -0.1,0 -0.1,0 -0.2,-0.1 -0.1,0 -0.1,-0.1 -0.1,-0.2 0,-0.1 0,-0.1 0.1,-0.2 0.1,-0.1 0.3,-0.1 0.3,0 0.1,0.1 0.1,0.1 0.1,0.2 0,0.1 0,0.1 -0.1,0.2 0,0.1 0,0.1 -0.1,0.1 z"
   class="st2" />
			<path
   style="fill:#1d1d1b"
   inkscape:connector-curvature="0"
   id="path2569"
   d="m 47.3,-42.9 c -0.1,0 -0.1,0 -0.2,-0.1 -0.1,0 -0.1,-0.1 -0.1,-0.2 0,-0.1 0,-0.1 0.1,-0.2 0.1,-0.1 0.2,-0.1 0.3,0 0,0 0.1,0.1 0.1,0.2 0,0.1 0,0.1 -0.1,0.2 0.1,0.1 0,0.1 -0.1,0.1 z"
   class="st2" />
			<path
   style="fill:#1d1d1b"
   inkscape:connector-curvature="0"
   id="path2571"
   d="m 72.5,-15.5 c -0.1,0 -0.1,0 -0.2,-0.1 0,-0.1 -0.1,-0.1 -0.1,-0.2 0,-0.1 0,-0.1 0.1,-0.2 0.1,-0.1 0.3,-0.1 0.4,0 0,0 0.1,0.1 0.1,0.2 0,0.1 0,0.1 -0.1,0.2 -0.1,0 -0.1,0.1 -0.2,0.1 z"
   class="st2" />
			<path
   style="fill:#1d1d1b"
   inkscape:connector-curvature="0"
   id="path2573"
   d="m 54.7,-50.8 c -0.1,0 -0.1,0 -0.2,-0.1 0,0 -0.1,-0.1 -0.1,-0.2 0,-0.1 0,-0.1 0.1,-0.2 0.1,-0.1 0.3,-0.1 0.4,0 0,0 0.1,0.1 0.1,0.2 0,0.1 0,0.1 -0.1,0.2 0,0.1 -0.1,0.1 -0.2,0.1 z"
   class="st2" />
			<path
   style="fill:#1d1d1b"
   inkscape:connector-curvature="0"
   id="path2575"
   d="m 47.7,-26.3 c -0.1,0 -0.1,0 -0.2,-0.1 0,-0.1 -0.1,-0.1 -0.1,-0.2 0,-0.1 0,-0.1 0.1,-0.2 0.1,-0.1 0.3,-0.1 0.4,0 0,0 0.1,0.1 0.1,0.2 0,0.1 0,0.1 -0.1,0.2 0,0.1 -0.1,0.1 -0.2,0.1 z"
   class="st2" />
			<path
   style="fill:#1d1d1b"
   inkscape:connector-curvature="0"
   id="path2577"
   d="m 32.6,-42.6 c -0.1,0 -0.1,0 -0.2,-0.1 0,0 -0.1,-0.1 -0.1,-0.2 0,-0.1 0,-0.1 0.1,-0.2 0.1,-0.1 0.3,-0.1 0.3,0 0,0 0.1,0.1 0.1,0.2 0,0.1 0,0.1 -0.1,0.2 0,0.1 0,0.1 -0.1,0.1 z"
   class="st2" />
			<path
   style="fill:#1d1d1b"
   inkscape:connector-curvature="0"
   id="path2579"
   d="m 16,-26.3 c -0.1,0 -0.1,0 -0.2,-0.1 0,-0.1 -0.1,-0.1 -0.1,-0.2 0,-0.1 0,-0.1 0.1,-0.2 0.1,-0.1 0.3,-0.1 0.4,0 0,0 0.1,0.1 0.1,0.2 0,0.1 0,0.1 -0.1,0.2 -0.1,0.1 -0.1,0.1 -0.2,0.1 z"
   class="st2" />
			<path
   style="fill:#1d1d1b"
   inkscape:connector-curvature="0"
   id="path2581"
   d="m 28.1,-33.9 c -0.1,0 -0.1,0 -0.2,-0.1 -0.1,0 -0.1,-0.1 -0.1,-0.2 0,-0.1 0,-0.1 0.1,-0.2 0.1,-0.1 0.3,-0.1 0.3,0 0,0 0.1,0.1 0.1,0.2 0,0.1 0,0.1 -0.1,0.2 0,0.1 0,0.1 -0.1,0.1 z"
   class="st2" />
			<path
   style="fill:#1d1d1b"
   inkscape:connector-curvature="0"
   id="path2583"
   d="m 22.6,-38.1 c -0.1,0 -0.1,0 -0.2,-0.1 -0.1,0 -0.1,-0.1 -0.1,-0.2 0,-0.1 0,-0.1 0.1,-0.2 0.1,-0.1 0.3,-0.1 0.3,0 0,0 0.1,0.1 0.1,0.2 0,0.1 0,0.1 -0.1,0.2 0,0.1 0,0.1 -0.1,0.1 z"
   class="st2" />
			<path
   style="fill:#1d1d1b"
   inkscape:connector-curvature="0"
   id="path2585"
   d="m 22.1,-30.1 c -0.1,0 -0.1,0 -0.2,-0.1 -0.1,0 -0.1,-0.1 -0.1,-0.2 0,-0.1 0,-0.1 0.1,-0.2 0.1,-0.1 0.3,-0.1 0.3,0 0,0 0.1,0.1 0.1,0.2 0,0.1 0,0.1 -0.1,0.2 0,0.1 0,0.1 -0.1,0.1 z"
   class="st2" />
			<path
   style="fill:#1d1d1b"
   inkscape:connector-curvature="0"
   id="path2587"
   d="m 40.8,-28.1 c -0.1,0 -0.1,0 -0.2,-0.1 0,0 -0.1,-0.1 -0.1,-0.2 0,-0.1 0,-0.1 0.1,-0.2 0.1,-0.1 0.3,-0.1 0.3,0 0,0 0.1,0.1 0.1,0.2 0,0.1 0,0.1 -0.1,0.2 0.1,0.1 0,0.1 -0.1,0.1 z"
   class="st2" />
			<path
   style="fill:#1d1d1b"
   inkscape:connector-curvature="0"
   id="path2589"
   d="m 47.3,-19.6 c -0.1,0 -0.1,0 -0.2,-0.1 0,0 -0.1,-0.1 -0.1,-0.2 0,-0.1 0,-0.1 0.1,-0.2 0.1,-0.1 0.3,-0.1 0.3,0 0,0.1 0.1,0.1 0.1,0.2 0,0.1 0,0.1 -0.1,0.2 0.1,0.1 0,0.1 -0.1,0.1 z"
   class="st2" />
			<path
   style="fill:#1d1d1b"
   inkscape:connector-curvature="0"
   id="path2591"
   d="m 35.1,-16.4 c -0.1,0 -0.1,0 -0.2,-0.1 -0.1,-0.1 -0.1,-0.1 -0.1,-0.2 0,-0.1 0,-0.1 0.1,-0.2 0.1,-0.1 0.3,-0.1 0.3,0 0,0 0.1,0.1 0.1,0.2 0,0.1 0,0.1 -0.1,0.2 0,0.1 0,0.1 -0.1,0.1 z"
   class="st2" />
			<path
   style="fill:#1d1d1b"
   inkscape:connector-curvature="0"
   id="path2593"
   d="m 13.7,-20.5 c -0.1,0 -0.1,0 -0.2,-0.1 -0.1,-0.1 -0.1,-0.1 -0.1,-0.2 0,-0.1 0,-0.1 0.1,-0.2 0.1,-0.1 0.3,-0.1 0.4,0 0,0 0.1,0.1 0.1,0.2 0,0.1 0,0.1 -0.1,0.2 0,0 -0.1,0.1 -0.2,0.1 z"
   class="st2" />
			<path
   style="fill:#1d1d1b"
   inkscape:connector-curvature="0"
   id="path2595"
   d="m 23.3,-15.9 c -0.1,0 -0.1,0 -0.2,-0.1 0,0 -0.1,-0.1 -0.1,-0.2 0,-0.1 0,-0.1 0.1,-0.2 0.1,-0.1 0.3,-0.1 0.3,0 0,0 0.1,0.1 0.1,0.2 0,0.1 0,0.1 -0.1,0.2 0.1,0.1 0,0.1 -0.1,0.1 z"
   class="st2" />
			<path
   style="fill:#1d1d1b"
   inkscape:connector-curvature="0"
   id="path2597"
   d="m 22,-22.8 c -0.1,0 -0.1,0 -0.2,-0.1 0,-0.1 -0.1,-0.1 -0.1,-0.2 0,-0.1 0,-0.1 0.1,-0.2 0.1,-0.1 0.3,-0.1 0.4,0 0,0 0.1,0.1 0.1,0.2 0,0.1 0,0.1 -0.1,0.2 -0.1,0.1 -0.1,0.1 -0.2,0.1 z"
   class="st2" />
			<path
   style="fill:#1d1d1b"
   inkscape:connector-curvature="0"
   id="path2599"
   d="m 31,-37.3 c -0.1,0 -0.1,0 -0.2,-0.1 0,-0.1 -0.1,-0.1 -0.1,-0.2 0,-0.1 0,-0.1 0.1,-0.2 0.1,-0.1 0.3,-0.1 0.4,0 0,0 0.1,0.1 0.1,0.2 0,0.1 0,0.1 -0.1,0.2 -0.1,0.1 -0.1,0.1 -0.2,0.1 z"
   class="st2" />
			<path
   style="fill:#1d1d1b"
   inkscape:connector-curvature="0"
   id="path2601"
   d="m 51.6,-17.4 c -0.1,0 -0.1,0 -0.2,-0.1 0,0 -0.1,-0.1 -0.1,-0.2 0,-0.1 0,-0.1 0.1,-0.2 0.1,-0.1 0.3,-0.1 0.3,0 0.1,0.1 0.1,0.1 0.1,0.2 0,0.1 0,0.1 -0.1,0.2 0,0.1 0,0.1 -0.1,0.1 z"
   class="st2" />
			<path
   style="fill:#1d1d1b"
   inkscape:connector-curvature="0"
   id="path2603"
   d="m 57.1,-29.4 c -0.1,0 -0.1,0 -0.2,-0.1 0,0 -0.1,-0.1 -0.1,-0.2 0,-0.1 0,-0.1 0.1,-0.2 0.1,-0.1 0.3,-0.1 0.4,0 0.1,0 0.1,0.1 0.1,0.2 0,0.1 0,0.1 -0.1,0.2 -0.1,0.1 -0.1,0.1 -0.2,0.1 z"
   class="st2" />
			<path
   style="fill:#1d1d1b"
   inkscape:connector-curvature="0"
   id="path2605"
   d="m 50.8,-29.6 c -0.1,0 -0.1,0 -0.2,-0.1 -0.1,0 -0.1,-0.1 -0.1,-0.2 0,-0.1 0,-0.1 0.1,-0.2 0.1,-0.1 0.2,-0.1 0.3,0 0,0 0.1,0.1 0.1,0.2 0,0.1 0,0.1 -0.1,0.2 0.1,0.1 0,0.1 -0.1,0.1 z"
   class="st2" />
			<path
   style="fill:#1d1d1b"
   inkscape:connector-curvature="0"
   id="path2607"
   d="m 66,-17.5 c -0.1,0 -0.1,0 -0.2,-0.1 -0.1,-0.1 -0.1,-0.1 -0.1,-0.2 0,-0.1 0,-0.1 0.1,-0.2 0.1,-0.1 0.3,-0.1 0.4,0 0,0 0.1,0.1 0.1,0.2 0,0.1 0,0.1 -0.1,0.2 -0.1,0 -0.1,0.1 -0.2,0.1 z"
   class="st2" />
			<path
   style="fill:#1d1d1b"
   inkscape:connector-curvature="0"
   id="path2609"
   d="m 54.1,-37.6 c -0.1,0 -0.1,0 -0.2,-0.1 -0.1,0 -0.1,-0.1 -0.1,-0.2 0,-0.1 0,-0.1 0.1,-0.2 0.1,-0.1 0.3,-0.1 0.4,0 0,0 0.1,0.1 0.1,0.2 0,0.1 0,0.1 -0.1,0.2 -0.1,0.1 -0.1,0.1 -0.2,0.1 z"
   class="st2" />
			<path
   style="fill:#1d1d1b"
   inkscape:connector-curvature="0"
   id="path2611"
   d="m 39.3,-36.4 c -0.1,0 -0.1,0 -0.2,-0.1 0,0 -0.1,-0.1 -0.1,-0.2 0,-0.1 0,-0.1 0.1,-0.2 0.1,-0.1 0.3,-0.1 0.3,0 0,0 0.1,0.1 0.1,0.2 0,0.1 0,0.1 -0.1,0.2 0.1,0.1 0,0.1 -0.1,0.1 z"
   class="st2" />
			<path
   style="fill:#1d1d1b"
   inkscape:connector-curvature="0"
   id="path2613"
   d="m 56.6,-13.4 c -0.1,0 -0.1,0 -0.2,-0.1 0,0 -0.1,-0.1 -0.1,-0.2 0,-0.1 0,-0.1 0.1,-0.2 0.1,-0.1 0.3,-0.1 0.3,0 0,0 0.1,0.1 0.1,0.2 0,0.1 0,0.1 -0.1,0.2 0,0.1 0,0.1 -0.1,0.1 z"
   class="st2" />
			<path
   style="fill:#1d1d1b"
   inkscape:connector-curvature="0"
   id="path2615"
   d="m 56.5,-22.5 c -0.1,0 -0.1,0 -0.2,-0.1 0,-0.1 -0.1,-0.1 -0.1,-0.2 0,-0.1 0,-0.1 0.1,-0.2 0.1,-0.1 0.3,-0.1 0.3,0 0,0 0.1,0.1 0.1,0.2 0,0.1 0,0.1 -0.1,0.2 0,0 0,0.1 -0.1,0.1 z"
   class="st2" />
			<path
   style="fill:#1d1d1b"
   inkscape:connector-curvature="0"
   id="path2617"
   d="m 36.7,-25 c -0.1,0 -0.1,0 -0.2,-0.1 -0.1,-0.1 -0.1,-0.1 -0.1,-0.2 0,-0.1 0,-0.1 0.1,-0.2 0.1,-0.1 0.3,-0.1 0.4,0 0,0 0.1,0.1 0.1,0.2 0,0.1 0,0.1 -0.1,0.2 0,0 -0.1,0.1 -0.2,0.1 z"
   class="st2" />
			<path
   style="fill:#1d1d1b"
   inkscape:connector-curvature="0"
   id="path2619"
   d="m 12,-36.5 c -0.1,0 -0.1,0 -0.2,-0.1 -0.1,-0.1 -0.1,-0.1 -0.1,-0.2 0,-0.1 0,-0.1 0.1,-0.2 0.1,-0.1 0.3,-0.1 0.4,0 0.1,0.1 0.1,0.1 0.1,0.2 0,0.1 0,0.1 -0.1,0.2 -0.1,0 -0.1,0.1 -0.2,0.1 z"
   class="st2" />
			<path
   style="fill:#1d1d1b"
   inkscape:connector-curvature="0"
   id="path2621"
   d="m 8,-41.8 c -0.1,0 -0.1,0 -0.2,-0.1 0,-0.1 -0.1,-0.1 -0.1,-0.2 0,-0.1 0,-0.1 0.1,-0.2 0.1,-0.1 0.3,-0.1 0.4,0 0.1,0.1 0.1,0.1 0.1,0.2 0,0.1 0,0.1 -0.1,0.2 -0.1,0.1 -0.1,0.1 -0.2,0.1 z"
   class="st2" />
			<path
   style="fill:#1d1d1b"
   inkscape:connector-curvature="0"
   id="path2623"
   d="m 75,-25.3 c -0.1,0 -0.1,0 -0.2,-0.1 0,-0.1 -0.1,-0.1 -0.1,-0.2 0,-0.1 0,-0.1 0.1,-0.2 0.1,-0.1 0.3,-0.1 0.4,0 0,0 0.1,0.1 0.1,0.2 0,0.1 0,0.1 -0.1,0.2 -0.1,0.1 -0.1,0.1 -0.2,0.1 z"
   class="st2" />
			<path
   style="fill:#1d1d1b"
   inkscape:connector-curvature="0"
   id="path2625"
   d="m 18.5,-12 c -0.1,0 -0.1,0 -0.2,-0.1 0,-0.1 -0.1,-0.1 -0.1,-0.2 0,-0.1 0,-0.1 0.1,-0.2 0.1,-0.1 0.3,-0.1 0.4,0 0,0 0.1,0.1 0.1,0.2 0,0.1 0,0.1 -0.1,0.2 -0.1,0 -0.1,0.1 -0.2,0.1 z"
   class="st2" />
			<path
   style="fill:#1d1d1b"
   inkscape:connector-curvature="0"
   id="path2627"
   d="m 14.5,-7.3 c -0.1,0 -0.1,0 -0.2,-0.1 0,-0.1 -0.1,-0.1 -0.1,-0.2 0,-0.1 0,-0.1 0.1,-0.2 0.1,-0.1 0.3,-0.1 0.4,0 0,0 0.1,0.1 0.1,0.2 0,0.1 0,0.1 -0.1,0.2 -0.1,0.1 -0.1,0.1 -0.2,0.1 z"
   class="st2" />
			<path
   style="fill:#1d1d1b"
   inkscape:connector-curvature="0"
   id="path2629"
   d="m 16.5,-15.3 c -0.1,0 -0.1,0 -0.2,-0.1 0,-0.1 -0.1,-0.1 -0.1,-0.2 0,-0.1 0,-0.1 0.1,-0.2 0.1,-0.1 0.3,-0.1 0.4,0 0.1,0 0.1,0.1 0.1,0.2 0,0.1 0,0.1 -0.1,0.2 -0.1,0.1 -0.1,0.1 -0.2,0.1 z"
   class="st2" />
			<path
   style="fill:#1d1d1b"
   inkscape:connector-curvature="0"
   id="path2631"
   d="m 24,-8.8 c -0.1,0 -0.1,0 -0.2,-0.1 0,-0.1 -0.1,-0.1 -0.1,-0.2 0,-0.1 0,-0.1 0.1,-0.2 0.1,-0.1 0.3,-0.1 0.4,0 0,0 0.1,0.1 0.1,0.2 0,0.1 0,0.1 -0.1,0.2 -0.1,0.1 -0.1,0.1 -0.2,0.1 z"
   class="st2" />
			<path
   style="fill:#1d1d1b"
   inkscape:connector-curvature="0"
   id="path2633"
   d="m 30.7,-6.3 c -0.1,0 -0.1,0 -0.2,-0.1 -0.1,-0.1 -0.1,-0.1 -0.1,-0.2 0,-0.1 0,-0.1 0.1,-0.2 0.1,-0.1 0.3,-0.1 0.4,0 0,0 0.1,0.1 0.1,0.2 0,0.1 0,0.1 -0.1,0.2 0,0.1 -0.1,0.1 -0.2,0.1 z"
   class="st2" />
			<path
   style="fill:#1d1d1b"
   inkscape:connector-curvature="0"
   id="path2635"
   d="m 35,-10.3 c -0.1,0 -0.1,0 -0.2,-0.1 0,-0.1 -0.1,-0.1 -0.1,-0.2 0,-0.1 0,-0.1 0.1,-0.2 0.1,-0.1 0.3,-0.1 0.3,0 0,0.1 0.1,0.1 0.1,0.2 0,0.1 0,0.1 -0.1,0.2 0,0.1 0,0.1 -0.1,0.1 z"
   class="st2" />
			<path
   style="fill:#1d1d1b"
   inkscape:connector-curvature="0"
   id="path2637"
   d="m 76,-44.8 c -0.1,0 -0.1,0 -0.2,-0.1 0,-0.1 -0.1,-0.1 -0.1,-0.2 0,-0.1 0,-0.1 0.1,-0.2 0.1,-0.1 0.3,-0.1 0.3,0 0,0 0.1,0.1 0.1,0.2 0,0.1 0,0.1 -0.1,0.2 0,0.1 0,0.1 -0.1,0.1 z"
   class="st2" />
			<path
   style="fill:#1d1d1b"
   inkscape:connector-curvature="0"
   id="path2639"
   d="m 62,-30 c -0.1,0 -0.1,0 -0.2,-0.1 0,-0.1 -0.1,-0.1 -0.1,-0.2 0,-0.1 0,-0.1 0.1,-0.2 0.1,-0.1 0.3,-0.1 0.4,0 0,0.1 0.1,0.1 0.1,0.2 0,0.1 0,0.1 -0.1,0.2 -0.1,0 -0.1,0.1 -0.2,0.1 z"
   class="st2" />
			<path
   style="fill:#1d1d1b"
   inkscape:connector-curvature="0"
   id="path2641"
   d="m 44,-7.3 c -0.1,0 -0.1,0 -0.2,-0.1 0,0 -0.1,-0.1 -0.1,-0.2 0,-0.1 0,-0.1 0.1,-0.2 0.1,-0.1 0.2,-0.1 0.3,0 0.1,0 0.1,0.1 0.1,0.2 0,0.1 0,0.1 -0.1,0.2 0,0.1 0,0.1 -0.1,0.1 z"
   class="st2" />
			<path
   style="fill:#1d1d1b"
   inkscape:connector-curvature="0"
   id="path2643"
   d="m 54,-6.3 c -0.1,0 -0.1,0 -0.2,-0.1 0,-0.1 -0.1,-0.1 -0.1,-0.2 0,-0.1 0,-0.1 0.1,-0.2 0.1,-0.1 0.3,-0.1 0.3,0 0,0 0.1,0.1 0.1,0.2 0,0.1 0,0.1 -0.1,0.2 0,0.1 0,0.1 -0.1,0.1 z"
   class="st2" />
			<path
   style="fill:#1d1d1b"
   inkscape:connector-curvature="0"
   id="path2645"
   d="m 69,-8.8 c -0.1,0 -0.1,0 -0.2,-0.1 0,-0.1 -0.1,-0.1 -0.1,-0.2 0,-0.1 0,-0.1 0.1,-0.2 0.1,-0.1 0.2,-0.1 0.3,0 0,0 0.1,0.1 0.1,0.2 0,0.1 0,0.1 -0.1,0.2 0,0.1 0,0.1 -0.1,0.1 z"
   class="st2" />
			<path
   style="fill:#1d1d1b"
   inkscape:connector-curvature="0"
   id="path2647"
   d="m 59.5,-5.3 c -0.1,0 -0.1,0 -0.2,-0.1 0,0 -0.1,-0.1 -0.1,-0.2 0,-0.1 0,-0.1 0.1,-0.2 0.1,-0.1 0.3,-0.1 0.3,0 0,0 0.1,0.1 0.1,0.2 0,0.1 0,0.1 -0.1,0.2 0,0.1 0,0.1 -0.1,0.1 z"
   class="st2" />
			<path
   style="fill:#1d1d1b"
   inkscape:connector-curvature="0"
   id="path2649"
   d="m 39,-8.3 c -0.1,0 -0.1,0 -0.2,-0.1 0,-0.1 -0.1,-0.1 -0.1,-0.2 0,-0.1 0,-0.1 0.1,-0.2 0.1,-0.1 0.3,-0.1 0.3,0 0,0.1 0.1,0.1 0.1,0.2 0,0.1 0,0.1 -0.1,0.2 0,0.1 0,0.1 -0.1,0.1 z"
   class="st2" />
			<path
   style="fill:#1d1d1b"
   inkscape:connector-curvature="0"
   id="path2651"
   d="m 30.7,-14.3 c -0.1,0 -0.1,0 -0.2,-0.1 -0.1,-0.1 -0.1,-0.1 -0.1,-0.2 0,-0.1 0,-0.1 0.1,-0.2 0.1,-0.1 0.3,-0.1 0.4,0 0,0 0.1,0.1 0.1,0.2 0,0.1 0,0.1 -0.1,0.2 0,0.1 -0.1,0.1 -0.2,0.1 z"
   class="st2" />
			<path
   style="fill:#1d1d1b"
   inkscape:connector-curvature="0"
   id="path2653"
   d="m 42.7,-23.3 c -0.1,0 -0.1,0 -0.2,-0.1 -0.1,-0.1 -0.1,-0.1 -0.1,-0.2 0,-0.1 0,-0.1 0.1,-0.2 0.1,-0.1 0.3,-0.1 0.4,0 0.1,0 0.1,0.1 0.1,0.2 0,0.1 0,0.1 -0.1,0.2 0,0.1 -0.1,0.1 -0.2,0.1 z"
   class="st2" />
			<path
   style="fill:#1d1d1b"
   inkscape:connector-curvature="0"
   id="path2655"
   d="m 60.8,-17.1 c -0.1,0 -0.1,0 -0.2,-0.1 0,0 -0.1,-0.1 -0.1,-0.2 0,-0.1 0,-0.1 0.1,-0.2 0.1,-0.1 0.2,-0.1 0.3,0 0,0 0.1,0.1 0.1,0.2 0,0.1 0,0.1 -0.1,0.2 0.1,0.1 0,0.1 -0.1,0.1 z"
   class="st2" />
			<path
   style="fill:#1d1d1b"
   inkscape:connector-curvature="0"
   id="path2657"
   d="m 74,-6.8 c -0.1,0 -0.1,0 -0.2,-0.1 0,-0.1 -0.1,-0.1 -0.1,-0.2 0,-0.1 0,-0.1 0.1,-0.2 0.1,-0.1 0.3,-0.1 0.4,0 0,0 0.1,0.1 0.1,0.2 0,0.1 0,0.1 -0.1,0.2 -0.1,0.1 -0.1,0.1 -0.2,0.1 z"
   class="st2" />
			<path
   style="fill:#1d1d1b"
   inkscape:connector-curvature="0"
   id="path2659"
   d="m 10,-63.5 c -0.1,0 -0.1,0 -0.2,-0.1 0,-0.1 -0.1,-0.1 -0.1,-0.2 0,-0.1 0,-0.1 0.1,-0.2 0.1,-0.1 0.3,-0.1 0.4,0 0.1,0.1 0.1,0.1 0.1,0.2 0,0.1 0,0.1 -0.1,0.2 -0.1,0 -0.1,0.1 -0.2,0.1 z"
   class="st2" />
			<path
   style="fill:#1d1d1b"
   inkscape:connector-curvature="0"
   id="path2661"
   d="m 75.2,-34 c -0.1,0 -0.1,0 -0.2,-0.1 0,-0.1 -0.1,-0.1 -0.1,-0.2 0,-0.1 0,-0.1 0.1,-0.2 0.1,-0.1 0.3,-0.1 0.3,0 0,0 0.1,0.1 0.1,0.2 0,0.1 0,0.1 -0.1,0.2 0.1,0 0,0.1 -0.1,0.1 z"
   class="st2" />
			<path
   style="fill:#1d1d1b"
   inkscape:connector-curvature="0"
   id="path2663"
   d="m 37.5,-52.5 c -0.1,0 -0.1,0 -0.2,-0.1 0,0 -0.1,-0.1 -0.1,-0.2 0,-0.1 0,-0.1 0.1,-0.2 0.1,-0.1 0.3,-0.1 0.4,0 0,0.1 0.1,0.1 0.1,0.2 0,0.1 0,0.1 -0.1,0.2 -0.1,0 -0.1,0.1 -0.2,0.1 z"
   class="st2" />
			<path
   style="fill:#1d1d1b"
   inkscape:connector-curvature="0"
   id="path2665"
   d="m 42.2,-55.8 c -0.1,0 -0.1,0 -0.2,-0.1 0,0 0,-0.1 0,-0.1 0,0 0,-0.1 0.1,-0.2 0.1,-0.1 0.3,-0.1 0.4,0 0,0 0.1,0.1 0.1,0.2 0,0.1 0,0.1 -0.1,0.2 -0.1,0 -0.2,0 -0.3,0 z"
   class="st2" />
			<path
   style="fill:#1d1d1b"
   inkscape:connector-curvature="0"
   id="path2667"
   d="m 35.2,-48.5 c -0.1,0 -0.1,0 -0.2,-0.1 0,-0.1 0,-0.1 0,-0.2 0,-0.1 0,-0.1 0.1,-0.2 0.1,-0.1 0.3,-0.1 0.4,0 0.1,0 0.1,0.1 0.1,0.2 0,0.1 0,0.1 -0.1,0.2 -0.1,0 -0.2,0.1 -0.3,0.1 z"
   class="st2" />
			<path
   style="fill:#1d1d1b"
   inkscape:connector-curvature="0"
   id="path2669"
   d="m 19.2,-55 c -0.1,0 -0.1,0 -0.2,-0.1 0,-0.1 0,-0.1 0,-0.2 0,-0.1 0,-0.1 0.1,-0.2 0.1,-0.1 0.3,-0.1 0.4,0 0,0 0.1,0.1 0.1,0.2 0,0.1 0,0.1 -0.1,0.2 -0.1,0 -0.2,0.1 -0.3,0.1 z"
   class="st2" />
			<path
   style="fill:#1d1d1b"
   inkscape:connector-curvature="0"
   id="path2671"
   d="m 35.5,-67.3 c -0.1,0 -0.1,0 -0.2,-0.1 -0.1,-0.1 -0.1,-0.1 -0.1,-0.2 0,-0.1 0,-0.1 0.1,-0.2 0.1,-0.1 0.3,-0.1 0.4,0 0.1,0.1 0.1,0.1 0.1,0.2 0,0.1 0,0.1 -0.1,0.2 -0.1,0.1 -0.1,0.1 -0.2,0.1 z"
   class="st2" />
			<path
   style="fill:#1d1d1b"
   inkscape:connector-curvature="0"
   id="path2673"
   d="m 8.2,-19.8 c -0.1,0 -0.1,0 -0.2,-0.1 0,0 0,-0.1 0,-0.1 0,-0.1 0,-0.1 0.1,-0.2 0.1,-0.1 0.3,-0.1 0.4,0 0,0.1 0.1,0.1 0.1,0.2 0,0.1 0,0.1 -0.1,0.2 -0.1,0 -0.2,0 -0.3,0 z"
   class="st2" />
			<path
   style="fill:#1d1d1b"
   inkscape:connector-curvature="0"
   id="path2675"
   d="m 16.7,-31.5 c -0.1,0 -0.1,0 -0.2,-0.1 0,-0.1 -0.1,-0.1 -0.1,-0.2 0,-0.1 0,-0.1 0.1,-0.2 0.1,-0.1 0.3,-0.1 0.4,0 0,0 0.1,0.1 0.1,0.2 0,0.1 0,0.1 -0.1,0.2 0,0 -0.1,0.1 -0.2,0.1 z"
   class="st2" />
			<path
   style="fill:#1d1d1b"
   inkscape:connector-curvature="0"
   id="path2677"
   d="m 68.7,-36 c -0.1,0 -0.1,0 -0.2,-0.1 0,0 -0.1,-0.1 -0.1,-0.2 0,-0.1 0,-0.1 0.1,-0.2 0.1,-0.1 0.3,-0.1 0.3,0 0,0 0.1,0.1 0.1,0.2 0,0.1 0,0.1 -0.1,0.2 0.1,0 0,0.1 -0.1,0.1 z"
   class="st2" />
			<path
   style="fill:#1d1d1b"
   inkscape:connector-curvature="0"
   id="path2679"
   d="m 10.1,-45.6 c -0.1,0 -0.1,0 -0.2,-0.1 -0.1,-0.1 -0.1,-0.1 -0.1,-0.2 0,-0.1 0,-0.1 0.1,-0.2 0.1,-0.1 0.3,-0.1 0.3,0 0,0.1 0.1,0.1 0.1,0.2 0,0.1 0,0.1 -0.1,0.2 0,0 -0.1,0.1 -0.1,0.1 z"
   class="st2" />
		</g><g
   id="g2685"
   transform="translate(-18.980085,62.466103)">
			<path
   style="fill:none;stroke:#1d1d1b;stroke-width:0.30000001"
   inkscape:connector-curvature="0"
   id="path2683"
   d="m 4.6,-41.5 c -1.6,-1.2 -5.2,-0.5 -4.3,0.8 0.9,1.3 5.2,2.6 6.5,1.4 1.2,-1.2 -1.4,-1.6 -2.2,-2.2 z"
   class="st1" />
		</g><g
   id="g2691"
   transform="translate(-18.980085,62.466103)">
			<path
   style="fill:none;stroke:#1d1d1b;stroke-width:0.30000001"
   inkscape:connector-curvature="0"
   id="path2687"
   d="m 14.7,-76.8 c -2.1,0 -4.5,2.8 -3,3.3 1.5,0.5 5.8,-1 6,-2.8 0.2,-1.8 -2,-0.5 -3,-0.5 z"
   class="st1" />
			<path
   style="fill:none;stroke:#1d1d1b;stroke-width:0.30000001"
   inkscape:connector-curvature="0"
   id="path2689"
   d="m 46.5,-77 c -2.1,0 -4.5,2.8 -3,3.3 1.5,0.5 5.8,-1 6,-2.8 0.2,-1.8 -2,-0.5 -3,-0.5 z"
   class="st1" />
		</g></svg>