<?xml version="1.0" encoding="utf-8"?>
<!-- Generator: Adobe Illustrator 22.0.0, SVG Export Plug-In . SVG Version: 6.00 Build 0)  -->
<svg version="1.1" id="Ebene_1" xmlns="http://www.w3.org/2000/svg" xmlns:xlink="http://www.w3.org/1999/xlink" x="0px" y="0px"
	 viewBox="0 0 56.7 56.7" style="enable-background:new 0 0 56.7 56.7;" xml:space="preserve">
<style type="text/css">
	.st0{fill:none;}
	.st1{fill:none;stroke:#000000;stroke-width:0.5;stroke-linejoin:round;stroke-miterlimit:10;}
	.st2{fill:none;stroke:url(#_x31_5102073);stroke-miterlimit:10;}
	.st3{fill:none;stroke:url(#_x31_5102073);stroke-width:0.5;stroke-linejoin:round;stroke-miterlimit:10;}
</style>
<pattern  width="56.7" height="56.7" patternUnits="userSpaceOnUse" id="_x31_5102073" viewBox="0 -56.7 56.7 56.7" style="overflow:visible;">
	<g>
		<rect x="0" y="-56.7" class="st0" width="56.7" height="56.7"/>
		<rect x="9.5" y="-55.9" class="st1" width="9.9" height="9.9"/>
		<rect x="9.5" y="-38.1" class="st1" width="9.9" height="9.9"/>
		<rect x="9.5" y="-19.6" class="st1" width="9.9" height="9.9"/>
		<rect x="37.6" y="-47.7" class="st1" width="9.9" height="9.9"/>
		<rect x="37.6" y="-29.9" class="st1" width="9.9" height="9.9"/>
		<rect x="37.6" y="-11.4" class="st1" width="9.9" height="9.9"/>
	</g>
</pattern>
<rect x="0" y="0" class="st2" width="56.7" height="56.7"/>
<rect x="9.5" y="0.8" class="st3" width="9.9" height="9.9"/>
<rect x="9.5" y="18.6" class="st3" width="9.9" height="9.9"/>
<rect x="9.5" y="37" class="st3" width="9.9" height="9.9"/>
<rect x="37.6" y="9" class="st3" width="9.9" height="9.9"/>
<rect x="37.6" y="26.8" class="st3" width="9.9" height="9.9"/>
<rect x="37.6" y="45.3" class="st3" width="9.9" height="9.9"/>
</svg>
