<?xml version="1.0" encoding="utf-8"?>
<!-- Generator: Adobe Illustrator 22.0.0, SVG Export Plug-In . SVG Version: 6.00 Build 0)  -->
<svg version="1.1" id="Ebene_2" xmlns="http://www.w3.org/2000/svg" xmlns:xlink="http://www.w3.org/1999/xlink" x="0px" y="0px"
	 viewBox="0 0 56.7 56.7" style="enable-background:new 0 0 56.7 56.7;" xml:space="preserve">
<style type="text/css">
	.st0{fill:none;}
	.st1{clip-path:url(#SVGID_2_);fill:none;stroke:#000000;stroke-width:0.5;stroke-linecap:round;stroke-miterlimit:10;}
	.st2{fill:none;stroke:url(#_x31_5103007);stroke-miterlimit:10;}
	.st3{fill:none;stroke:url(#_x31_5103007);stroke-width:0.5;stroke-linecap:round;stroke-miterlimit:10;}
</style>
<pattern  width="56.7" height="56.7" patternUnits="userSpaceOnUse" id="_x31_5103007" viewBox="6.1 -58 56.7 56.7" style="overflow:visible;">
	<g>
		<rect x="6.1" y="-58" class="st0" width="56.7" height="56.7"/>
		<g>
			<defs>
				<rect id="SVGID_1_" x="6.1" y="-58" width="56.7" height="56.7"/>
			</defs>
			<clipPath id="SVGID_2_">
				<use xlink:href="#SVGID_1_"  style="overflow:visible;"/>
			</clipPath>
			<line class="st1" x1="15.6" y1="-54.2" x2="15.6" y2="-42.7"/>
			<line class="st1" x1="9.9" y1="-48.4" x2="21.4" y2="-48.4"/>
			<line class="st1" x1="34.8" y1="-54.2" x2="34.8" y2="-42.7"/>
			<line class="st1" x1="29.2" y1="-48.4" x2="40.7" y2="-48.4"/>
			<line class="st1" x1="54.1" y1="-54.2" x2="54.1" y2="-42.7"/>
			<line class="st1" x1="48.4" y1="-48.4" x2="59.9" y2="-48.4"/>
			<line class="st1" x1="25.2" y1="-40.1" x2="25.2" y2="-28.6"/>
			<line class="st1" x1="19.5" y1="-34.3" x2="31" y2="-34.3"/>
			<line class="st1" x1="44.5" y1="-40.1" x2="44.5" y2="-28.6"/>
			<line class="st1" x1="38.8" y1="-34.3" x2="50.3" y2="-34.3"/>
			<line class="st1" x1="63.7" y1="-40.1" x2="63.7" y2="-28.6"/>
			<line class="st1" x1="58" y1="-34.3" x2="69.5" y2="-34.3"/>
			<line class="st1" x1="15.6" y1="-25.8" x2="15.6" y2="-14.4"/>
			<line class="st1" x1="9.9" y1="-20.1" x2="21.4" y2="-20.1"/>
			<line class="st1" x1="34.8" y1="-25.8" x2="34.8" y2="-14.4"/>
			<line class="st1" x1="29.2" y1="-20.1" x2="40.7" y2="-20.1"/>
			<line class="st1" x1="54.1" y1="-25.8" x2="54.1" y2="-14.4"/>
			<line class="st1" x1="48.4" y1="-20.1" x2="59.9" y2="-20.1"/>
			<line class="st1" x1="6" y1="-40.1" x2="6" y2="-28.6"/>
			<line class="st1" x1="0.3" y1="-34.3" x2="11.8" y2="-34.3"/>
			<line class="st1" x1="25.2" y1="-11.7" x2="25.2" y2="-0.3"/>
			<line class="st1" x1="19.5" y1="-6" x2="31" y2="-6"/>
			<line class="st1" x1="44.5" y1="-11.7" x2="44.5" y2="-0.3"/>
			<line class="st1" x1="38.8" y1="-6" x2="50.3" y2="-6"/>
			<line class="st1" x1="63.7" y1="-11.7" x2="63.7" y2="-0.3"/>
			<line class="st1" x1="58" y1="-6" x2="69.5" y2="-6"/>
			<line class="st1" x1="6" y1="-11.7" x2="6" y2="-0.3"/>
			<line class="st1" x1="0.3" y1="-6" x2="11.8" y2="-6"/>
		</g>
	</g>
</pattern>
<rect x="0" y="0" class="st2" width="56.7" height="56.7"/>
<line class="st3" x1="9.5" y1="3.8" x2="9.5" y2="15.3"/>
<line class="st3" x1="3.8" y1="9.6" x2="15.3" y2="9.6"/>
<line class="st3" x1="28.7" y1="3.8" x2="28.7" y2="15.3"/>
<line class="st3" x1="23" y1="9.6" x2="34.5" y2="9.6"/>
<line class="st3" x1="48" y1="3.8" x2="48" y2="15.3"/>
<line class="st3" x1="42.2" y1="9.6" x2="53.7" y2="9.6"/>
<line class="st3" x1="19.1" y1="18" x2="19.1" y2="29.4"/>
<line class="st3" x1="13.4" y1="23.7" x2="24.9" y2="23.7"/>
<line class="st3" x1="38.3" y1="18" x2="38.3" y2="29.4"/>
<line class="st3" x1="32.7" y1="23.7" x2="44.2" y2="23.7"/>
<line class="st3" x1="57.6" y1="18" x2="57.6" y2="29.4"/>
<line class="st3" x1="51.9" y1="23.7" x2="63.4" y2="23.7"/>
<line class="st3" x1="9.5" y1="32.2" x2="9.5" y2="43.6"/>
<line class="st3" x1="3.8" y1="37.9" x2="15.3" y2="37.9"/>
<line class="st3" x1="28.7" y1="32.2" x2="28.7" y2="43.6"/>
<line class="st3" x1="23" y1="37.9" x2="34.5" y2="37.9"/>
<line class="st3" x1="48" y1="32.2" x2="48" y2="43.6"/>
<line class="st3" x1="42.2" y1="37.9" x2="53.7" y2="37.9"/>
<line class="st3" x1="-0.2" y1="18" x2="-0.2" y2="29.4"/>
<line class="st3" x1="-5.9" y1="23.7" x2="5.6" y2="23.7"/>
<line class="st3" x1="19.1" y1="46.3" x2="19.1" y2="57.8"/>
<line class="st3" x1="13.4" y1="52" x2="24.9" y2="52"/>
<line class="st3" x1="38.3" y1="46.3" x2="38.3" y2="57.8"/>
<line class="st3" x1="32.7" y1="52" x2="44.2" y2="52"/>
<line class="st3" x1="57.6" y1="46.3" x2="57.6" y2="57.8"/>
<line class="st3" x1="51.9" y1="52" x2="63.4" y2="52"/>
<line class="st3" x1="-0.2" y1="46.3" x2="-0.2" y2="57.8"/>
<line class="st3" x1="-5.9" y1="52" x2="5.6" y2="52"/>
</svg>
