<?xml version="1.0" encoding="utf-8"?>
<!-- Generator: Adobe Illustrator 22.0.0, SVG Export Plug-In . SVG Version: 6.00 Build 0)  -->
<svg version="1.1" id="Ebene_1" xmlns="http://www.w3.org/2000/svg" xmlns:xlink="http://www.w3.org/1999/xlink" x="0px" y="0px"
	 viewBox="0 0 56.7 56.7" style="enable-background:new 0 0 56.7 56.7;" xml:space="preserve">
<style type="text/css">
	.st0{fill:none;}
	.st1{clip-path:url(#SVGID_2_);fill:none;stroke:#000000;stroke-width:0.5;stroke-miterlimit:10;}
	.st2{fill:none;stroke:url(#_x31_5102051);stroke-miterlimit:10;}
	.st3{fill:none;stroke:url(#_x31_5102051);stroke-width:0.5;stroke-miterlimit:10;}
</style>
<pattern  width="56.7" height="56.7" patternUnits="userSpaceOnUse" id="_x31_5102051" viewBox="0 -57.3 56.7 56.7" style="overflow:visible;">
	<g>
		<rect y="-57.3" class="st0" width="56.7" height="56.7"/>
		<g>
			<defs>
				<rect id="SVGID_1_" y="-57.3" width="56.7" height="56.7"/>
			</defs>
			<clipPath id="SVGID_2_">
				<use xlink:href="#SVGID_1_"  style="overflow:visible;"/>
			</clipPath>
			<line class="st1" x1="0.1" y1="-38.2" x2="56.8" y2="-38.2"/>
			<line class="st1" x1="0.1" y1="-47.7" x2="56.8" y2="-47.7"/>
			<line class="st1" x1="0.3" y1="-57.2" x2="56.8" y2="-57.2"/>
			<line class="st1" x1="6.1" y1="-47.7" x2="6.1" y2="-57.2"/>
			<line class="st1" x1="6.1" y1="-28.7" x2="6.1" y2="-38.2"/>
			<line class="st1" x1="6.1" y1="-9.7" x2="6.1" y2="-19.2"/>
			<line class="st1" x1="20.6" y1="-38.2" x2="20.6" y2="-47.7"/>
			<line class="st1" x1="48.9" y1="-38.2" x2="48.9" y2="-47.7"/>
			<line class="st1" x1="20.6" y1="-19.4" x2="20.6" y2="-28.7"/>
			<line class="st1" x1="48.9" y1="-19.4" x2="48.9" y2="-28.7"/>
			<line class="st1" x1="34.4" y1="-47.7" x2="34.4" y2="-57.2"/>
			<line class="st1" x1="34.4" y1="-28.7" x2="34.4" y2="-38.2"/>
			<line class="st1" x1="34.4" y1="-9.7" x2="34.4" y2="-19.2"/>
			<line class="st1" x1="0.1" y1="-28.7" x2="56.8" y2="-28.7"/>
			<line class="st1" x1="0.1" y1="-19.2" x2="56.8" y2="-19.2"/>
			<line class="st1" x1="20.6" y1="-0.3" x2="20.6" y2="-9.7"/>
			<line class="st1" x1="48.9" y1="-0.3" x2="48.9" y2="-9.7"/>
			<line class="st1" x1="0.1" y1="-0.3" x2="56.8" y2="-0.3"/>
			<line class="st1" x1="0.1" y1="-9.7" x2="56.8" y2="-9.7"/>
			<ellipse class="st1" cx="34" cy="-24" rx="4.8" ry="1.8"/>
			<ellipse class="st1" cx="34" cy="-5" rx="4.8" ry="1.8"/>
			<ellipse class="st1" cx="34" cy="-43" rx="4.8" ry="1.8"/>
			<ellipse class="st1" cx="5.9" cy="-24" rx="4.8" ry="1.8"/>
			<ellipse class="st1" cx="5.9" cy="-5" rx="4.8" ry="1.8"/>
			<ellipse class="st1" cx="5.9" cy="-43" rx="4.8" ry="1.8"/>
			<ellipse class="st1" cx="20.7" cy="-33.7" rx="4.8" ry="1.8"/>
			<ellipse class="st1" cx="20.7" cy="-14.7" rx="4.8" ry="1.8"/>
			<ellipse class="st1" cx="20.7" cy="-52.7" rx="4.8" ry="1.8"/>
			<ellipse class="st1" cx="49" cy="-33.7" rx="4.8" ry="1.8"/>
			<ellipse class="st1" cx="49" cy="-14.7" rx="4.8" ry="1.8"/>
			<ellipse class="st1" cx="49" cy="-52.7" rx="4.8" ry="1.8"/>
		</g>
	</g>
</pattern>
<rect x="0" y="0" class="st2" width="56.7" height="56.7"/>
<line class="st3" x1="0.1" y1="19.1" x2="56.8" y2="19.1"/>
<line class="st3" x1="0.1" y1="9.6" x2="56.8" y2="9.6"/>
<line class="st3" x1="0.3" y1="0.1" x2="56.8" y2="0.1"/>
<line class="st3" x1="6.1" y1="9.6" x2="6.1" y2="0.1"/>
<line class="st3" x1="6.1" y1="28.5" x2="6.1" y2="19.1"/>
<line class="st3" x1="6.1" y1="47.5" x2="6.1" y2="38"/>
<line class="st3" x1="20.6" y1="19.1" x2="20.6" y2="9.6"/>
<line class="st3" x1="48.9" y1="19.1" x2="48.9" y2="9.6"/>
<line class="st3" x1="20.6" y1="37.9" x2="20.6" y2="28.5"/>
<line class="st3" x1="48.9" y1="37.9" x2="48.9" y2="28.5"/>
<line class="st3" x1="34.4" y1="9.6" x2="34.4" y2="0.1"/>
<line class="st3" x1="34.4" y1="28.5" x2="34.4" y2="19.1"/>
<line class="st3" x1="34.4" y1="47.5" x2="34.4" y2="38"/>
<line class="st3" x1="0.1" y1="28.5" x2="56.8" y2="28.5"/>
<line class="st3" x1="0.1" y1="38" x2="56.8" y2="38"/>
<line class="st3" x1="20.6" y1="57" x2="20.6" y2="47.5"/>
<line class="st3" x1="48.9" y1="57" x2="48.9" y2="47.5"/>
<line class="st3" x1="0.1" y1="57" x2="56.8" y2="57"/>
<line class="st3" x1="0.1" y1="47.5" x2="56.8" y2="47.5"/>
<ellipse class="st3" cx="34" cy="33.2" rx="4.8" ry="1.8"/>
<ellipse class="st3" cx="34" cy="52.2" rx="4.8" ry="1.8"/>
<ellipse class="st3" cx="34" cy="14.2" rx="4.8" ry="1.8"/>
<ellipse class="st3" cx="5.9" cy="33.2" rx="4.8" ry="1.8"/>
<ellipse class="st3" cx="5.9" cy="52.2" rx="4.8" ry="1.8"/>
<ellipse class="st3" cx="5.9" cy="14.2" rx="4.8" ry="1.8"/>
<ellipse class="st3" cx="20.7" cy="23.6" rx="4.8" ry="1.8"/>
<ellipse class="st3" cx="20.7" cy="42.6" rx="4.8" ry="1.8"/>
<ellipse class="st3" cx="20.7" cy="4.6" rx="4.8" ry="1.8"/>
<ellipse class="st3" cx="49" cy="23.6" rx="4.8" ry="1.8"/>
<ellipse class="st3" cx="49" cy="42.6" rx="4.8" ry="1.8"/>
<ellipse class="st3" cx="49" cy="4.6" rx="4.8" ry="1.8"/>
</svg>
