<?xml version="1.0" encoding="utf-8"?>
<!-- Generator: Adobe Illustrator 22.0.0, SVG Export Plug-In . SVG Version: 6.00 Build 0)  -->
<svg version="1.1" id="Ebene_2" xmlns="http://www.w3.org/2000/svg" xmlns:xlink="http://www.w3.org/1999/xlink" x="0px" y="0px"
	 viewBox="0 0 56.7 56.7" style="enable-background:new 0 0 56.7 56.7;" xml:space="preserve">
<style type="text/css">
	.st0{fill:none;}
	.st1{clip-path:url(#SVGID_2_);}
	.st2{clip-path:url(#SVGID_2_);fill:none;stroke:#000000;stroke-width:0.5;stroke-linecap:round;stroke-miterlimit:10;}
	.st3{fill:url(#_x31_5102025);}
	.st4{fill:url(#_x31_5102025);stroke:#000000;stroke-width:0.5;stroke-linecap:round;stroke-miterlimit:10;}
</style>
<pattern  width="56.7" height="56.7" patternUnits="userSpaceOnUse" id="_x31_5102025" viewBox="7.1 -56.9 56.7 56.7" style="overflow:visible;">
	<g>
		<rect x="7.1" y="-56.9" class="st0" width="56.7" height="56.7"/>
		<g>
			<defs>
				<rect id="SVGID_1_" x="7.1" y="-56.9" width="56.7" height="56.7"/>
			</defs>
			<clipPath id="SVGID_2_">
				<use xlink:href="#SVGID_1_"  style="overflow:visible;"/>
			</clipPath>
			<circle class="st1" cx="4.2" cy="-46.3" r="0.7"/>
			<circle class="st1" cx="9.9" cy="-46.3" r="0.7"/>
			<line class="st2" x1="0.3" y1="-45.6" x2="13.9" y2="-45.6"/>
			<circle class="st1" cx="23.2" cy="-46.3" r="0.7"/>
			<circle class="st1" cx="28.9" cy="-46.3" r="0.7"/>
			<line class="st2" x1="19.1" y1="-45.6" x2="32.8" y2="-45.6"/>
			<circle class="st1" cx="41.9" cy="-46.3" r="0.7"/>
			<circle class="st1" cx="47.6" cy="-46.3" r="0.7"/>
			<line class="st2" x1="38" y1="-45.6" x2="51.7" y2="-45.6"/>
			<circle class="st1" cx="60.9" cy="-46.3" r="0.7"/>
			<circle class="st1" cx="66.6" cy="-46.3" r="0.7"/>
			<line class="st2" x1="56.9" y1="-45.6" x2="70.6" y2="-45.6"/>
			<circle class="st1" cx="11.3" cy="-52" r="0.7"/>
			<circle class="st1" cx="17" cy="-52" r="0.7"/>
			<line class="st2" x1="7.3" y1="-51.3" x2="21" y2="-51.3"/>
			<circle class="st1" cx="30.3" cy="-52" r="0.7"/>
			<circle class="st1" cx="36" cy="-52" r="0.7"/>
			<line class="st2" x1="26.2" y1="-51.3" x2="39.9" y2="-51.3"/>
			<circle class="st1" cx="49" cy="-52" r="0.7"/>
			<circle class="st1" cx="54.7" cy="-52" r="0.7"/>
			<line class="st2" x1="45.1" y1="-51.3" x2="58.8" y2="-51.3"/>
			<circle class="st1" cx="68" cy="-52" r="0.7"/>
			<circle class="st1" cx="73.7" cy="-52" r="0.7"/>
			<line class="st2" x1="64" y1="-51.3" x2="77.7" y2="-51.3"/>
			<circle class="st1" cx="4.2" cy="-57.7" r="0.7"/>
			<circle class="st1" cx="9.9" cy="-57.7" r="0.7"/>
			<line class="st2" x1="0.3" y1="-56.9" x2="13.9" y2="-56.9"/>
			<circle class="st1" cx="23.2" cy="-57.7" r="0.7"/>
			<circle class="st1" cx="28.9" cy="-57.7" r="0.7"/>
			<line class="st2" x1="19.1" y1="-56.9" x2="32.8" y2="-56.9"/>
			<circle class="st1" cx="41.9" cy="-57.7" r="0.7"/>
			<circle class="st1" cx="47.6" cy="-57.7" r="0.7"/>
			<line class="st2" x1="38" y1="-56.9" x2="51.7" y2="-56.9"/>
			<circle class="st1" cx="60.9" cy="-57.7" r="0.7"/>
			<circle class="st1" cx="66.6" cy="-57.7" r="0.7"/>
			<line class="st2" x1="56.9" y1="-56.9" x2="70.6" y2="-56.9"/>
			<circle class="st1" cx="4.2" cy="-35" r="0.7"/>
			<circle class="st1" cx="9.9" cy="-35" r="0.7"/>
			<line class="st2" x1="0.3" y1="-34.3" x2="13.9" y2="-34.3"/>
			<circle class="st1" cx="23.2" cy="-35" r="0.7"/>
			<circle class="st1" cx="28.9" cy="-35" r="0.7"/>
			<line class="st2" x1="19.1" y1="-34.3" x2="32.8" y2="-34.3"/>
			<circle class="st1" cx="41.9" cy="-35" r="0.7"/>
			<circle class="st1" cx="47.6" cy="-35" r="0.7"/>
			<line class="st2" x1="38" y1="-34.3" x2="51.7" y2="-34.3"/>
			<circle class="st1" cx="60.9" cy="-35" r="0.7"/>
			<circle class="st1" cx="66.6" cy="-35" r="0.7"/>
			<line class="st2" x1="56.9" y1="-34.3" x2="70.6" y2="-34.3"/>
			<circle class="st1" cx="11.3" cy="-40.6" r="0.7"/>
			<circle class="st1" cx="17" cy="-40.6" r="0.7"/>
			<line class="st2" x1="7.3" y1="-39.9" x2="21" y2="-39.9"/>
			<circle class="st1" cx="30.3" cy="-40.6" r="0.7"/>
			<circle class="st1" cx="36" cy="-40.6" r="0.7"/>
			<line class="st2" x1="26.2" y1="-39.9" x2="39.9" y2="-39.9"/>
			<circle class="st1" cx="49" cy="-40.6" r="0.7"/>
			<circle class="st1" cx="54.7" cy="-40.6" r="0.7"/>
			<line class="st2" x1="45.1" y1="-39.9" x2="58.8" y2="-39.9"/>
			<circle class="st1" cx="68" cy="-40.6" r="0.7"/>
			<circle class="st1" cx="73.7" cy="-40.6" r="0.7"/>
			<line class="st2" x1="64" y1="-39.9" x2="77.7" y2="-39.9"/>
			<circle class="st1" cx="4.2" cy="-23.6" r="0.7"/>
			<circle class="st1" cx="9.9" cy="-23.6" r="0.7"/>
			<line class="st2" x1="0.3" y1="-22.9" x2="13.9" y2="-22.9"/>
			<circle class="st1" cx="23.2" cy="-23.6" r="0.7"/>
			<circle class="st1" cx="28.9" cy="-23.6" r="0.7"/>
			<line class="st2" x1="19.1" y1="-22.9" x2="32.8" y2="-22.9"/>
			<circle class="st1" cx="41.9" cy="-23.6" r="0.7"/>
			<circle class="st1" cx="47.6" cy="-23.6" r="0.7"/>
			<line class="st2" x1="38" y1="-22.9" x2="51.7" y2="-22.9"/>
			<circle class="st1" cx="60.9" cy="-23.6" r="0.7"/>
			<circle class="st1" cx="66.6" cy="-23.6" r="0.7"/>
			<line class="st2" x1="56.9" y1="-22.9" x2="70.6" y2="-22.9"/>
			<circle class="st1" cx="11.3" cy="-29.3" r="0.7"/>
			<circle class="st1" cx="17" cy="-29.3" r="0.7"/>
			<line class="st2" x1="7.3" y1="-28.6" x2="21" y2="-28.6"/>
			<circle class="st1" cx="30.3" cy="-29.3" r="0.7"/>
			<circle class="st1" cx="36" cy="-29.3" r="0.7"/>
			<line class="st2" x1="26.2" y1="-28.6" x2="39.9" y2="-28.6"/>
			<circle class="st1" cx="49" cy="-29.3" r="0.7"/>
			<circle class="st1" cx="54.7" cy="-29.3" r="0.7"/>
			<line class="st2" x1="45.1" y1="-28.6" x2="58.8" y2="-28.6"/>
			<circle class="st1" cx="68" cy="-29.3" r="0.7"/>
			<circle class="st1" cx="73.7" cy="-29.3" r="0.7"/>
			<line class="st2" x1="64" y1="-28.6" x2="77.7" y2="-28.6"/>
			<circle class="st1" cx="4.2" cy="-12.3" r="0.7"/>
			<circle class="st1" cx="9.9" cy="-12.3" r="0.7"/>
			<line class="st2" x1="0.3" y1="-11.6" x2="13.9" y2="-11.6"/>
			<circle class="st1" cx="23.2" cy="-12.3" r="0.7"/>
			<circle class="st1" cx="28.9" cy="-12.3" r="0.7"/>
			<line class="st2" x1="19.1" y1="-11.6" x2="32.8" y2="-11.6"/>
			<circle class="st1" cx="41.9" cy="-12.3" r="0.7"/>
			<circle class="st1" cx="47.6" cy="-12.3" r="0.7"/>
			<line class="st2" x1="38" y1="-11.6" x2="51.7" y2="-11.6"/>
			<circle class="st1" cx="60.9" cy="-12.3" r="0.7"/>
			<circle class="st1" cx="66.6" cy="-12.3" r="0.7"/>
			<line class="st2" x1="56.9" y1="-11.6" x2="70.6" y2="-11.6"/>
			<circle class="st1" cx="11.3" cy="-18" r="0.7"/>
			<circle class="st1" cx="17" cy="-18" r="0.7"/>
			<line class="st2" x1="7.3" y1="-17.3" x2="21" y2="-17.3"/>
			<circle class="st1" cx="30.3" cy="-18" r="0.7"/>
			<circle class="st1" cx="36" cy="-18" r="0.7"/>
			<line class="st2" x1="26.2" y1="-17.3" x2="39.9" y2="-17.3"/>
			<circle class="st1" cx="49" cy="-18" r="0.7"/>
			<circle class="st1" cx="54.7" cy="-18" r="0.7"/>
			<line class="st2" x1="45.1" y1="-17.3" x2="58.8" y2="-17.3"/>
			<circle class="st1" cx="68" cy="-18" r="0.7"/>
			<circle class="st1" cx="73.7" cy="-18" r="0.7"/>
			<line class="st2" x1="64" y1="-17.3" x2="77.7" y2="-17.3"/>
			<circle class="st1" cx="4.2" cy="-1" r="0.7"/>
			<circle class="st1" cx="9.9" cy="-1" r="0.7"/>
			<line class="st2" x1="0.3" y1="-0.3" x2="13.9" y2="-0.3"/>
			<circle class="st1" cx="23.2" cy="-1" r="0.7"/>
			<circle class="st1" cx="28.9" cy="-1" r="0.7"/>
			<line class="st2" x1="19.1" y1="-0.3" x2="32.8" y2="-0.3"/>
			<circle class="st1" cx="41.9" cy="-1" r="0.7"/>
			<circle class="st1" cx="47.6" cy="-1" r="0.7"/>
			<line class="st2" x1="38" y1="-0.3" x2="51.7" y2="-0.3"/>
			<circle class="st1" cx="60.9" cy="-1" r="0.7"/>
			<circle class="st1" cx="66.6" cy="-1" r="0.7"/>
			<line class="st2" x1="56.9" y1="-0.3" x2="70.6" y2="-0.3"/>
			<circle class="st1" cx="11.3" cy="-6.6" r="0.7"/>
			<circle class="st1" cx="17" cy="-6.6" r="0.7"/>
			<line class="st2" x1="7.3" y1="-5.9" x2="21" y2="-5.9"/>
			<circle class="st1" cx="30.3" cy="-6.6" r="0.7"/>
			<circle class="st1" cx="36" cy="-6.6" r="0.7"/>
			<line class="st2" x1="26.2" y1="-5.9" x2="39.9" y2="-5.9"/>
			<circle class="st1" cx="49" cy="-6.6" r="0.7"/>
			<circle class="st1" cx="54.7" cy="-6.6" r="0.7"/>
			<line class="st2" x1="45.1" y1="-5.9" x2="58.8" y2="-5.9"/>
			<circle class="st1" cx="68" cy="-6.6" r="0.7"/>
			<circle class="st1" cx="73.7" cy="-6.6" r="0.7"/>
			<line class="st2" x1="64" y1="-5.9" x2="77.7" y2="-5.9"/>
		</g>
	</g>
</pattern>
<rect x="0" y="-0.1" class="st3" width="56.7" height="56.7"/>
<circle class="st3" cx="-2.8" cy="10.6" r="0.7"/>
<circle class="st3" cx="2.9" cy="10.6" r="0.7"/>
<line class="st4" x1="-6.8" y1="11.3" x2="6.8" y2="11.3"/>
<circle class="st3" cx="16.2" cy="10.6" r="0.7"/>
<circle class="st3" cx="21.9" cy="10.6" r="0.7"/>
<line class="st4" x1="12.1" y1="11.3" x2="25.7" y2="11.3"/>
<circle class="st3" cx="34.9" cy="10.6" r="0.7"/>
<circle class="st3" cx="40.6" cy="10.6" r="0.7"/>
<line class="st4" x1="31" y1="11.3" x2="44.6" y2="11.3"/>
<circle class="st3" cx="53.9" cy="10.6" r="0.7"/>
<circle class="st3" cx="59.6" cy="10.6" r="0.7"/>
<line class="st4" x1="49.9" y1="11.3" x2="63.5" y2="11.3"/>
<circle class="st3" cx="4.2" cy="4.9" r="0.7"/>
<circle class="st3" cx="10" cy="4.9" r="0.7"/>
<line class="st4" x1="0.3" y1="5.6" x2="13.9" y2="5.6"/>
<circle class="st3" cx="23.2" cy="4.9" r="0.7"/>
<circle class="st3" cx="28.9" cy="4.9" r="0.7"/>
<line class="st4" x1="19.2" y1="5.6" x2="32.8" y2="5.6"/>
<circle class="st3" cx="42" cy="4.9" r="0.7"/>
<circle class="st3" cx="47.7" cy="4.9" r="0.7"/>
<line class="st4" x1="38.1" y1="5.6" x2="51.7" y2="5.6"/>
<circle class="st3" cx="60.9" cy="4.9" r="0.7"/>
<circle class="st3" cx="66.7" cy="4.9" r="0.7"/>
<line class="st4" x1="57" y1="5.6" x2="70.6" y2="5.6"/>
<circle class="st3" cx="-2.8" cy="-0.8" r="0.7"/>
<circle class="st3" cx="2.9" cy="-0.8" r="0.7"/>
<line class="st4" x1="-6.8" y1="-0.1" x2="6.8" y2="-0.1"/>
<circle class="st3" cx="16.2" cy="-0.8" r="0.7"/>
<circle class="st3" cx="21.9" cy="-0.8" r="0.7"/>
<line class="st4" x1="12.1" y1="-0.1" x2="25.7" y2="-0.1"/>
<circle class="st3" cx="34.9" cy="-0.8" r="0.7"/>
<circle class="st3" cx="40.6" cy="-0.8" r="0.7"/>
<line class="st4" x1="31" y1="-0.1" x2="44.6" y2="-0.1"/>
<circle class="st3" cx="53.9" cy="-0.8" r="0.7"/>
<circle class="st3" cx="59.6" cy="-0.8" r="0.7"/>
<line class="st4" x1="49.9" y1="-0.1" x2="63.5" y2="-0.1"/>
<circle class="st3" cx="-2.8" cy="21.9" r="0.7"/>
<circle class="st3" cx="2.9" cy="21.9" r="0.7"/>
<line class="st4" x1="-6.8" y1="22.6" x2="6.8" y2="22.6"/>
<circle class="st3" cx="16.2" cy="21.9" r="0.7"/>
<circle class="st3" cx="21.9" cy="21.9" r="0.7"/>
<line class="st4" x1="12.1" y1="22.6" x2="25.7" y2="22.6"/>
<circle class="st3" cx="34.9" cy="21.9" r="0.7"/>
<circle class="st3" cx="40.6" cy="21.9" r="0.7"/>
<line class="st4" x1="31" y1="22.6" x2="44.6" y2="22.6"/>
<circle class="st3" cx="53.9" cy="21.9" r="0.7"/>
<circle class="st3" cx="59.6" cy="21.9" r="0.7"/>
<line class="st4" x1="49.9" y1="22.6" x2="63.5" y2="22.6"/>
<circle class="st3" cx="4.2" cy="16.2" r="0.7"/>
<circle class="st3" cx="10" cy="16.2" r="0.7"/>
<line class="st4" x1="0.3" y1="16.9" x2="13.9" y2="16.9"/>
<circle class="st3" cx="23.2" cy="16.2" r="0.7"/>
<circle class="st3" cx="28.9" cy="16.2" r="0.7"/>
<line class="st4" x1="19.2" y1="16.9" x2="32.8" y2="16.9"/>
<circle class="st3" cx="42" cy="16.2" r="0.7"/>
<circle class="st3" cx="47.7" cy="16.2" r="0.7"/>
<line class="st4" x1="38.1" y1="16.9" x2="51.7" y2="16.9"/>
<circle class="st3" cx="60.9" cy="16.2" r="0.7"/>
<circle class="st3" cx="66.7" cy="16.2" r="0.7"/>
<line class="st4" x1="57" y1="16.9" x2="70.6" y2="16.9"/>
<circle class="st3" cx="-2.8" cy="33.2" r="0.7"/>
<circle class="st3" cx="2.9" cy="33.2" r="0.7"/>
<line class="st4" x1="-6.8" y1="34" x2="6.8" y2="34"/>
<circle class="st3" cx="16.2" cy="33.2" r="0.7"/>
<circle class="st3" cx="21.9" cy="33.2" r="0.7"/>
<line class="st4" x1="12.1" y1="34" x2="25.7" y2="34"/>
<circle class="st3" cx="34.9" cy="33.2" r="0.7"/>
<circle class="st3" cx="40.6" cy="33.2" r="0.7"/>
<line class="st4" x1="31" y1="34" x2="44.6" y2="34"/>
<circle class="st3" cx="53.9" cy="33.2" r="0.7"/>
<circle class="st3" cx="59.6" cy="33.2" r="0.7"/>
<line class="st4" x1="49.9" y1="34" x2="63.5" y2="34"/>
<circle class="st3" cx="4.2" cy="27.6" r="0.7"/>
<circle class="st3" cx="10" cy="27.6" r="0.7"/>
<line class="st4" x1="0.3" y1="28.3" x2="13.9" y2="28.3"/>
<circle class="st3" cx="23.2" cy="27.6" r="0.7"/>
<circle class="st3" cx="28.9" cy="27.6" r="0.7"/>
<line class="st4" x1="19.2" y1="28.3" x2="32.8" y2="28.3"/>
<circle class="st3" cx="42" cy="27.6" r="0.7"/>
<circle class="st3" cx="47.7" cy="27.6" r="0.7"/>
<line class="st4" x1="38.1" y1="28.3" x2="51.7" y2="28.3"/>
<circle class="st3" cx="60.9" cy="27.6" r="0.7"/>
<circle class="st3" cx="66.7" cy="27.6" r="0.7"/>
<line class="st4" x1="57" y1="28.3" x2="70.6" y2="28.3"/>
<circle class="st3" cx="-2.8" cy="44.6" r="0.7"/>
<circle class="st3" cx="2.9" cy="44.6" r="0.7"/>
<line class="st4" x1="-6.8" y1="45.3" x2="6.8" y2="45.3"/>
<circle class="st3" cx="16.2" cy="44.6" r="0.7"/>
<circle class="st3" cx="21.9" cy="44.6" r="0.7"/>
<line class="st4" x1="12.1" y1="45.3" x2="25.7" y2="45.3"/>
<circle class="st3" cx="34.9" cy="44.6" r="0.7"/>
<circle class="st3" cx="40.6" cy="44.6" r="0.7"/>
<line class="st4" x1="31" y1="45.3" x2="44.6" y2="45.3"/>
<circle class="st3" cx="53.9" cy="44.6" r="0.7"/>
<circle class="st3" cx="59.6" cy="44.6" r="0.7"/>
<line class="st4" x1="49.9" y1="45.3" x2="63.5" y2="45.3"/>
<circle class="st3" cx="4.2" cy="38.9" r="0.7"/>
<circle class="st3" cx="10" cy="38.9" r="0.7"/>
<line class="st4" x1="0.3" y1="39.6" x2="13.9" y2="39.6"/>
<circle class="st3" cx="23.2" cy="38.9" r="0.7"/>
<circle class="st3" cx="28.9" cy="38.9" r="0.7"/>
<line class="st4" x1="19.2" y1="39.6" x2="32.8" y2="39.6"/>
<circle class="st3" cx="42" cy="38.9" r="0.7"/>
<circle class="st3" cx="47.7" cy="38.9" r="0.7"/>
<line class="st4" x1="38.1" y1="39.6" x2="51.7" y2="39.6"/>
<circle class="st3" cx="60.9" cy="38.9" r="0.7"/>
<circle class="st3" cx="66.7" cy="38.9" r="0.7"/>
<line class="st4" x1="57" y1="39.6" x2="70.6" y2="39.6"/>
<circle class="st3" cx="-2.8" cy="55.9" r="0.7"/>
<circle class="st3" cx="2.9" cy="55.9" r="0.7"/>
<line class="st4" x1="-6.8" y1="56.6" x2="6.8" y2="56.6"/>
<circle class="st3" cx="16.2" cy="55.9" r="0.7"/>
<circle class="st3" cx="21.9" cy="55.9" r="0.7"/>
<line class="st4" x1="12.1" y1="56.6" x2="25.7" y2="56.6"/>
<circle class="st3" cx="34.9" cy="55.9" r="0.7"/>
<circle class="st3" cx="40.6" cy="55.9" r="0.7"/>
<line class="st4" x1="31" y1="56.6" x2="44.6" y2="56.6"/>
<circle class="st3" cx="53.9" cy="55.9" r="0.7"/>
<circle class="st3" cx="59.6" cy="55.9" r="0.7"/>
<line class="st4" x1="49.9" y1="56.6" x2="63.5" y2="56.6"/>
<circle class="st3" cx="4.2" cy="50.2" r="0.7"/>
<circle class="st3" cx="10" cy="50.2" r="0.7"/>
<line class="st4" x1="0.3" y1="51" x2="13.9" y2="51"/>
<circle class="st3" cx="23.2" cy="50.2" r="0.7"/>
<circle class="st3" cx="28.9" cy="50.2" r="0.7"/>
<line class="st4" x1="19.2" y1="51" x2="32.8" y2="51"/>
<circle class="st3" cx="42" cy="50.2" r="0.7"/>
<circle class="st3" cx="47.7" cy="50.2" r="0.7"/>
<line class="st4" x1="38.1" y1="51" x2="51.7" y2="51"/>
<circle class="st3" cx="60.9" cy="50.2" r="0.7"/>
<circle class="st3" cx="66.7" cy="50.2" r="0.7"/>
<line class="st4" x1="57" y1="51" x2="70.6" y2="51"/>
</svg>
