<?xml version="1.0" encoding="utf-8"?>
<!-- Generator: Adobe Illustrator 22.0.0, SVG Export Plug-In . SVG Version: 6.00 Build 0)  -->
<svg version="1.1" id="Ebene_1" xmlns="http://www.w3.org/2000/svg" xmlns:xlink="http://www.w3.org/1999/xlink" x="0px" y="0px"
	 viewBox="0 0 56.7 56.7" style="enable-background:new 0 0 56.7 56.7;" xml:space="preserve">
<style type="text/css">
	.st0{fill:none;}
	.st1{fill:none;stroke:#000000;stroke-width:0.5;stroke-linecap:round;stroke-linejoin:round;stroke-miterlimit:10;}
	.st2{fill:none;stroke:#000000;stroke-width:0.5;stroke-linejoin:round;stroke-miterlimit:10;}
	.st3{fill:none;stroke:url(#_x31_5102070);stroke-miterlimit:10;}
	.st4{fill:none;stroke:url(#_x31_5102070);stroke-width:0.5;stroke-linecap:round;stroke-linejoin:round;stroke-miterlimit:10;}
	.st5{fill:none;stroke:url(#_x31_5102070);stroke-width:0.5;stroke-linejoin:round;stroke-miterlimit:10;}
</style>
<pattern  width="56.7" height="56.7" patternUnits="userSpaceOnUse" id="_x31_5102070" viewBox="0 -56.7 56.7 56.7" style="overflow:visible;">
	<g>
		<rect y="-56.7" class="st0" width="56.7" height="56.7"/>
		<line class="st1" x1="34.7" y1="-0.9" x2="49.5" y2="-0.9"/>
		<line class="st2" x1="37.2" y1="-1.1" x2="37.2" y2="-10.8"/>
		<line class="st2" x1="47.2" y1="-10.8" x2="47.2" y2="-1.1"/>
		<line class="st1" x1="34.7" y1="-10.9" x2="49.5" y2="-10.9"/>
		<line class="st1" x1="6.6" y1="-27.6" x2="21.4" y2="-27.6"/>
		<line class="st2" x1="9.1" y1="-27.8" x2="9.1" y2="-37.5"/>
		<line class="st2" x1="19.1" y1="-37.5" x2="19.1" y2="-27.8"/>
		<line class="st1" x1="6.6" y1="-37.5" x2="21.4" y2="-37.5"/>
		<line class="st1" x1="6.6" y1="-45.4" x2="21.4" y2="-45.4"/>
		<line class="st2" x1="9.1" y1="-45.6" x2="9.1" y2="-55.3"/>
		<line class="st2" x1="19.1" y1="-55.3" x2="19.1" y2="-45.6"/>
		<line class="st1" x1="6.6" y1="-55.4" x2="21.4" y2="-55.4"/>
		<line class="st1" x1="46" y1="-34.9" x2="46" y2="-49.7"/>
		<line class="st2" x1="45.8" y1="-37.5" x2="38.1" y2="-37.5"/>
		<line class="st2" x1="38.1" y1="-47.4" x2="45.8" y2="-47.4"/>
		<line class="st1" x1="38.1" y1="-34.9" x2="38.1" y2="-49.7"/>
		<line class="st1" x1="46.3" y1="-15.9" x2="46.3" y2="-30.7"/>
		<line class="st2" x1="46.1" y1="-18.4" x2="38.4" y2="-18.4"/>
		<line class="st2" x1="38.4" y1="-28.3" x2="46.1" y2="-28.3"/>
		<line class="st1" x1="38.4" y1="-15.9" x2="38.4" y2="-30.7"/>
		<line class="st1" x1="17.9" y1="-7.7" x2="17.9" y2="-22.5"/>
		<line class="st2" x1="17.8" y1="-10.2" x2="10.1" y2="-10.2"/>
		<line class="st2" x1="10.1" y1="-20.1" x2="17.8" y2="-20.1"/>
		<line class="st1" x1="10" y1="-7.7" x2="10" y2="-22.5"/>
	</g>
</pattern>
<rect x="0" y="-0.1" class="st3" width="56.7" height="56.7"/>
<line class="st4" x1="34.7" y1="55.7" x2="49.5" y2="55.7"/>
<line class="st5" x1="37.2" y1="55.5" x2="37.2" y2="45.8"/>
<line class="st5" x1="47.2" y1="45.8" x2="47.2" y2="55.5"/>
<line class="st4" x1="34.7" y1="45.7" x2="49.5" y2="45.7"/>
<line class="st4" x1="6.6" y1="29" x2="21.4" y2="29"/>
<line class="st5" x1="9.1" y1="28.8" x2="9.1" y2="19.1"/>
<line class="st5" x1="19.1" y1="19.1" x2="19.1" y2="28.8"/>
<line class="st4" x1="6.6" y1="19.1" x2="21.4" y2="19.1"/>
<line class="st4" x1="6.6" y1="11.1" x2="21.4" y2="11.1"/>
<line class="st5" x1="9.1" y1="11" x2="9.1" y2="1.3"/>
<line class="st5" x1="19.1" y1="1.3" x2="19.1" y2="11"/>
<line class="st4" x1="6.6" y1="1.2" x2="21.4" y2="1.2"/>
<line class="st4" x1="46" y1="21.7" x2="46" y2="6.8"/>
<line class="st5" x1="45.8" y1="19.1" x2="38.1" y2="19.1"/>
<line class="st5" x1="38.1" y1="9.2" x2="45.8" y2="9.2"/>
<line class="st4" x1="38.1" y1="21.7" x2="38.1" y2="6.8"/>
<line class="st4" x1="46.3" y1="40.7" x2="46.3" y2="25.9"/>
<line class="st5" x1="46.1" y1="38.2" x2="38.4" y2="38.2"/>
<line class="st5" x1="38.4" y1="28.2" x2="46.1" y2="28.2"/>
<line class="st4" x1="38.4" y1="40.7" x2="38.4" y2="25.9"/>
<line class="st4" x1="17.9" y1="48.9" x2="17.9" y2="34.1"/>
<line class="st5" x1="17.8" y1="46.4" x2="10.1" y2="46.4"/>
<line class="st5" x1="10.1" y1="36.5" x2="17.8" y2="36.5"/>
<line class="st4" x1="10" y1="48.9" x2="10" y2="34.1"/>
</svg>
