<?xml version="1.0" encoding="utf-8"?>
<!-- Generator: Adobe Illustrator 22.0.0, SVG Export Plug-In . SVG Version: 6.00 Build 0)  -->
<svg version="1.1" id="Ebene_1" xmlns="http://www.w3.org/2000/svg" xmlns:xlink="http://www.w3.org/1999/xlink" x="0px" y="0px"
	 viewBox="0 0 56.7 56.7" style="enable-background:new 0 0 56.7 56.7;" xml:space="preserve">
<style type="text/css">
	.st0{fill:none;}
	.st1{clip-path:url(#SVGID_2_);fill:none;stroke:#000000;stroke-width:0.5;stroke-miterlimit:10;}
	.st2{clip-path:url(#SVGID_2_);fill:none;stroke:#000000;stroke-width:0.5;stroke-linecap:round;stroke-miterlimit:10;}
	.st3{fill:none;stroke:url(#_x31_5102107);stroke-miterlimit:10;}
	.st4{fill:none;stroke:url(#_x31_5102107);stroke-width:0.5;stroke-miterlimit:10;}
	.st5{fill:none;stroke:url(#_x31_5102107);stroke-width:0.5;stroke-linecap:round;stroke-miterlimit:10;}
</style>
<pattern  width="56.7" height="56.7" patternUnits="userSpaceOnUse" id="_x31_5102107" viewBox="0 -57.3 56.7 56.7" style="overflow:visible;">
	<g>
		<rect y="-57.3" class="st0" width="56.7" height="56.7"/>
		<g>
			<defs>
				<rect id="SVGID_1_" y="-57.3" width="56.7" height="56.7"/>
			</defs>
			<clipPath id="SVGID_2_">
				<use xlink:href="#SVGID_1_"  style="overflow:visible;"/>
			</clipPath>
			<line class="st1" x1="0" y1="-38.2" x2="56.7" y2="-38.2"/>
			<line class="st1" x1="0" y1="-47.7" x2="56.7" y2="-47.7"/>
			<line class="st1" x1="0.1" y1="-57.2" x2="56.7" y2="-57.2"/>
			<line class="st1" x1="6" y1="-47.7" x2="6" y2="-57.2"/>
			<line class="st1" x1="6" y1="-28.7" x2="6" y2="-38.2"/>
			<line class="st1" x1="6" y1="-9.7" x2="6" y2="-19.2"/>
			<line class="st1" x1="20.4" y1="-38.2" x2="20.4" y2="-47.7"/>
			<line class="st1" x1="48.8" y1="-38.2" x2="48.8" y2="-47.7"/>
			<line class="st1" x1="20.4" y1="-19.4" x2="20.4" y2="-28.7"/>
			<line class="st1" x1="48.8" y1="-19.4" x2="48.8" y2="-28.7"/>
			<line class="st1" x1="34.3" y1="-47.7" x2="34.3" y2="-57.2"/>
			<line class="st1" x1="34.3" y1="-28.7" x2="34.3" y2="-38.2"/>
			<line class="st1" x1="34.3" y1="-9.7" x2="34.3" y2="-19.2"/>
			<line class="st1" x1="0" y1="-28.7" x2="56.7" y2="-28.7"/>
			<line class="st1" x1="0" y1="-19.2" x2="56.7" y2="-19.2"/>
			<line class="st1" x1="20.4" y1="-0.3" x2="20.4" y2="-9.7"/>
			<line class="st1" x1="48.8" y1="-0.3" x2="48.8" y2="-9.7"/>
			<line class="st1" x1="0" y1="-0.3" x2="56.7" y2="-0.3"/>
			<line class="st1" x1="0" y1="-9.7" x2="56.7" y2="-9.7"/>
			<line class="st2" x1="27.1" y1="-42.9" x2="41.3" y2="-42.9"/>
			<line class="st2" x1="0.3" y1="-24" x2="14.5" y2="-24"/>
		</g>
	</g>
</pattern>
<rect x="0" y="0" class="st3" width="56.7" height="56.7"/>
<line class="st4" x1="0" y1="19.1" x2="56.7" y2="19.1"/>
<line class="st4" x1="0" y1="9.6" x2="56.7" y2="9.6"/>
<line class="st4" x1="0.1" y1="0.1" x2="56.7" y2="0.1"/>
<line class="st4" x1="6" y1="9.6" x2="6" y2="0.1"/>
<line class="st4" x1="6" y1="28.6" x2="6" y2="19.1"/>
<line class="st4" x1="6" y1="47.5" x2="6" y2="38.1"/>
<line class="st4" x1="20.4" y1="19.1" x2="20.4" y2="9.6"/>
<line class="st4" x1="48.8" y1="19.1" x2="48.8" y2="9.6"/>
<line class="st4" x1="20.4" y1="37.9" x2="20.4" y2="28.6"/>
<line class="st4" x1="48.8" y1="37.9" x2="48.8" y2="28.6"/>
<line class="st4" x1="34.3" y1="9.6" x2="34.3" y2="0.1"/>
<line class="st4" x1="34.3" y1="28.6" x2="34.3" y2="19.1"/>
<line class="st4" x1="34.3" y1="47.5" x2="34.3" y2="38.1"/>
<line class="st4" x1="0" y1="28.6" x2="56.7" y2="28.6"/>
<line class="st4" x1="0" y1="38.1" x2="56.7" y2="38.1"/>
<line class="st4" x1="20.4" y1="57" x2="20.4" y2="47.5"/>
<line class="st4" x1="48.8" y1="57" x2="48.8" y2="47.5"/>
<line class="st4" x1="0" y1="57" x2="56.7" y2="57"/>
<line class="st4" x1="0" y1="47.5" x2="56.7" y2="47.5"/>
<line class="st5" x1="27.1" y1="14.3" x2="41.3" y2="14.3"/>
<line class="st5" x1="0.3" y1="33.2" x2="14.5" y2="33.2"/>
</svg>
