<?xml version="1.0" encoding="utf-8"?>
<!-- Generator: Adobe Illustrator 22.0.0, SVG Export Plug-In . SVG Version: 6.00 Build 0)  -->
<svg version="1.1" id="Ebene_1" xmlns="http://www.w3.org/2000/svg" xmlns:xlink="http://www.w3.org/1999/xlink" x="0px" y="0px"
	 viewBox="0 0 56.7 56.7" style="enable-background:new 0 0 56.7 56.7;" xml:space="preserve">
<style type="text/css">
	.st0{fill:none;}
	.st1{fill:url(#_x31_5102009);}
</style>
<pattern  width="56.7" height="56.7" patternUnits="userSpaceOnUse" id="_x31_5102009" viewBox="0 -56.7 56.7 56.7" style="overflow:visible;">
	<g>
		<rect y="-56.7" class="st0" width="56.7" height="56.7"/>
		<circle cx="2.9" cy="-53.9" r="0.7"/>
		<circle cx="8.6" cy="-53.9" r="0.7"/>
		<circle cx="14.3" cy="-53.9" r="0.7"/>
		<circle cx="19.9" cy="-53.9" r="0.7"/>
		<circle cx="25.6" cy="-53.9" r="0.7"/>
		<circle cx="31.3" cy="-53.9" r="0.7"/>
		<circle cx="36.9" cy="-53.9" r="0.7"/>
		<circle cx="42.6" cy="-53.9" r="0.7"/>
		<circle cx="48.3" cy="-53.9" r="0.7"/>
		<circle cx="53.9" cy="-53.9" r="0.7"/>
		<circle cx="2.9" cy="-48.2" r="0.7"/>
		<circle cx="8.6" cy="-48.2" r="0.7"/>
		<circle cx="14.3" cy="-48.2" r="0.7"/>
		<circle cx="19.9" cy="-48.2" r="0.7"/>
		<circle cx="25.6" cy="-48.2" r="0.7"/>
		<circle cx="31.3" cy="-48.2" r="0.7"/>
		<circle cx="36.9" cy="-48.2" r="0.7"/>
		<circle cx="42.6" cy="-48.2" r="0.7"/>
		<circle cx="48.3" cy="-48.2" r="0.7"/>
		<circle cx="53.9" cy="-48.2" r="0.7"/>
		<circle cx="2.9" cy="-42.5" r="0.7"/>
		<circle cx="8.6" cy="-42.5" r="0.7"/>
		<circle cx="14.3" cy="-42.5" r="0.7"/>
		<circle cx="19.9" cy="-42.5" r="0.7"/>
		<circle cx="25.6" cy="-42.5" r="0.7"/>
		<circle cx="31.3" cy="-42.5" r="0.7"/>
		<circle cx="36.9" cy="-42.5" r="0.7"/>
		<circle cx="42.6" cy="-42.5" r="0.7"/>
		<circle cx="48.3" cy="-42.5" r="0.7"/>
		<circle cx="53.9" cy="-42.5" r="0.7"/>
		<circle cx="2.9" cy="-36.9" r="0.7"/>
		<circle cx="8.6" cy="-36.9" r="0.7"/>
		<circle cx="14.3" cy="-36.9" r="0.7"/>
		<circle cx="19.9" cy="-36.9" r="0.7"/>
		<circle cx="25.6" cy="-36.9" r="0.7"/>
		<circle cx="31.3" cy="-36.9" r="0.7"/>
		<circle cx="36.9" cy="-36.9" r="0.7"/>
		<circle cx="42.6" cy="-36.9" r="0.7"/>
		<circle cx="48.3" cy="-36.9" r="0.7"/>
		<circle cx="53.9" cy="-36.9" r="0.7"/>
		<circle cx="2.9" cy="-31.2" r="0.7"/>
		<circle cx="8.6" cy="-31.2" r="0.7"/>
		<circle cx="14.3" cy="-31.2" r="0.7"/>
		<circle cx="19.9" cy="-31.2" r="0.7"/>
		<circle cx="25.6" cy="-31.2" r="0.7"/>
		<circle cx="31.3" cy="-31.2" r="0.7"/>
		<circle cx="36.9" cy="-31.2" r="0.7"/>
		<circle cx="42.6" cy="-31.2" r="0.7"/>
		<circle cx="48.3" cy="-31.2" r="0.7"/>
		<circle cx="53.9" cy="-31.2" r="0.7"/>
		<circle cx="2.9" cy="-25.5" r="0.7"/>
		<circle cx="8.6" cy="-25.5" r="0.7"/>
		<circle cx="14.3" cy="-25.5" r="0.7"/>
		<circle cx="19.9" cy="-25.5" r="0.7"/>
		<circle cx="25.6" cy="-25.5" r="0.7"/>
		<circle cx="31.3" cy="-25.5" r="0.7"/>
		<circle cx="36.9" cy="-25.5" r="0.7"/>
		<circle cx="42.6" cy="-25.5" r="0.7"/>
		<circle cx="48.3" cy="-25.5" r="0.7"/>
		<circle cx="53.9" cy="-25.5" r="0.7"/>
		<circle cx="2.9" cy="-19.8" r="0.7"/>
		<circle cx="8.6" cy="-19.8" r="0.7"/>
		<circle cx="14.3" cy="-19.8" r="0.7"/>
		<circle cx="19.9" cy="-19.8" r="0.7"/>
		<circle cx="25.6" cy="-19.8" r="0.7"/>
		<circle cx="31.3" cy="-19.8" r="0.7"/>
		<circle cx="36.9" cy="-19.8" r="0.7"/>
		<circle cx="42.6" cy="-19.8" r="0.7"/>
		<circle cx="48.3" cy="-19.8" r="0.7"/>
		<circle cx="53.9" cy="-19.8" r="0.7"/>
		<circle cx="2.9" cy="-14.2" r="0.7"/>
		<circle cx="8.6" cy="-14.2" r="0.7"/>
		<circle cx="14.3" cy="-14.2" r="0.7"/>
		<circle cx="19.9" cy="-14.2" r="0.7"/>
		<circle cx="25.6" cy="-14.2" r="0.7"/>
		<circle cx="31.3" cy="-14.2" r="0.7"/>
		<circle cx="36.9" cy="-14.2" r="0.7"/>
		<circle cx="42.6" cy="-14.2" r="0.7"/>
		<circle cx="48.3" cy="-14.2" r="0.7"/>
		<circle cx="53.9" cy="-14.2" r="0.7"/>
		<circle cx="2.9" cy="-8.5" r="0.7"/>
		<circle cx="8.6" cy="-8.5" r="0.7"/>
		<circle cx="14.3" cy="-8.5" r="0.7"/>
		<circle cx="19.9" cy="-8.5" r="0.7"/>
		<circle cx="25.6" cy="-8.5" r="0.7"/>
		<circle cx="31.3" cy="-8.5" r="0.7"/>
		<circle cx="36.9" cy="-8.5" r="0.7"/>
		<circle cx="42.6" cy="-8.5" r="0.7"/>
		<circle cx="48.3" cy="-8.5" r="0.7"/>
		<circle cx="53.9" cy="-8.5" r="0.7"/>
		<circle cx="2.9" cy="-2.8" r="0.7"/>
		<circle cx="8.6" cy="-2.8" r="0.7"/>
		<circle cx="14.3" cy="-2.8" r="0.7"/>
		<circle cx="19.9" cy="-2.8" r="0.7"/>
		<circle cx="25.6" cy="-2.8" r="0.7"/>
		<circle cx="31.3" cy="-2.8" r="0.7"/>
		<circle cx="36.9" cy="-2.8" r="0.7"/>
		<circle cx="42.6" cy="-2.8" r="0.7"/>
		<circle cx="48.3" cy="-2.8" r="0.7"/>
		<circle cx="53.9" cy="-2.8" r="0.7"/>
	</g>
</pattern>
<rect x="0" y="0" class="st1" width="56.7" height="56.7"/>
<circle class="st1" cx="2.9" cy="2.8" r="0.7"/>
<circle class="st1" cx="8.6" cy="2.8" r="0.7"/>
<circle class="st1" cx="14.3" cy="2.8" r="0.7"/>
<circle class="st1" cx="19.9" cy="2.8" r="0.7"/>
<circle class="st1" cx="25.6" cy="2.8" r="0.7"/>
<circle class="st1" cx="31.3" cy="2.8" r="0.7"/>
<circle class="st1" cx="36.9" cy="2.8" r="0.7"/>
<circle class="st1" cx="42.6" cy="2.8" r="0.7"/>
<circle class="st1" cx="48.3" cy="2.8" r="0.7"/>
<circle class="st1" cx="53.9" cy="2.8" r="0.7"/>
<circle class="st1" cx="2.9" cy="8.5" r="0.7"/>
<circle class="st1" cx="8.6" cy="8.5" r="0.7"/>
<circle class="st1" cx="14.3" cy="8.5" r="0.7"/>
<circle class="st1" cx="19.9" cy="8.5" r="0.7"/>
<circle class="st1" cx="25.6" cy="8.5" r="0.7"/>
<circle class="st1" cx="31.3" cy="8.5" r="0.7"/>
<circle class="st1" cx="36.9" cy="8.5" r="0.7"/>
<circle class="st1" cx="42.6" cy="8.5" r="0.7"/>
<circle class="st1" cx="48.3" cy="8.5" r="0.7"/>
<circle class="st1" cx="53.9" cy="8.5" r="0.7"/>
<circle class="st1" cx="2.9" cy="14.2" r="0.7"/>
<circle class="st1" cx="8.6" cy="14.2" r="0.7"/>
<circle class="st1" cx="14.3" cy="14.2" r="0.7"/>
<circle class="st1" cx="19.9" cy="14.2" r="0.7"/>
<circle class="st1" cx="25.6" cy="14.2" r="0.7"/>
<circle class="st1" cx="31.3" cy="14.2" r="0.7"/>
<circle class="st1" cx="36.9" cy="14.2" r="0.7"/>
<circle class="st1" cx="42.6" cy="14.2" r="0.7"/>
<circle class="st1" cx="48.3" cy="14.2" r="0.7"/>
<circle class="st1" cx="53.9" cy="14.2" r="0.7"/>
<circle class="st1" cx="2.9" cy="19.8" r="0.7"/>
<circle class="st1" cx="8.6" cy="19.8" r="0.7"/>
<circle class="st1" cx="14.3" cy="19.8" r="0.7"/>
<circle class="st1" cx="19.9" cy="19.8" r="0.7"/>
<circle class="st1" cx="25.6" cy="19.8" r="0.7"/>
<circle class="st1" cx="31.3" cy="19.8" r="0.7"/>
<circle class="st1" cx="36.9" cy="19.8" r="0.7"/>
<circle class="st1" cx="42.6" cy="19.8" r="0.7"/>
<circle class="st1" cx="48.3" cy="19.8" r="0.7"/>
<circle class="st1" cx="53.9" cy="19.8" r="0.7"/>
<circle class="st1" cx="2.9" cy="25.5" r="0.7"/>
<circle class="st1" cx="8.6" cy="25.5" r="0.7"/>
<circle class="st1" cx="14.3" cy="25.5" r="0.7"/>
<circle class="st1" cx="19.9" cy="25.5" r="0.7"/>
<circle class="st1" cx="25.6" cy="25.5" r="0.7"/>
<circle class="st1" cx="31.3" cy="25.5" r="0.7"/>
<circle class="st1" cx="36.9" cy="25.5" r="0.7"/>
<circle class="st1" cx="42.6" cy="25.5" r="0.7"/>
<circle class="st1" cx="48.3" cy="25.5" r="0.7"/>
<circle class="st1" cx="53.9" cy="25.5" r="0.7"/>
<circle class="st1" cx="2.9" cy="31.2" r="0.7"/>
<circle class="st1" cx="8.6" cy="31.2" r="0.7"/>
<circle class="st1" cx="14.3" cy="31.2" r="0.7"/>
<circle class="st1" cx="19.9" cy="31.2" r="0.7"/>
<circle class="st1" cx="25.6" cy="31.2" r="0.7"/>
<circle class="st1" cx="31.3" cy="31.2" r="0.7"/>
<circle class="st1" cx="36.9" cy="31.2" r="0.7"/>
<circle class="st1" cx="42.6" cy="31.2" r="0.7"/>
<circle class="st1" cx="48.3" cy="31.2" r="0.7"/>
<circle class="st1" cx="53.9" cy="31.2" r="0.7"/>
<circle class="st1" cx="2.9" cy="36.8" r="0.7"/>
<circle class="st1" cx="8.6" cy="36.8" r="0.7"/>
<circle class="st1" cx="14.3" cy="36.8" r="0.7"/>
<circle class="st1" cx="19.9" cy="36.8" r="0.7"/>
<circle class="st1" cx="25.6" cy="36.8" r="0.7"/>
<circle class="st1" cx="31.3" cy="36.8" r="0.7"/>
<circle class="st1" cx="36.9" cy="36.8" r="0.7"/>
<circle class="st1" cx="42.6" cy="36.8" r="0.7"/>
<circle class="st1" cx="48.3" cy="36.8" r="0.7"/>
<circle class="st1" cx="53.9" cy="36.8" r="0.7"/>
<circle class="st1" cx="2.9" cy="42.5" r="0.7"/>
<circle class="st1" cx="8.6" cy="42.5" r="0.7"/>
<circle class="st1" cx="14.3" cy="42.5" r="0.7"/>
<circle class="st1" cx="19.9" cy="42.5" r="0.7"/>
<circle class="st1" cx="25.6" cy="42.5" r="0.7"/>
<circle class="st1" cx="31.3" cy="42.5" r="0.7"/>
<circle class="st1" cx="36.9" cy="42.5" r="0.7"/>
<circle class="st1" cx="42.6" cy="42.5" r="0.7"/>
<circle class="st1" cx="48.3" cy="42.5" r="0.7"/>
<circle class="st1" cx="53.9" cy="42.5" r="0.7"/>
<circle class="st1" cx="2.9" cy="48.2" r="0.7"/>
<circle class="st1" cx="8.6" cy="48.2" r="0.7"/>
<circle class="st1" cx="14.3" cy="48.2" r="0.7"/>
<circle class="st1" cx="19.9" cy="48.2" r="0.7"/>
<circle class="st1" cx="25.6" cy="48.2" r="0.7"/>
<circle class="st1" cx="31.3" cy="48.2" r="0.7"/>
<circle class="st1" cx="36.9" cy="48.2" r="0.7"/>
<circle class="st1" cx="42.6" cy="48.2" r="0.7"/>
<circle class="st1" cx="48.3" cy="48.2" r="0.7"/>
<circle class="st1" cx="53.9" cy="48.2" r="0.7"/>
<circle class="st1" cx="2.9" cy="53.9" r="0.7"/>
<circle class="st1" cx="8.6" cy="53.9" r="0.7"/>
<circle class="st1" cx="14.3" cy="53.9" r="0.7"/>
<circle class="st1" cx="19.9" cy="53.9" r="0.7"/>
<circle class="st1" cx="25.6" cy="53.9" r="0.7"/>
<circle class="st1" cx="31.3" cy="53.9" r="0.7"/>
<circle class="st1" cx="36.9" cy="53.9" r="0.7"/>
<circle class="st1" cx="42.6" cy="53.9" r="0.7"/>
<circle class="st1" cx="48.3" cy="53.9" r="0.7"/>
<circle class="st1" cx="53.9" cy="53.9" r="0.7"/>
</svg>
