<?xml version="1.0" encoding="utf-8"?>
<!-- Generator: Adobe Illustrator 22.0.0, SVG Export Plug-In . SVG Version: 6.00 Build 0)  -->
<svg version="1.1" id="Ebene_1" xmlns="http://www.w3.org/2000/svg" xmlns:xlink="http://www.w3.org/1999/xlink" x="0px" y="0px"
	 viewBox="0 0 56.7 56.7" style="enable-background:new 0 0 56.7 56.7;" xml:space="preserve">
<style type="text/css">
	.st0{fill:none;}
	.st1{clip-path:url(#SVGID_2_);fill:none;stroke:#000000;stroke-width:0.5;stroke-linecap:round;stroke-miterlimit:10;}
	.st2{fill:url(#_x31_5102026);}
	.st3{fill:url(#_x31_5102026);stroke:#000000;stroke-width:0.5;stroke-linecap:round;stroke-miterlimit:10;}
</style>
<pattern  width="56.7" height="56.7" patternUnits="userSpaceOnUse" id="_x31_5102026" viewBox="7.1 -56.9 56.7 56.7" style="overflow:visible;">
	<g>
		<rect x="7.1" y="-56.9" class="st0" width="56.7" height="56.7"/>
		<g>
			<defs>
				<rect id="SVGID_1_" x="7.1" y="-56.9" width="56.7" height="56.7"/>
			</defs>
			<clipPath id="SVGID_2_">
				<use xlink:href="#SVGID_1_"  style="overflow:visible;"/>
			</clipPath>
			<line class="st1" x1="0.3" y1="-45.6" x2="13.9" y2="-45.6"/>
			<line class="st1" x1="19.1" y1="-45.6" x2="32.8" y2="-45.6"/>
			<line class="st1" x1="38" y1="-45.6" x2="51.7" y2="-45.6"/>
			<line class="st1" x1="56.9" y1="-45.6" x2="70.6" y2="-45.6"/>
			<line class="st1" x1="7.3" y1="-51.3" x2="21" y2="-51.3"/>
			<line class="st1" x1="26.2" y1="-51.3" x2="39.9" y2="-51.3"/>
			<line class="st1" x1="45.1" y1="-51.3" x2="58.8" y2="-51.3"/>
			<line class="st1" x1="64" y1="-51.3" x2="77.7" y2="-51.3"/>
			<line class="st1" x1="0.3" y1="-56.9" x2="13.9" y2="-56.9"/>
			<line class="st1" x1="19.1" y1="-56.9" x2="32.8" y2="-56.9"/>
			<line class="st1" x1="38" y1="-56.9" x2="51.7" y2="-56.9"/>
			<line class="st1" x1="56.9" y1="-56.9" x2="70.6" y2="-56.9"/>
			<line class="st1" x1="0.3" y1="-34.3" x2="13.9" y2="-34.3"/>
			<line class="st1" x1="19.1" y1="-34.3" x2="32.8" y2="-34.3"/>
			<line class="st1" x1="38" y1="-34.3" x2="51.7" y2="-34.3"/>
			<line class="st1" x1="56.9" y1="-34.3" x2="70.6" y2="-34.3"/>
			<line class="st1" x1="7.3" y1="-39.9" x2="21" y2="-39.9"/>
			<line class="st1" x1="26.2" y1="-39.9" x2="39.9" y2="-39.9"/>
			<line class="st1" x1="45.1" y1="-39.9" x2="58.8" y2="-39.9"/>
			<line class="st1" x1="64" y1="-39.9" x2="77.7" y2="-39.9"/>
			<line class="st1" x1="0.3" y1="-22.9" x2="13.9" y2="-22.9"/>
			<line class="st1" x1="19.1" y1="-22.9" x2="32.8" y2="-22.9"/>
			<line class="st1" x1="38" y1="-22.9" x2="51.7" y2="-22.9"/>
			<line class="st1" x1="56.9" y1="-22.9" x2="70.6" y2="-22.9"/>
			<line class="st1" x1="7.3" y1="-28.6" x2="21" y2="-28.6"/>
			<line class="st1" x1="26.2" y1="-28.6" x2="39.9" y2="-28.6"/>
			<line class="st1" x1="45.1" y1="-28.6" x2="58.8" y2="-28.6"/>
			<line class="st1" x1="64" y1="-28.6" x2="77.7" y2="-28.6"/>
			<line class="st1" x1="0.3" y1="-11.6" x2="13.9" y2="-11.6"/>
			<line class="st1" x1="19.1" y1="-11.6" x2="32.8" y2="-11.6"/>
			<line class="st1" x1="38" y1="-11.6" x2="51.7" y2="-11.6"/>
			<line class="st1" x1="56.9" y1="-11.6" x2="70.6" y2="-11.6"/>
			<line class="st1" x1="7.3" y1="-17.3" x2="21" y2="-17.3"/>
			<line class="st1" x1="26.2" y1="-17.3" x2="39.9" y2="-17.3"/>
			<line class="st1" x1="45.1" y1="-17.3" x2="58.8" y2="-17.3"/>
			<line class="st1" x1="64" y1="-17.3" x2="77.7" y2="-17.3"/>
			<line class="st1" x1="0.3" y1="-0.3" x2="13.9" y2="-0.3"/>
			<line class="st1" x1="19.1" y1="-0.3" x2="32.8" y2="-0.3"/>
			<line class="st1" x1="38" y1="-0.3" x2="51.7" y2="-0.3"/>
			<line class="st1" x1="56.9" y1="-0.3" x2="70.6" y2="-0.3"/>
			<line class="st1" x1="7.3" y1="-5.9" x2="21" y2="-5.9"/>
			<line class="st1" x1="26.2" y1="-5.9" x2="39.9" y2="-5.9"/>
			<line class="st1" x1="45.1" y1="-5.9" x2="58.8" y2="-5.9"/>
			<line class="st1" x1="64" y1="-5.9" x2="77.7" y2="-5.9"/>
		</g>
	</g>
</pattern>
<rect x="0.1" y="-0.1" class="st2" width="56.7" height="56.7"/>
<line class="st3" x1="-6.7" y1="11.3" x2="7" y2="11.3"/>
<line class="st3" x1="12.2" y1="11.3" x2="25.9" y2="11.3"/>
<line class="st3" x1="31.1" y1="11.3" x2="44.8" y2="11.3"/>
<line class="st3" x1="50" y1="11.3" x2="63.7" y2="11.3"/>
<line class="st3" x1="0.4" y1="5.6" x2="14" y2="5.6"/>
<line class="st3" x1="19.3" y1="5.6" x2="32.9" y2="5.6"/>
<line class="st3" x1="38.2" y1="5.6" x2="51.8" y2="5.6"/>
<line class="st3" x1="57.1" y1="5.6" x2="70.7" y2="5.6"/>
<line class="st3" x1="-6.7" y1="-0.1" x2="7" y2="-0.1"/>
<line class="st3" x1="12.2" y1="-0.1" x2="25.9" y2="-0.1"/>
<line class="st3" x1="31.1" y1="-0.1" x2="44.8" y2="-0.1"/>
<line class="st3" x1="50" y1="-0.1" x2="63.7" y2="-0.1"/>
<line class="st3" x1="-6.7" y1="22.6" x2="7" y2="22.6"/>
<line class="st3" x1="12.2" y1="22.6" x2="25.9" y2="22.6"/>
<line class="st3" x1="31.1" y1="22.6" x2="44.8" y2="22.6"/>
<line class="st3" x1="50" y1="22.6" x2="63.7" y2="22.6"/>
<line class="st3" x1="0.4" y1="16.9" x2="14" y2="16.9"/>
<line class="st3" x1="19.3" y1="16.9" x2="32.9" y2="16.9"/>
<line class="st3" x1="38.2" y1="16.9" x2="51.8" y2="16.9"/>
<line class="st3" x1="57.1" y1="16.9" x2="70.7" y2="16.9"/>
<line class="st3" x1="-6.7" y1="34" x2="7" y2="34"/>
<line class="st3" x1="12.2" y1="34" x2="25.9" y2="34"/>
<line class="st3" x1="31.1" y1="34" x2="44.8" y2="34"/>
<line class="st3" x1="50" y1="34" x2="63.7" y2="34"/>
<line class="st3" x1="0.4" y1="28.3" x2="14" y2="28.3"/>
<line class="st3" x1="19.3" y1="28.3" x2="32.9" y2="28.3"/>
<line class="st3" x1="38.2" y1="28.3" x2="51.8" y2="28.3"/>
<line class="st3" x1="57.1" y1="28.3" x2="70.7" y2="28.3"/>
<line class="st3" x1="-6.7" y1="45.3" x2="7" y2="45.3"/>
<line class="st3" x1="12.2" y1="45.3" x2="25.9" y2="45.3"/>
<line class="st3" x1="31.1" y1="45.3" x2="44.8" y2="45.3"/>
<line class="st3" x1="50" y1="45.3" x2="63.7" y2="45.3"/>
<line class="st3" x1="0.4" y1="39.6" x2="14" y2="39.6"/>
<line class="st3" x1="19.3" y1="39.6" x2="32.9" y2="39.6"/>
<line class="st3" x1="38.2" y1="39.6" x2="51.8" y2="39.6"/>
<line class="st3" x1="57.1" y1="39.6" x2="70.7" y2="39.6"/>
<line class="st3" x1="-6.7" y1="56.6" x2="7" y2="56.6"/>
<line class="st3" x1="12.2" y1="56.6" x2="25.9" y2="56.6"/>
<line class="st3" x1="31.1" y1="56.6" x2="44.8" y2="56.6"/>
<line class="st3" x1="50" y1="56.6" x2="63.7" y2="56.6"/>
<line class="st3" x1="0.4" y1="51" x2="14" y2="51"/>
<line class="st3" x1="19.3" y1="51" x2="32.9" y2="51"/>
<line class="st3" x1="38.2" y1="51" x2="51.8" y2="51"/>
<line class="st3" x1="57.1" y1="51" x2="70.7" y2="51"/>
</svg>
