<?xml version="1.0" encoding="utf-8"?>
<!-- Generator: Adobe Illustrator 22.0.0, SVG Export Plug-In . SVG Version: 6.00 Build 0)  -->
<svg version="1.1" id="Ebene_1" xmlns="http://www.w3.org/2000/svg" xmlns:xlink="http://www.w3.org/1999/xlink" x="0px" y="0px"
	 viewBox="0 0 56.7 56.7" style="enable-background:new 0 0 56.7 56.7;" xml:space="preserve">
<style type="text/css">
	.st0{fill:none;}
	.st1{clip-path:url(#SVGID_2_);fill:none;stroke:#000000;stroke-width:0.5;stroke-linecap:round;stroke-miterlimit:10;}
	.st2{fill:none;stroke:url(#_x31_5102027);stroke-miterlimit:10;}
	.st3{fill:none;stroke:url(#_x31_5102027);stroke-width:0.5;stroke-linecap:round;stroke-miterlimit:10;}
</style>
<pattern  width="56.7" height="56.7" patternUnits="userSpaceOnUse" id="_x31_5102027" viewBox="20 -60.4 56.7 56.7" style="overflow:visible;">
	<g>
		<rect x="20" y="-60.4" class="st0" width="56.7" height="56.7"/>
		<g>
			<defs>
				<rect id="SVGID_1_" x="20" y="-60.4" width="56.7" height="56.7"/>
			</defs>
			<clipPath id="SVGID_2_">
				<use xlink:href="#SVGID_1_"  style="overflow:visible;"/>
			</clipPath>
			<line class="st1" x1="28.9" y1="-50.9" x2="51.1" y2="-50.9"/>
			<line class="st1" x1="57.4" y1="-50.9" x2="79.2" y2="-50.9"/>
			<line class="st1" x1="28.9" y1="-31.9" x2="51.1" y2="-31.9"/>
			<line class="st1" x1="57.4" y1="-31.9" x2="79.2" y2="-31.9"/>
			<line class="st1" x1="28.9" y1="-12.9" x2="51.1" y2="-12.9"/>
			<line class="st1" x1="0.3" y1="-50.9" x2="22.5" y2="-50.9"/>
			<line class="st1" x1="0.3" y1="-31.9" x2="22.5" y2="-31.9"/>
			<line class="st1" x1="0.3" y1="-12.9" x2="22.5" y2="-12.9"/>
			<line class="st1" x1="57.4" y1="-12.9" x2="79.2" y2="-12.9"/>
			<line class="st1" x1="15.4" y1="-41.3" x2="37.3" y2="-41.3"/>
			<line class="st1" x1="43.5" y1="-41.3" x2="65.8" y2="-41.3"/>
			<line class="st1" x1="15.4" y1="-60.3" x2="37.3" y2="-60.3"/>
			<line class="st1" x1="43.5" y1="-60.3" x2="65.8" y2="-60.3"/>
			<line class="st1" x1="15.4" y1="-22.3" x2="37.3" y2="-22.3"/>
			<line class="st1" x1="74.1" y1="-41.3" x2="95.9" y2="-41.3"/>
			<line class="st1" x1="74.1" y1="-60.3" x2="95.9" y2="-60.3"/>
			<line class="st1" x1="74.1" y1="-22.3" x2="95.9" y2="-22.3"/>
			<line class="st1" x1="43.5" y1="-22.3" x2="65.8" y2="-22.3"/>
			<line class="st1" x1="26" y1="-47.5" x2="26" y2="-54.6"/>
			<line class="st1" x1="26" y1="-28.2" x2="26" y2="-35.4"/>
			<line class="st1" x1="26" y1="-9.5" x2="26" y2="-16.6"/>
			<line class="st1" x1="40.4" y1="-37.6" x2="40.4" y2="-44.8"/>
			<line class="st1" x1="68.8" y1="-37.6" x2="68.8" y2="-44.8"/>
			<line class="st1" x1="40.4" y1="-56.6" x2="40.4" y2="-63.8"/>
			<line class="st1" x1="68.8" y1="-56.6" x2="68.8" y2="-63.8"/>
			<line class="st1" x1="40.4" y1="-18.6" x2="40.4" y2="-25.7"/>
			<line class="st1" x1="68.8" y1="-18.6" x2="68.8" y2="-25.7"/>
			<line class="st1" x1="54.3" y1="-47.5" x2="54.3" y2="-54.6"/>
			<line class="st1" x1="54.3" y1="-28.2" x2="54.3" y2="-35.4"/>
			<line class="st1" x1="54.3" y1="-9.5" x2="54.3" y2="-16.6"/>
			<line class="st1" x1="40.4" y1="-0.3" x2="40.4" y2="-7.4"/>
			<line class="st1" x1="68.8" y1="-0.3" x2="68.8" y2="-7.4"/>
		</g>
	</g>
</pattern>
<rect x="0" y="0" class="st2" width="56.7" height="56.7"/>
<line class="st3" x1="8.9" y1="9.5" x2="31.1" y2="9.5"/>
<line class="st3" x1="37.4" y1="9.5" x2="59.2" y2="9.5"/>
<line class="st3" x1="8.9" y1="28.5" x2="31.1" y2="28.5"/>
<line class="st3" x1="37.4" y1="28.5" x2="59.2" y2="28.5"/>
<line class="st3" x1="8.9" y1="47.5" x2="31.1" y2="47.5"/>
<line class="st3" x1="-19.8" y1="9.5" x2="2.5" y2="9.5"/>
<line class="st3" x1="-19.8" y1="28.5" x2="2.5" y2="28.5"/>
<line class="st3" x1="-19.8" y1="47.5" x2="2.5" y2="47.5"/>
<line class="st3" x1="37.4" y1="47.5" x2="59.2" y2="47.5"/>
<line class="st3" x1="-4.6" y1="19.1" x2="17.3" y2="19.1"/>
<line class="st3" x1="23.5" y1="19.1" x2="45.8" y2="19.1"/>
<line class="st3" x1="-4.6" y1="0.1" x2="17.3" y2="0.1"/>
<line class="st3" x1="23.5" y1="0.1" x2="45.8" y2="0.1"/>
<line class="st3" x1="-4.6" y1="38.1" x2="17.3" y2="38.1"/>
<line class="st3" x1="54.1" y1="19.1" x2="75.9" y2="19.1"/>
<line class="st3" x1="54.1" y1="0.1" x2="75.9" y2="0.1"/>
<line class="st3" x1="54.1" y1="38.1" x2="75.9" y2="38.1"/>
<line class="st3" x1="23.5" y1="38.1" x2="45.8" y2="38.1"/>
<line class="st3" x1="6" y1="12.9" x2="6" y2="5.8"/>
<line class="st3" x1="6" y1="32.2" x2="6" y2="25"/>
<line class="st3" x1="6" y1="50.9" x2="6" y2="43.8"/>
<line class="st3" x1="20.4" y1="22.7" x2="20.4" y2="15.6"/>
<line class="st3" x1="48.8" y1="22.7" x2="48.8" y2="15.6"/>
<line class="st3" x1="20.4" y1="3.8" x2="20.4" y2="-3.4"/>
<line class="st3" x1="48.8" y1="3.8" x2="48.8" y2="-3.4"/>
<line class="st3" x1="20.4" y1="41.8" x2="20.4" y2="34.7"/>
<line class="st3" x1="48.8" y1="41.8" x2="48.8" y2="34.7"/>
<line class="st3" x1="34.3" y1="12.9" x2="34.3" y2="5.8"/>
<line class="st3" x1="34.3" y1="32.2" x2="34.3" y2="25"/>
<line class="st3" x1="34.3" y1="50.9" x2="34.3" y2="43.8"/>
<line class="st3" x1="20.4" y1="60.1" x2="20.4" y2="53"/>
<line class="st3" x1="48.8" y1="60.1" x2="48.8" y2="53"/>
</svg>
