<?xml version="1.0" encoding="utf-8"?>
<!-- Generator: Adobe Illustrator 22.0.0, SVG Export Plug-In . SVG Version: 6.00 Build 0)  -->
<svg version="1.1" id="Ebene_1" xmlns="http://www.w3.org/2000/svg" xmlns:xlink="http://www.w3.org/1999/xlink" x="0px" y="0px"
	 viewBox="0 0 56.7 56.7" style="enable-background:new 0 0 56.7 56.7;" xml:space="preserve">
<style type="text/css">
	.st0{fill:none;}
	.st1{fill:none;stroke:#000000;stroke-width:0.5;stroke-miterlimit:10;}
	.st2{fill:url(#_x31_5102007);}
	.st3{fill:url(#_x31_5102007);stroke:#000000;stroke-width:0.5;stroke-miterlimit:10;}
</style>
<pattern  width="56.7" height="56.7" patternUnits="userSpaceOnUse" id="_x31_5102007" viewBox="0 -56.7 56.7 56.7" style="overflow:visible;">
	<g>
		<rect x="0" y="-56.7" class="st0" width="56.7" height="56.7"/>
		<path class="st1" d="M25.3-43.5c1.7-0.2,4.2-0.8,5.6-1.4c1.5-0.6,2.7-1.8,2.7-2.7c0-0.9-0.6-2-1.4-2.6c-0.7-0.6-2.6-1.2-4.3-1.5
			C26.2-52,24-51.9,23-51.4c-1.1,0.4-2.4,1.8-3,2.9c-0.6,1.2-0.4,3,0.6,3.8c0.8,0.7,2.5,1.2,4,1.2C24.8-43.5,25.1-43.5,25.3-43.5z"
			/>
		<path class="st1" d="M6.5-43.5c1.7-0.2,4.2-0.8,5.6-1.4c1.5-0.6,2.7-1.8,2.7-2.7c0-0.9-0.6-2-1.4-2.6c-0.7-0.6-2.6-1.2-4.3-1.5
			c-1.6-0.2-3.8-0.1-4.9,0.3c-1.1,0.4-2.4,1.8-3,2.9c-0.6,1.2-0.4,3,0.6,3.8c0.8,0.7,2.5,1.2,4,1.2C6-43.5,6.2-43.5,6.5-43.5z"/>
		<path class="st1" d="M44.5-43.5c1.7-0.2,4.2-0.8,5.6-1.4c1.5-0.6,2.7-1.8,2.7-2.7c0-0.9-0.6-2-1.4-2.6c-0.7-0.6-2.6-1.2-4.3-1.5
			c-1.6-0.2-3.8-0.1-4.9,0.3c-1.1,0.4-2.4,1.8-3,2.9c-0.6,1.2-0.4,3,0.6,3.8c0.8,0.7,2.5,1.2,4,1.2C44-43.5,44.3-43.5,44.5-43.5z"/>
		<path class="st1" d="M25.3-29.4c1.7-0.2,4.2-0.8,5.6-1.4c1.5-0.6,2.7-1.8,2.7-2.7c0-0.9-0.6-2-1.4-2.6c-0.7-0.6-2.6-1.2-4.3-1.5
			c-1.6-0.2-3.8-0.1-4.9,0.3c-1.1,0.4-2.4,1.8-3,2.9c-0.6,1.2-0.4,3,0.6,3.8c0.8,0.7,2.5,1.2,4,1.2C24.8-29.3,25.1-29.3,25.3-29.4z"
			/>
		<path class="st1" d="M6.5-29.4c1.7-0.2,4.2-0.8,5.6-1.4c1.5-0.6,2.7-1.8,2.7-2.7c0-0.9-0.6-2-1.4-2.6c-0.7-0.6-2.6-1.2-4.3-1.5
			c-1.6-0.2-3.8-0.1-4.9,0.3c-1.1,0.4-2.4,1.8-3,2.9c-0.6,1.2-0.4,3,0.6,3.8c0.8,0.7,2.5,1.2,4,1.2C6-29.3,6.2-29.3,6.5-29.4z"/>
		<path class="st1" d="M44.5-29.4c1.7-0.2,4.2-0.8,5.6-1.4c1.5-0.6,2.7-1.8,2.7-2.7c0-0.9-0.6-2-1.4-2.6c-0.7-0.6-2.6-1.2-4.3-1.5
			c-1.6-0.2-3.8-0.1-4.9,0.3c-1.1,0.4-2.4,1.8-3,2.9c-0.6,1.2-0.4,3,0.6,3.8c0.8,0.7,2.5,1.2,4,1.2C44-29.3,44.3-29.3,44.5-29.4z"/>
		<path class="st1" d="M25.3-15.2c1.7-0.2,4.2-0.8,5.6-1.4c1.5-0.6,2.7-1.8,2.7-2.7c0-0.9-0.6-2-1.4-2.6c-0.7-0.6-2.6-1.2-4.3-1.5
			c-1.6-0.2-3.8-0.1-4.9,0.3c-1.1,0.4-2.4,1.8-3,2.9c-0.6,1.2-0.4,3,0.6,3.8c0.8,0.7,2.5,1.2,4,1.2C24.8-15.1,25.1-15.2,25.3-15.2z"
			/>
		<path class="st1" d="M6.5-15.2c1.7-0.2,4.2-0.8,5.6-1.4c1.5-0.6,2.7-1.8,2.7-2.7c0-0.9-0.6-2-1.4-2.6c-0.7-0.6-2.6-1.2-4.3-1.5
			c-1.6-0.2-3.8-0.1-4.9,0.3c-1.1,0.4-2.4,1.8-3,2.9c-0.6,1.2-0.4,3,0.6,3.8c0.8,0.7,2.5,1.2,4,1.2C6-15.1,6.2-15.2,6.5-15.2z"/>
		<path class="st1" d="M44.5-15.2c1.7-0.2,4.2-0.8,5.6-1.4c1.5-0.6,2.7-1.8,2.7-2.7c0-0.9-0.6-2-1.4-2.6c-0.7-0.6-2.6-1.2-4.3-1.5
			c-1.6-0.2-3.8-0.1-4.9,0.3c-1.1,0.4-2.4,1.8-3,2.9c-0.6,1.2-0.4,3,0.6,3.8c0.8,0.7,2.5,1.2,4,1.2C44-15.1,44.3-15.2,44.5-15.2z"/>
		<path class="st1" d="M25.3-1c1.7-0.2,4.2-0.8,5.6-1.4c1.5-0.6,2.7-1.8,2.7-2.7c0-0.9-0.6-2-1.4-2.6c-0.7-0.6-2.6-1.2-4.3-1.5
			C26.2-9.5,24-9.3,23-8.9c-1.1,0.4-2.4,1.8-3,2.9c-0.6,1.2-0.4,3,0.6,3.8C21.3-1.5,23-1,24.6-1C24.8-1,25.1-1,25.3-1z"/>
		<path class="st1" d="M6.5-1c1.7-0.2,4.2-0.8,5.6-1.4c1.5-0.6,2.7-1.8,2.7-2.7c0-0.9-0.6-2-1.4-2.6C12.6-8.4,10.7-9,9-9.3
			C7.4-9.5,5.2-9.3,4.2-8.9C3.1-8.5,1.7-7.2,1.1-6C0.5-4.7,0.7-3,1.7-2.2C2.5-1.5,4.2-1,5.7-1C6-1,6.2-1,6.5-1z"/>
		<path class="st1" d="M44.5-1c1.7-0.2,4.2-0.8,5.6-1.4c1.5-0.6,2.7-1.8,2.7-2.7c0-0.9-0.6-2-1.4-2.6c-0.7-0.6-2.6-1.2-4.3-1.5
			c-1.6-0.2-3.8-0.1-4.9,0.3c-1.1,0.4-2.4,1.8-3,2.9c-0.6,1.2-0.4,3,0.6,3.8c0.8,0.7,2.5,1.2,4,1.2C44-1,44.3-1,44.5-1z"/>
	</g>
</pattern>
<rect x="0" y="0" class="st2" width="56.7" height="56.7"/>
<path class="st3" d="M24.6,13.2c-1.5,0-3.2-0.5-4-1.2c-1-0.9-1.2-2.6-0.6-3.8c0.6-1.2,2-2.5,3-2.9c1-0.4,3.2-0.6,4.9-0.3
	c1.6,0.2,3.6,0.9,4.3,1.5C32.9,7,33.5,8.1,33.5,9c0,0.9-1.2,2.1-2.7,2.7c-1.4,0.6-3.9,1.2-5.6,1.4C25.1,13.2,24.8,13.2,24.6,13.2z"
	/>
<path class="st3" d="M5.7,13.2c-1.5,0-3.2-0.5-4-1.2c-1-0.9-1.2-2.6-0.6-3.8c0.6-1.2,2-2.5,3-2.9c1-0.4,3.2-0.6,4.9-0.3
	c1.6,0.2,3.6,0.9,4.3,1.5C14.1,7,14.7,8.1,14.7,9c0,0.9-1.2,2.1-2.7,2.7c-1.4,0.6-3.9,1.2-5.6,1.4C6.2,13.2,6,13.2,5.7,13.2z"/>
<path class="st3" d="M43.8,13.2c-1.5,0-3.2-0.5-4-1.2c-1-0.9-1.2-2.6-0.6-3.8c0.6-1.2,2-2.5,3-2.9c1-0.4,3.2-0.6,4.9-0.3
	c1.6,0.2,3.6,0.9,4.3,1.5C52.1,7,52.7,8.1,52.7,9c0,0.9-1.2,2.1-2.7,2.7c-1.4,0.6-3.9,1.2-5.6,1.4C44.3,13.2,44,13.2,43.8,13.2z"/>
<path class="st3" d="M24.6,27.4c-1.5,0-3.2-0.5-4-1.2c-1-0.9-1.2-2.6-0.6-3.8c0.6-1.2,2-2.5,3-2.9c1-0.4,3.2-0.6,4.9-0.3
	c1.6,0.2,3.6,0.9,4.3,1.5c0.8,0.6,1.4,1.8,1.4,2.6c0,0.9-1.2,2.1-2.7,2.7c-1.4,0.6-3.9,1.2-5.6,1.4C25.1,27.4,24.8,27.4,24.6,27.4z"
	/>
<path class="st3" d="M5.7,27.4c-1.5,0-3.2-0.5-4-1.2c-1-0.9-1.2-2.6-0.6-3.8c0.6-1.2,2-2.5,3-2.9c1-0.4,3.2-0.6,4.9-0.3
	c1.6,0.2,3.6,0.9,4.3,1.5c0.8,0.6,1.4,1.8,1.4,2.6c0,0.9-1.2,2.1-2.7,2.7c-1.4,0.6-3.9,1.2-5.6,1.4C6.2,27.4,6,27.4,5.7,27.4z"/>
<path class="st3" d="M43.8,27.4c-1.5,0-3.2-0.5-4-1.2c-1-0.9-1.2-2.6-0.6-3.8c0.6-1.2,2-2.5,3-2.9c1-0.4,3.2-0.6,4.9-0.3
	c1.6,0.2,3.6,0.9,4.3,1.5c0.8,0.6,1.4,1.8,1.4,2.6c0,0.9-1.2,2.1-2.7,2.7c-1.4,0.6-3.9,1.2-5.6,1.4C44.3,27.4,44,27.4,43.8,27.4z"/>
<path class="st3" d="M24.6,41.5c-1.5,0-3.2-0.5-4-1.2c-1-0.9-1.2-2.6-0.6-3.8c0.6-1.2,2-2.5,3-2.9c1-0.4,3.2-0.6,4.9-0.3
	c1.6,0.2,3.6,0.9,4.3,1.5c0.8,0.6,1.4,1.8,1.4,2.6c0,0.9-1.2,2.1-2.7,2.7c-1.4,0.6-3.9,1.2-5.6,1.4C25.1,41.5,24.8,41.5,24.6,41.5z"
	/>
<path class="st3" d="M5.7,41.5c-1.5,0-3.2-0.5-4-1.2c-1-0.9-1.2-2.6-0.6-3.8c0.6-1.2,2-2.5,3-2.9c1-0.4,3.2-0.6,4.9-0.3
	c1.6,0.2,3.6,0.9,4.3,1.5c0.8,0.6,1.4,1.8,1.4,2.6c0,0.9-1.2,2.1-2.7,2.7c-1.4,0.6-3.9,1.2-5.6,1.4C6.2,41.5,6,41.5,5.7,41.5z"/>
<path class="st3" d="M43.8,41.5c-1.5,0-3.2-0.5-4-1.2c-1-0.9-1.2-2.6-0.6-3.8c0.6-1.2,2-2.5,3-2.9c1-0.4,3.2-0.6,4.9-0.3
	c1.6,0.2,3.6,0.9,4.3,1.5c0.8,0.6,1.4,1.8,1.4,2.6c0,0.9-1.2,2.1-2.7,2.7c-1.4,0.6-3.9,1.2-5.6,1.4C44.3,41.5,44,41.5,43.8,41.5z"/>
<path class="st3" d="M24.6,55.7c-1.5,0-3.2-0.5-4-1.2c-1-0.9-1.2-2.6-0.6-3.8c0.6-1.2,2-2.5,3-2.9c1-0.4,3.2-0.6,4.9-0.3
	c1.6,0.2,3.6,0.9,4.3,1.5c0.8,0.6,1.4,1.8,1.4,2.6c0,0.9-1.2,2.1-2.7,2.7c-1.4,0.6-3.9,1.2-5.6,1.4C25.1,55.7,24.8,55.7,24.6,55.7z"
	/>
<path class="st3" d="M5.7,55.7c-1.5,0-3.2-0.5-4-1.2c-1-0.9-1.2-2.6-0.6-3.8c0.6-1.2,2-2.5,3-2.9c1-0.4,3.2-0.6,4.9-0.3
	c1.6,0.2,3.6,0.9,4.3,1.5c0.8,0.6,1.4,1.8,1.4,2.6c0,0.9-1.2,2.1-2.7,2.7c-1.4,0.6-3.9,1.2-5.6,1.4C6.2,55.7,6,55.7,5.7,55.7z"/>
<path class="st3" d="M43.8,55.7c-1.5,0-3.2-0.5-4-1.2c-1-0.9-1.2-2.6-0.6-3.8c0.6-1.2,2-2.5,3-2.9c1-0.4,3.2-0.6,4.9-0.3
	c1.6,0.2,3.6,0.9,4.3,1.5c0.8,0.6,1.4,1.8,1.4,2.6c0,0.9-1.2,2.1-2.7,2.7c-1.4,0.6-3.9,1.2-5.6,1.4C44.3,55.7,44,55.7,43.8,55.7z"/>
</svg>
