<?xml version="1.0" encoding="utf-8"?>
<!-- Generator: Adobe Illustrator 22.0.0, SVG Export Plug-In . SVG Version: 6.00 Build 0)  -->
<svg version="1.1" id="Ebene_1" xmlns="http://www.w3.org/2000/svg" xmlns:xlink="http://www.w3.org/1999/xlink" x="0px" y="0px"
	 viewBox="0 0 56.7 56.7" style="enable-background:new 0 0 56.7 56.7;" xml:space="preserve">
<style type="text/css">
	.st0{fill:none;}
	.st1{fill:none;stroke:#000000;stroke-width:0.5;stroke-linecap:round;stroke-linejoin:round;stroke-miterlimit:10;}
	.st2{fill:none;stroke:#000000;stroke-width:0.5;stroke-linejoin:round;stroke-miterlimit:10;}
	.st3{fill:none;stroke:url(#_x31_5102076);stroke-width:0.5;stroke-linecap:round;stroke-linejoin:round;stroke-miterlimit:10;}
	.st4{fill:none;stroke:url(#_x31_5102076);stroke-width:0.5;stroke-linejoin:round;stroke-miterlimit:10;}
	.st5{fill:none;stroke:url(#_x31_5102076);stroke-miterlimit:10;}
</style>
<pattern  width="56.7" height="56.7" patternUnits="userSpaceOnUse" id="_x31_5102076" viewBox="0 -56.7 56.7 56.7" style="overflow:visible;">
	<g>
		<rect x="0" y="-56.7" class="st0" width="56.7" height="56.7"/>
		<line class="st1" x1="33.1" y1="-0.9" x2="47.9" y2="-0.9"/>
		<line class="st2" x1="35.7" y1="-1.1" x2="35.7" y2="-10.8"/>
		<line class="st2" x1="45.6" y1="-10.8" x2="45.6" y2="-1.1"/>
		<line class="st1" x1="33.1" y1="-10.8" x2="47.9" y2="-10.8"/>
		<line class="st1" x1="33.1" y1="-19.3" x2="47.9" y2="-19.3"/>
		<line class="st2" x1="35.7" y1="-19.5" x2="35.7" y2="-29.2"/>
		<line class="st2" x1="45.6" y1="-29.2" x2="45.6" y2="-19.5"/>
		<line class="st1" x1="33.1" y1="-29.2" x2="47.9" y2="-29.2"/>
		<line class="st1" x1="33.1" y1="-37.2" x2="47.9" y2="-37.2"/>
		<line class="st2" x1="35.7" y1="-37.4" x2="35.7" y2="-47"/>
		<line class="st2" x1="45.6" y1="-47" x2="45.6" y2="-37.4"/>
		<line class="st1" x1="33.1" y1="-47.1" x2="47.9" y2="-47.1"/>
		<line class="st1" x1="5" y1="-9.1" x2="19.9" y2="-9.1"/>
		<line class="st2" x1="7.6" y1="-9.3" x2="7.6" y2="-19"/>
		<line class="st2" x1="17.5" y1="-19" x2="17.5" y2="-9.3"/>
		<line class="st1" x1="5" y1="-19" x2="19.9" y2="-19"/>
		<line class="st1" x1="5" y1="-27.5" x2="19.9" y2="-27.5"/>
		<line class="st2" x1="7.6" y1="-27.7" x2="7.6" y2="-37.4"/>
		<line class="st2" x1="17.5" y1="-37.4" x2="17.5" y2="-27.7"/>
		<line class="st1" x1="5" y1="-37.5" x2="19.9" y2="-37.5"/>
		<line class="st1" x1="5" y1="-45.4" x2="19.9" y2="-45.4"/>
		<line class="st2" x1="7.6" y1="-45.6" x2="7.6" y2="-55.3"/>
		<line class="st2" x1="17.5" y1="-55.3" x2="17.5" y2="-45.6"/>
		<line class="st1" x1="5" y1="-55.3" x2="19.9" y2="-55.3"/>
		<rect x="0" y="-56.7" class="st0" width="56.7" height="56.7"/>
	</g>
</pattern>
<line class="st3" x1="33.1" y1="55.8" x2="47.9" y2="55.8"/>
<line class="st4" x1="35.7" y1="55.6" x2="35.7" y2="45.9"/>
<line class="st4" x1="45.6" y1="45.9" x2="45.6" y2="55.6"/>
<line class="st3" x1="33.1" y1="45.9" x2="47.9" y2="45.9"/>
<line class="st3" x1="33.1" y1="37.4" x2="47.9" y2="37.4"/>
<line class="st4" x1="35.7" y1="37.2" x2="35.7" y2="27.5"/>
<line class="st4" x1="45.6" y1="27.5" x2="45.6" y2="37.2"/>
<line class="st3" x1="33.1" y1="27.5" x2="47.9" y2="27.5"/>
<line class="st3" x1="33.1" y1="19.5" x2="47.9" y2="19.5"/>
<line class="st4" x1="35.7" y1="19.3" x2="35.7" y2="9.6"/>
<line class="st4" x1="45.6" y1="9.6" x2="45.6" y2="19.3"/>
<line class="st3" x1="33.1" y1="9.6" x2="47.9" y2="9.6"/>
<line class="st3" x1="5" y1="47.6" x2="19.9" y2="47.6"/>
<line class="st4" x1="7.6" y1="47.4" x2="7.6" y2="37.7"/>
<line class="st4" x1="17.5" y1="37.7" x2="17.5" y2="47.4"/>
<line class="st3" x1="5" y1="37.7" x2="19.9" y2="37.7"/>
<line class="st3" x1="5" y1="29.2" x2="19.9" y2="29.2"/>
<line class="st4" x1="7.6" y1="29" x2="7.6" y2="19.3"/>
<line class="st4" x1="17.5" y1="19.3" x2="17.5" y2="29"/>
<line class="st3" x1="5" y1="19.2" x2="19.9" y2="19.2"/>
<line class="st3" x1="5" y1="11.3" x2="19.9" y2="11.3"/>
<line class="st4" x1="7.6" y1="11.1" x2="7.6" y2="1.4"/>
<line class="st4" x1="17.5" y1="1.4" x2="17.5" y2="11.1"/>
<line class="st3" x1="5" y1="1.4" x2="19.9" y2="1.4"/>
<rect x="0" y="0" class="st5" width="56.7" height="56.7"/>
</svg>
